<?xml version="1.0" encoding="UTF-8"?>
<svg width="36px" height="36px" viewBox="0 0 36 36" version="1.1" xmlns="http://www.w3.org/2000/svg" xmlns:xlink="http://www.w3.org/1999/xlink">
    <!-- Generator: Sketch 51.1 (57501) - http://www.bohemiancoding.com/sketch -->
    <title>1/日历</title>
    <desc>Created with Sketch.</desc>
    <defs></defs>
    <g id="1/日历" stroke="none" stroke-width="1" fill="none" fill-rule="evenodd">
        <g id="日历" transform="translate(3.000000, 3.000000)" fill="#FFFFFF" fill-rule="nonzero">
            <path d="M3.75,3.75 C2.71446609,3.75 1.875,4.58946609 1.875,5.625 L1.875,26.25 C1.875,27.2855339 2.71446609,28.125 3.75,28.125 L26.25,28.125 C27.2855339,28.125 28.125,27.2855339 28.125,26.25 L28.125,5.625 C28.125,4.58946609 27.2855339,3.75 26.25,3.75 L3.75,3.75 Z M3.75,1.875 L26.25,1.875 C28.3210678,1.875 30,3.55393219 30,5.625 L30,26.25 C30,28.3210678 28.3210678,30 26.25,30 L3.75,30 C1.67893219,30 2.53632657e-16,28.3210678 0,26.25 L0,5.625 C-2.53632657e-16,3.55393219 1.67893219,1.875 3.75,1.875 Z" id="Shape"></path>
            <path d="M7.5,15.9375 C8.01776695,15.9375 8.4375,16.357233 8.4375,16.875 C8.4375,17.392767 8.01776695,17.8125 7.5,17.8125 L3.75,17.8125 C3.23223305,17.8125 2.8125,17.392767 2.8125,16.875 C2.8125,16.357233 3.23223305,15.9375 3.75,15.9375 L7.5,15.9375 Z M16.875,15.9375 C17.392767,15.9375 17.8125,16.357233 17.8125,16.875 C17.8125,17.392767 17.392767,17.8125 16.875,17.8125 L13.125,17.8125 C12.607233,17.8125 12.1875,17.392767 12.1875,16.875 C12.1875,16.357233 12.607233,15.9375 13.125,15.9375 L16.875,15.9375 Z M26.25,15.9375 C26.767767,15.9375 27.1875,16.357233 27.1875,16.875 C27.1875,17.392767 26.767767,17.8125 26.25,17.8125 L22.5,17.8125 C21.982233,17.8125 21.5625,17.392767 21.5625,16.875 C21.5625,16.357233 21.982233,15.9375 22.5,15.9375 L26.25,15.9375 Z M7.5,20.625 C8.01776695,20.625 8.4375,21.044733 8.4375,21.5625 C8.4375,22.080267 8.01776695,22.5 7.5,22.5 L3.75,22.5 C3.23223305,22.5 2.8125,22.080267 2.8125,21.5625 C2.8125,21.044733 3.23223305,20.625 3.75,20.625 L7.5,20.625 Z M16.875,20.625 C17.392767,20.625 17.8125,21.044733 17.8125,21.5625 C17.8125,22.080267 17.392767,22.5 16.875,22.5 L13.125,22.5 C12.607233,22.5 12.1875,22.080267 12.1875,21.5625 C12.1875,21.044733 12.607233,20.625 13.125,20.625 L16.875,20.625 Z M26.25,20.625 C26.767767,20.625 27.1875,21.044733 27.1875,21.5625 C27.1875,22.080267 26.767767,22.5 26.25,22.5 L22.5,22.5 C21.982233,22.5 21.5625,22.080267 21.5625,21.5625 C21.5625,21.044733 21.982233,20.625 22.5,20.625 L26.25,20.625 Z M28.125,8.4375 C28.642767,8.4375 29.0625,8.85723305 29.0625,9.375 C29.0625,9.89276695 28.642767,10.3125 28.125,10.3125 L1.875,10.3125 C1.35723305,10.3125 0.9375,9.89276695 0.9375,9.375 C0.9375,8.85723305 1.35723305,8.4375 1.875,8.4375 L28.125,8.4375 Z M8.4375,0.9375 C8.4375,0.419733047 8.85723305,9.51122462e-17 9.375,0 C9.89276695,-9.51122462e-17 10.3125,0.419733047 10.3125,0.9375 L10.3125,4.6875 C10.3125,5.20526695 9.89276695,5.625 9.375,5.625 C8.85723305,5.625 8.4375,5.20526695 8.4375,4.6875 L8.4375,0.9375 Z M19.6875,0.9375 C19.6875,0.419733047 20.107233,9.51122462e-17 20.625,0 C21.142767,-9.51122462e-17 21.5625,0.419733047 21.5625,0.9375 L21.5625,4.6875 C21.5625,5.20526695 21.142767,5.625 20.625,5.625 C20.107233,5.625 19.6875,5.20526695 19.6875,4.6875 L19.6875,0.9375 Z" id="Shape"></path>
        </g>
    </g>
</svg>