<?xml version="1.0" encoding="UTF-8"?>
<svg width="36px" height="36px" viewBox="0 0 36 36" version="1.1" xmlns="http://www.w3.org/2000/svg" xmlns:xlink="http://www.w3.org/1999/xlink">
    <!-- Generator: Sketch 51.1 (57501) - http://www.bohemiancoding.com/sketch -->
    <title>1/钱包</title>
    <desc>Created with Sketch.</desc>
    <defs></defs>
    <g id="1/钱包" stroke="none" stroke-width="1" fill="none" fill-rule="evenodd">
        <g id="钱包" transform="translate(3.000000, 7.000000)" fill="#FFFFFF" fill-rule="nonzero">
            <path d="M25.5191134,0.0196637006 L3.96277465,0.0196637006 C1.78338046,0.0196637006 0.0103695298,1.73204486 0.0103695298,3.83770014 L0.0103695298,19.10493 C0.0103695298,21.2089467 1.78338044,22.9213278 3.96277465,22.9213278 L25.5191134,22.9213278 C27.6985076,22.9213278 29.4715185,21.2089467 29.4715186,19.1032914 L29.4715186,3.83770014 C29.4731572,1.73204486 27.6985076,0.0196637006 25.5191134,0.0196637006 Z M27.316704,13.8989636 L19.4118938,13.8989636 C18.0256024,13.8989636 16.8965779,12.8092665 16.8965779,11.4704958 C16.8965779,10.131725 18.0256024,9.04202795 19.4118938,9.04202795 L27.316704,9.04202795 L27.316704,13.8989636 Z M27.316704,6.95931363 L19.4118938,6.95931363 C16.8359482,6.95931363 14.7417634,8.98303682 14.7417634,11.4704958 C14.7417634,13.9579547 16.8359482,15.9816779 19.4118938,15.9816779 L27.316704,15.9816779 L27.316704,19.10493 C27.316704,20.0602584 26.510492,20.8386135 25.5191134,20.8386135 L3.96277465,20.8386135 C2.97139608,20.8386135 2.16518411,20.0602584 2.16518409,19.10493 L2.16518409,3.83442287 C2.16518409,2.87745579 2.97139608,2.10073937 3.96277465,2.10073937 L25.5191134,2.10073937 C26.510492,2.10073937 27.316704,2.87745579 27.316704,3.83442287 L27.316704,6.95767499 L27.316704,6.95931363 Z M18.3336672,11.4704958 C18.3336672,12.2373803 18.9776536,12.8584257 19.7707564,12.8584257 C20.5654979,12.8584257 21.2078457,12.2357417 21.2078457,11.4704958 C21.2078457,10.7036112 20.5654979,10.0825658 19.7707564,10.0825658 C18.9776536,10.0825658 18.3336672,10.7052498 18.3336672,11.4704958 Z" id="Shape"></path>
        </g>
    </g>
</svg>