<?xml version="1.0" encoding="UTF-8"?>
<svg width="100px" height="100px" viewBox="0 0 100 100" version="1.1" xmlns="http://www.w3.org/2000/svg" xmlns:xlink="http://www.w3.org/1999/xlink">
    <!-- Generator: Sketch 51.1 (57501) - http://www.bohemiancoding.com/sketch -->
    <title>360@2x</title>
    <desc>Created with Sketch.</desc>
    <defs></defs>
    <g id="Page-1" stroke="none" stroke-width="1" fill="none" fill-rule="evenodd">
        <g id="饥人谷-公司介绍" transform="translate(-281.000000, -3327.000000)" fill="#B8D7E9" fill-rule="nonzero">
            <g id="7" transform="translate(0.000000, 3004.000000)">
                <g id="logo" transform="translate(281.000000, 156.000000)">
                    <g id="360" transform="translate(0.000000, 167.000000)">
                        <path d="M50.0374502,0.08787251 C22.4521753,0.08787251 0.0883824701,22.4516653 0.0883824701,50.0379602 C0.08787251,77.624255 22.4521753,99.9880478 50.0374502,99.9880478 C77.6247649,99.9880478 99.9880478,77.624255 99.9880478,50.0379602 C99.9880478,22.4516653 77.624255,0.08787251 50.0374502,0.08787251 Z M73.7975139,68.9890996 C72.4983508,70.6246583 71.0290659,72.1175338 69.4144064,73.4425817 C69.380239,73.4685896 69.3491315,73.4961275 69.3149641,73.5236653 C69.2512191,73.5751713 69.1859442,73.6251474 69.1221992,73.6781833 C63.8961275,77.8940239 57.2554263,80.4290359 50.0374502,80.4290359 C42.1376574,80.4290359 34.9222311,77.3917131 29.5018645,72.4292908 C27.6298008,70.7979283 26.2840159,69.2369402 25.3716972,67.8039522 C21.7463904,62.801753 19.6035378,56.6613227 19.6035378,50.0374502 C19.6035378,33.2995378 33.2770996,19.6473944 50.0374502,19.6473944 C66.8003506,19.6473944 80.4744223,33.3000478 80.4744223,50.0374502 C80.4739124,57.194741 77.9715378,63.787506 73.7975139,68.9890996 Z" id="Shape"></path>
                        <path d="M66.5168127,37.6530677 C64.1006215,35.3725259 62.6640637,33.1501195 57.988749,30.9516813 C55.2354741,29.6517928 47.7370199,27.5492271 41.4930677,28.7904701 C38.1329402,29.458008 32.7441912,30.917004 28.0199203,33.6621195 C24.4114422,38.3420239 22.2583904,44.1953466 22.2583904,50.5341514 C22.2556285,54.4153208 23.0745598,58.2531054 24.6613227,61.7950916 C25.7403984,59.4156175 29.2071076,59.0484462 32.465753,62.1219761 L33.8416255,63.4351235 C36.2460876,65.7049562 37.6953944,67.9268526 42.3579602,70.123761 C45.1214343,71.4267092 52.6214183,73.528255 58.8551713,72.2854821 C62.0878088,71.6449721 67.19149,70.2736892 71.7678725,67.7396972 C75.5344382,63.006757 77.7920319,57.0259442 77.7920319,50.5336414 C77.7959507,46.6426283 76.972518,42.7952491 75.3763506,39.2466932 C74.4120159,41.6108685 71.1186932,42.0035378 67.8931952,38.9539761 L66.5168127,37.6530677 Z M62.1984701,54.558247 C62.1010677,54.558247 62.0046853,54.5516175 61.9072829,54.5465179 L54.3139761,54.5465179 L54.3139761,61.5406215 C54.3246853,61.637004 54.3262151,61.7349163 54.3262151,61.8338486 C54.3262151,63.9823108 52.5688924,65.7488127 50.4041116,65.7488127 C48.2510598,65.7488127 46.4922072,63.9818008 46.4922072,61.8338486 L46.4922072,54.5465179 L40.1340239,54.5465179 C40.0366215,54.5516175 39.940749,54.558247 39.8407968,54.558247 C37.6892749,54.558247 35.9288924,52.8039841 35.9288924,50.6529721 C35.9288924,48.491251 37.6892749,46.7349482 39.8407968,46.7349482 L46.4922072,46.7349482 L46.4922072,39.5205418 C46.4922072,37.3700398 48.2505498,35.6030279 50.4041116,35.6030279 C52.5694024,35.6030279 54.3262151,37.3700398 54.3262151,39.5205418 C54.3262151,39.6179442 54.3241753,39.7153466 54.3139761,39.812239 L54.3139761,46.7354582 L61.9072829,46.7354582 C62.0016255,46.7283187 62.1010677,46.7227092 62.1984701,46.7227092 C64.3520319,46.7227092 66.1119044,48.478502 66.1119044,50.6402231 C66.1124143,52.7902151 64.3520319,54.558247 62.1984701,54.558247 Z" id="Shape"></path>
                    </g>
                </g>
            </g>
        </g>
    </g>
</svg>