<?xml version="1.0" encoding="UTF-8"?>
<svg width="100px" height="100px" viewBox="0 0 100 100" version="1.1" xmlns="http://www.w3.org/2000/svg" xmlns:xlink="http://www.w3.org/1999/xlink">
    <!-- Generator: Sketch 51.1 (57501) - http://www.bohemiancoding.com/sketch -->
    <title>阿里巴巴@2x</title>
    <desc>Created with Sketch.</desc>
    <defs></defs>
    <g id="Page-1" stroke="none" stroke-width="1" fill="none" fill-rule="evenodd">
        <g id="饥人谷-公司介绍" transform="translate(-281.000000, -3160.000000)" fill="#B8D7E9" fill-rule="nonzero">
            <g id="7" transform="translate(0.000000, 3004.000000)">
                <g id="logo" transform="translate(281.000000, 156.000000)">
                    <g id="阿里巴巴">
                        <path d="M81.8359375,0 L18.1640625,0 C8.17382812,0 0,8.17382812 0,18.1640625 L0,81.8359375 C0,91.7285156 8.01757812,99.84375 17.8710938,100 L82.1289062,100 C91.9824219,99.84375 100,91.7285156 100,81.8359375 L100,18.1640625 C100,8.17382812 91.8261719,0 81.8359375,0 Z M50.9375,65.6347656 C50.9863281,64.1308594 51.6113281,62.4902344 52.8710938,60.6933594 C53.984375,58.9550781 55.5859375,57.2070312 57.1777344,55.3222656 C59.6484375,52.4609375 65.7421875,45.8300781 67.8320312,41.71875 C68.2226562,40.9472656 68.4570312,40.2148438 68.5546875,39.5898438 C68.7988281,35.9082031 64.1015625,34.4628906 57.1289062,32.5195312 L55.7714844,33.3398438 L58.3886719,35.46875 C46.6210938,37.5488281 39.5605469,39.7265625 30.9863281,42.734375 L32.1972656,45.78125 L27.890625,50 C28.6132812,50.1464844 36.1230469,52.6660156 43.8671875,47.2363281 L43.9160156,47.1875 L44.0136719,47.0898438 C43.7695312,46.6992188 43.2910156,46.2890625 42.6074219,45.7617188 C44.9316406,45.9082031 46.3378906,47.0410156 46.09375,50.0390625 L45.078125,50.0390625 C45.1269531,50.0390625 45,48.6132812 44.8046875,48.0761719 C38.7988281,52.5292969 31.8554687,53.0859375 25.8984375,51.0058594 L25.8984375,56.2304688 C22.7929687,57.2460938 17.8417969,60.4394531 17.8417969,63.4960938 C18.0371094,65 18.7304687,65.5273438 19.453125,65.9179688 C26.0351562,69.6484375 43.8378906,64.5605469 43.7890625,64.5605469 C37.4023437,67.8515625 31.0449219,70.46875 21.6601562,70.8496094 C9.21875,70.625 7.421875,62.34375 13.1835938,53.7304688 C18.75,45.0195313 27.5097656,37.2753906 41.5039062,32.3339844 C45.5664063,30.8789063 51.5234375,29.2871094 57.2851562,29.140625 C65.5664062,29.140625 73.6035156,31.6113281 73.0664063,39.5996094 C72.6757813,45.7519531 64.0625,54.1699219 59.4140625,60.3710938 C57.3828125,63.0371094 57.0410156,64.8730469 60.4785156,64.6289063 C72.6269531,63.8574219 83.8085938,59.6386719 94.1210938,55.234375 C87.0507813,59.921875 51.1816406,77.7832031 50.9375,65.6347656 Z" id="Shape"></path>
                    </g>
                </g>
            </g>
        </g>
    </g>
</svg>