<?xml version="1.0" encoding="UTF-8"?>
<svg width="93px" height="100px" viewBox="0 0 93 100" version="1.1" xmlns="http://www.w3.org/2000/svg" xmlns:xlink="http://www.w3.org/1999/xlink">
    <!-- Generator: Sketch 51.1 (57501) - http://www.bohemiancoding.com/sketch -->
    <title>百度@2x</title>
    <desc>Created with Sketch.</desc>
    <defs>
        <linearGradient x1="9.79872569%" y1="0%" x2="100%" y2="90.562036%" id="linearGradient-1">
            <stop stop-color="#557AAE" offset="0%"></stop>
            <stop stop-color="#2B4576" offset="100%"></stop>
        </linearGradient>
    </defs>
    <g id="Page-1" stroke="none" stroke-width="1" fill="none" fill-rule="evenodd">
        <g id="饥人谷-公司介绍" transform="translate(-676.000000, -3160.000000)" fill="url(#linearGradient-1)" fill-rule="nonzero">
            <g id="7" transform="translate(0.000000, 3004.000000)">
                <g id="logo" transform="translate(281.000000, 156.000000)">
                    <g id="百度" transform="translate(395.000000, 0.000000)">
                        <path d="M33.2712122,0.0917101463 C35.2996085,-0.210710451 37.3680103,0.251487955 39.0747447,1.38854888 C41.6407505,3.1940916 43.5316382,5.80351663 44.448386,8.80417385 C46.0038342,13.4129013 45.9024775,18.4199231 44.1617918,22.9619272 C43.3153006,25.219928 41.9102144,27.2264897 40.0778244,28.7941192 C37.0304063,31.5267847 32.4534982,31.6540894 29.2588934,29.0950431 C26.8870533,27.1310293 25.1638642,24.4962982 24.3151434,21.5361211 C22.9856958,17.1679474 23.1368264,12.4829014 24.7450347,8.20949083 C25.6442414,5.61364708 27.28914,3.3406963 29.473839,1.67514312 C30.6077546,0.874446486 31.9043621,0.333785611 33.2712122,0.0917101463 Z M62.7904147,2.35580429 C64.2167007,2.13368942 65.676474,2.3853745 66.9460306,3.07228985 C68.7377378,3.96887502 70.3048976,5.25688442 71.5315379,6.84100351 C73.2888671,9.02451497 74.4271674,11.640131 74.8273711,14.4142552 C75.0709113,16.3436619 74.874961,18.3031643 74.2541827,20.1461392 C73.6073015,22.3782973 72.6161909,24.4958898 71.3165922,26.4225522 C70.1461065,28.1137714 68.6325133,29.5394785 66.874382,30.6068275 C65.201929,31.5708102 63.2847736,32.0264459 61.3574437,31.917996 C58.9791731,31.8319732 56.7026533,30.9314831 54.9090742,29.3673076 C53.2177834,27.7202983 52.0894626,25.5815034 51.6848895,23.2556863 C51.2789469,20.8326244 51.2306672,18.3631167 51.5415924,15.9260397 C51.899776,13.7720516 52.7052067,11.7169831 53.9059945,9.8932318 C55.0714268,7.94657897 56.5478227,6.20394774 58.2765561,4.7345362 C59.5608873,3.58738597 61.1131241,2.78170116 62.7904147,2.39162859 L62.7904147,2.35580429 Z M9.69883932,23.0622352 C11.8632133,22.7017799 14.0858567,23.085691 16.0039117,24.1512932 C18.7660398,25.7461785 20.9870759,28.1319208 22.3806326,31.0008945 C22.974295,32.1599718 23.3621822,33.4133324 23.5270094,34.7051246 C23.8993765,37.9622946 23.6563302,41.2604324 22.8105239,44.4278328 C22.1977391,46.5870224 21.00888,48.5387327 19.3713935,50.0737385 C17.1721367,51.8838467 14.41006,52.8695787 11.5617016,52.8608671 C9.19984915,52.8841912 6.90935051,52.0519767 5.1133321,50.5179595 C2.8813757,48.446625 1.31104484,45.762107 0.599473463,42.8014107 C0.0517733395,40.8267074 -0.0703341831,38.7582059 0.241230732,36.7327785 C0.586775572,33.3019596 1.76756979,30.0080357 3.68036107,27.1390378 C5.04609842,25.0157122 7.22038802,23.5428899 9.69883932,23.0622352 Z M78.6247443,30.5136844 C81.2032519,30.1480565 83.8316914,30.5911363 86.147842,31.7818637 C88.244022,32.9194316 89.9435994,34.6689965 91.0199434,36.7972622 C91.9779756,38.5140804 92.5638675,40.4133467 92.7395086,42.3715194 C92.9193647,45.1635166 92.7751056,47.9669512 92.3096173,50.7257403 C91.9367761,52.6765922 91.1013851,54.5095382 89.8735665,56.0707221 C88.6857694,57.5506466 87.0526711,58.6083918 85.2164108,59.0871261 C83.3416796,59.5420476 81.4018494,59.6657118 79.4845268,59.4525338 C77.2111857,59.3197697 75.0233389,58.5391062 73.1794544,57.2027693 C71.6084672,55.9569935 70.4579878,54.2587859 69.8836212,52.3378327 C69.2272896,49.791911 68.9615464,47.1610529 69.0954871,44.5353057 C69.1136774,41.7783445 69.6483264,39.0492046 70.6717552,36.4891735 C71.4812482,34.544853 72.8858795,32.9069526 74.684074,31.8105232 C75.8917839,31.1008232 77.233632,30.6494743 78.6247443,30.485025 L78.6247443,30.5136844 Z M44.3767375,40.6089651 C46.9742058,40.313017 49.6028966,40.7420392 51.9714837,41.848485 C55.5165319,43.6813747 58.4905006,46.4521223 60.5693097,49.8587929 C63.2853297,53.6492302 66.3302396,57.1928341 69.6686755,60.4484486 C72.7797883,63.5716514 76.0564615,66.5254408 79.4845268,69.2970445 C80.0577152,69.7770898 80.6309036,70.214146 81.204092,70.7300154 C83.7733578,73.3729179 85.3654534,76.8123497 85.7179507,80.4813831 C85.9789231,84.3394675 85.2385029,88.1995247 83.5684941,91.6872163 C82.3533297,94.2928146 80.3137219,96.4255897 77.7649617,97.7558485 C74.2010268,99.4735016 70.2452941,100.215202 66.3011937,99.905305 C62.504441,99.743064 58.7459625,99.0781025 55.1240199,97.927805 C50.6877446,96.7509321 46.0694634,96.4203603 41.5107954,96.9533847 C39.4329875,97.18266 37.3551795,97.7701781 35.2773716,98.0854318 C30.5187376,98.861311 25.6881596,99.1016382 20.8760131,98.8019173 C16.879493,98.6355874 13.1473741,96.7590884 10.6302704,93.6503865 C9.11788647,91.7789424 7.99707969,89.6226075 7.33443717,87.3094899 C6.64470702,85.1812313 6.30591927,82.9549118 6.33135746,80.7178233 C6.48907574,78.0736871 7.24877069,75.5005267 8.55246244,73.1947256 C10.5965923,69.807824 13.3012546,66.8668083 16.5054515,64.5467456 C17.4749992,63.9124914 18.3861453,63.1931655 19.2280964,62.3972891 C20.6610674,61.0359666 22.2373355,59.7677873 23.741955,58.3849703 C26.4954799,55.836483 28.9475603,52.9805306 31.0501071,49.8731226 C31.6949441,48.9918455 32.1964839,48.0460846 32.8413209,47.2077966 C35.6464661,43.5436604 39.7995317,41.1524233 44.3767375,40.565976 L44.3767375,40.6089651 Z M36.1371541,56.522108 L36.1371541,66.0871895 L29.2588934,66.0871895 C28.4782479,66.1052085 27.7049931,66.2429445 26.9661398,66.4955861 C25.134024,67.0423522 23.4620856,68.0258454 22.0940384,69.3615282 C20.4715041,70.965448 19.2874099,72.9586732 18.654908,75.150731 C18.3325519,77.1223063 18.3325519,79.1331502 18.654908,81.1047255 C18.9757181,83.0128717 19.7633402,84.8120959 20.9476616,86.3422344 C22.5353665,88.4507098 24.820885,89.9261389 27.3960311,90.5050152 C28.6291262,90.6860803 29.8769779,90.7460731 31.1217557,90.6841366 L42.7288208,90.6841366 L42.7288208,56.4934486 L36.1371541,56.4934486 L36.1371541,56.522108 Z M46.3112483,66.5672347 L46.3112483,83.7628866 C46.2407626,85.6928941 47.027661,87.5552204 48.4607048,88.8499338 C49.7823415,89.9399042 51.4094394,90.5932465 53.1178605,90.7199609 L69.0954871,90.7199609 L69.0954871,66.5958941 L62.5038205,66.5958941 L62.5038205,85.1886928 L55.5539112,85.1886928 C54.8019152,85.2083435 54.0754614,84.9151675 53.5477518,84.3790642 C53.0917165,83.8639883 52.8596643,83.1884585 52.9029148,82.5018722 L52.9029148,66.5887293 L46.3112483,66.5887293 L46.3112483,66.5672347 Z M46.3112483,66.5672347 L28.829002,71.99103 C29.2729166,71.7552369 29.7607819,71.613756 30.2619731,71.5754684 L36.1371541,71.5754684 C36.2088027,76.1036567 36.2088027,80.6413982 36.1371541,85.1886928 L30.90681,85.1886928 C29.0614984,85.2533651 27.3088319,84.3797283 26.2496543,82.8672798 C25.3960874,81.5971495 24.9465238,80.0986041 24.9599804,78.5683668 C24.9580061,77.3172002 25.1762821,76.0754522 25.6048174,74.8999611 C26.308658,73.5948845 27.4504068,72.5799967 28.829002,72.034019 L46.3112483,66.5672347 Z" id="Shape"></path>
                    </g>
                </g>
            </g>
        </g>
    </g>
</svg>