<?xml version="1.0" encoding="UTF-8"?>
<svg width="100px" height="100px" viewBox="0 0 100 100" version="1.1" xmlns="http://www.w3.org/2000/svg" xmlns:xlink="http://www.w3.org/1999/xlink">
    <!-- Generator: Sketch 51.1 (57501) - http://www.bohemiancoding.com/sketch -->
    <title>bilibili@2x</title>
    <desc>Created with Sketch.</desc>
    <defs>
        <linearGradient x1="9.79872569%" y1="0%" x2="100%" y2="90.562036%" id="linearGradient-1">
            <stop stop-color="#557AAE" offset="0%"></stop>
            <stop stop-color="#2B4576" offset="100%"></stop>
        </linearGradient>
    </defs>
    <g id="Page-1" stroke="none" stroke-width="1" fill="none" fill-rule="evenodd">
        <g id="饥人谷-公司介绍" transform="translate(-672.000000, -3329.000000)" fill="url(#linearGradient-1)" fill-rule="nonzero">
            <g id="7" transform="translate(0.000000, 3004.000000)">
                <g id="logo" transform="translate(281.000000, 156.000000)">
                    <g id="bilibili" transform="translate(391.000000, 169.000000)">
                        <path d="M20.4031638,58.1468927 C20.6851977,60.200678 20.9744633,62.2689266 21.2564972,64.4022599 C23.0065537,63.0933333 24.6770621,61.7988701 26.3692655,60.5261017 C26.1450847,60.2368362 21.5023729,58.3927684 20.4031638,58.1468927 Z" id="Shape"></path>
                        <path d="M60.6978531,58.1468927 C60.979887,60.200678 61.2691525,62.2689266 61.5511864,64.4022599 C63.3012429,63.0933333 64.9717514,61.7988701 66.6639548,60.5261017 C66.439774,60.2368362 61.7970621,58.3927684 60.6978531,58.1468927 Z" id="Shape"></path>
                        <path d="M50.0167232,0.0334463277 C22.420791,0.0334463277 0.0533333333,22.400904 0.0533333333,49.9968362 C0.0533333333,77.5927684 22.420791,99.960226 50.0167232,99.960226 C77.6126554,99.960226 99.980113,77.5927684 99.980113,49.9968362 C99.980113,22.400904 77.6126554,0.0334463277 50.0167232,0.0334463277 Z M47.1819209,43.4305085 L48.8379661,43.4305085 C49.12,43.4305085 49.2574011,43.5245198 49.2574011,43.8644068 L49.2574011,48.6951412 L49.2574011,49.0784181 C48.5920904,49.0422599 47.9050847,49.020565 47.1891525,48.9844068 L47.1891525,43.4305085 L47.1819209,43.4305085 Z M35.8716384,42.8085876 C36.059661,42.8085876 36.1536723,42.9242938 36.1970621,43.1484746 C36.3706215,44.8985311 36.5224859,46.6051977 36.7105085,48.4131073 C36.0451977,48.4926554 35.4160452,48.5071186 34.7145763,48.5649718 C34.4687006,46.6485876 34.2372881,44.7828249 33.9914124,42.8447458 C34.6422599,42.8085876 35.2641808,42.8085876 35.8716384,42.8085876 Z M33.1742373,43.1123164 C33.4418079,43.0761582 33.3622599,43.300339 33.4056497,43.4522034 C33.4635028,44.0958192 33.5358192,44.7032768 33.5936723,45.3324294 C33.6876836,46.3231638 33.8250847,47.2705085 33.919096,48.2612429 L33.919096,48.6445198 L32.3787571,48.9120904 C32.0388701,47.0680226 31.7134463,45.2456497 31.3735593,43.3654237 C31.9810169,43.300339 32.5667797,43.1629379 33.1742373,43.1123164 Z M32.8922034,61.0684746 C32.6463277,61.8856497 32.0750282,62.5292655 31.3735593,63.0644068 C29.7175141,64.3733333 28.0108475,65.5159322 26.0149153,66.1812429 C24.6119774,66.6585311 23.180113,66.9984181 21.719322,67.2298305 C19.8174011,67.5118644 17.879322,67.6492655 15.9412429,67.8372881 C15.5435028,67.8951412 15.160226,67.8372881 14.740791,67.8372881 C14.5527684,67.8372881 14.4949153,67.7432768 14.4949153,67.5552542 C14.4732203,66.7019209 14.400904,65.8051977 14.3430508,64.9157062 C14.2490395,63.7731073 14.1333333,62.6522034 14.0031638,61.5168362 C13.8151412,59.9186441 13.619887,58.3783051 13.4318644,56.7873446 C13.2438418,55.1168362 13.0124294,53.460791 12.8244068,51.8047458 C12.6363842,50.1703955 12.4845198,48.5577401 12.2531073,46.9378531 C11.9855367,45.0937853 11.739661,43.2714124 11.4576271,41.3911864 C11.1755932,39.2216949 10.7561582,37.0377401 10.1848588,34.9116384 C10.1487006,34.8176271 10.2427119,34.6296045 10.300565,34.5717514 C12.180791,33.8485876 14.0465537,33.1109605 15.9267797,32.3444068 C16.5342373,32.0768362 16.5920904,31.9828249 16.5920904,32.7783051 C16.5920904,36.1410169 16.5920904,39.4892655 16.6499435,42.8519774 C16.6861017,44.6020339 16.7439548,46.3520904 16.8813559,48.0949153 C17.0332203,50.1848588 17.2646328,52.3109605 17.4526554,54.4442938 C17.4526554,54.5383051 17.5105085,54.6178531 17.5105085,54.6757062 C18.2336723,54.639548 18.9351412,54.5816949 19.6366102,54.5816949 C22.6232768,54.5021469 25.5448588,54.9071186 28.3435028,56.0063277 C29.7102825,56.5559322 31.040904,57.1850847 32.219661,58.0745763 C33.1959322,58.8122034 33.420113,59.7233898 32.8922034,61.0684746 Z M35.4160452,65.4219209 C34.4325424,60.4971751 33.4779661,55.6519774 32.5306215,50.6910734 C33.3261017,50.5970621 34.0926554,50.459661 34.8519774,50.3656497 C35.4015819,50.2861017 35.9728814,50.2861017 36.5080226,50.2354802 C36.8117514,50.199322 36.999774,50.3294915 37.0431638,50.6187571 C37.1588701,51.3780791 37.2890395,52.1374011 37.3830508,52.940113 C37.5566102,54.2345763 37.6650847,55.5435028 37.8024859,56.8379661 C37.9326554,57.980565 38.0483616,59.1014689 38.1857627,60.2368362 C38.3159322,61.4372881 38.4677966,62.6522034 38.619661,63.9032768 C38.6558192,64.2431638 38.7136723,64.6264407 38.7498305,65.0024859 C37.6433898,65.139887 36.5586441,65.2700565 35.4160452,65.4219209 Z M43.5371751,63.9972881 C42.5464407,63.9032768 41.599096,63.8454237 40.5505085,63.7514124 C39.6537853,54.7263277 38.8944633,45.6216949 37.1877966,36.5315254 C37.7374011,36.4736723 38.3087006,36.4013559 38.88,36.3435028 C39.5453107,36.3073446 40.1889266,36.2639548 40.8542373,36.2133333 C41.4038418,36.1771751 41.6135593,36.3073446 41.6497175,36.8424859 L41.9317514,41.1380791 C42.0619209,43.0761582 42.2137853,45.0142373 42.3511864,46.9523164 C42.4451977,48.3552542 42.5030508,49.7437288 42.6332203,51.1538983 C42.7633898,52.6942373 42.9152542,54.2128814 43.0526554,55.7315254 C43.1828249,56.8307345 43.2840678,57.9950282 43.3780791,59.0942373 C43.5082486,60.2946893 43.6456497,61.5096045 43.7179661,62.760678 L43.8119774,63.8092655 C43.819209,63.9972881 43.7251977,64.0334463 43.5371751,63.9972881 Z M46.1550282,43.4160452 C46.400904,43.4160452 46.4949153,43.4738983 46.4949153,43.7559322 C46.4587571,44.5152542 46.4949153,45.3179661 46.4949153,46.0772881 L46.4949153,48.9627119 C45.9236158,49.020565 45.4101695,49.0567232 44.8967232,49.0928814 C44.7448588,47.2488136 44.6146893,45.3902825 44.4628249,43.4088136 L46.1550282,43.4088136 L46.1550282,43.4160452 Z M46.4442938,65.7473446 C46.3502825,65.7473446 46.1984181,65.5954802 46.1984181,65.5014689 C46.0465537,63.8454237 45.9163842,62.1966102 45.7645198,60.540565 C45.6343503,59.0219209 45.4824859,57.459887 45.3450847,55.9412429 C45.2149153,54.379209 45.0630508,52.8027119 44.9256497,51.2117514 C44.9256497,51.1177401 44.9256497,51.0237288 44.8894915,50.8863277 C45.2727684,50.8067797 45.6126554,50.7561582 45.9887006,50.7561582 C46.979435,50.7561582 47.9846328,50.7778531 48.9753672,50.8140113 C49.2212429,50.8140113 49.3586441,51.0020339 49.3586441,51.2334463 C49.380339,51.7468927 49.4164972,52.2241808 49.4164972,52.7376271 C49.4164972,55.0589831 49.380339,57.4164972 49.4164972,59.7306215 C49.4526554,61.6108475 49.5105085,63.440452 49.5466667,65.320678 C49.5466667,65.4146893 49.5466667,65.5520904 49.5828249,65.7545763 C48.5125424,65.7473446 47.4494915,65.7835028 46.4442938,65.7473446 Z M87.4766102,43.4305085 L89.1326554,43.4305085 C89.4146893,43.4305085 89.5520904,43.5245198 89.5520904,43.8644068 L89.5520904,48.6951412 L89.5520904,49.0784181 C88.8867797,49.0422599 88.199774,49.020565 87.4838418,48.9844068 L87.4838418,43.4305085 L87.4766102,43.4305085 Z M76.1663277,42.8085876 C76.3543503,42.8085876 76.4483616,42.9242938 76.4917514,43.1484746 C76.6653107,44.8985311 76.8171751,46.6051977 77.0051977,48.4131073 C76.339887,48.4926554 75.7107345,48.5071186 75.0092655,48.5649718 C74.7633898,46.6485876 74.5319774,44.7828249 74.2861017,42.8447458 C74.9297175,42.8085876 75.5588701,42.8085876 76.1663277,42.8085876 Z M73.4689266,43.1123164 C73.7364972,43.0761582 73.6569492,43.300339 73.700339,43.4522034 C73.7581921,44.0958192 73.8305085,44.7032768 73.8883616,45.3324294 C73.9823729,46.3231638 74.119774,47.2705085 74.2137853,48.2612429 L74.2137853,48.6445198 L72.6734463,48.9120904 C72.3335593,47.0680226 72.0081356,45.2456497 71.6682486,43.3654237 C72.2684746,43.300339 72.8614689,43.1629379 73.4689266,43.1123164 Z M73.1651977,61.0540113 C72.919322,61.8711864 72.3480226,62.5148023 71.6465537,63.0499435 C69.9905085,64.3588701 68.2838418,65.5014689 66.2879096,66.1667797 C64.8849718,66.6440678 63.4531073,66.9839548 61.9923164,67.2153672 C60.0903955,67.4974011 58.1523164,67.6348023 56.2142373,67.8228249 C55.8164972,67.880678 55.4332203,67.8228249 55.0137853,67.8228249 C54.8257627,67.8228249 54.7679096,67.7288136 54.7679096,67.540791 C54.7462147,66.6874576 54.6738983,65.7907345 54.6160452,64.9012429 C54.5220339,63.7586441 54.4063277,62.6377401 54.2761582,61.5023729 C54.0881356,59.9041808 53.8928814,58.3638418 53.7048588,56.7728814 C53.5168362,55.1023729 53.2854237,53.4463277 53.0974011,51.7902825 C52.9093785,50.1559322 52.7575141,48.5432768 52.5261017,46.9233898 C52.2585311,45.079322 52.0126554,43.2569492 51.7306215,41.3767232 C51.4485876,39.2072316 51.0291525,37.0232768 50.4578531,34.8971751 C50.4361582,34.8031638 50.5374011,34.6151412 50.5880226,34.5717514 C52.4682486,33.8485876 54.3340113,33.1109605 56.2142373,32.3444068 C56.8216949,32.0768362 56.879548,31.9828249 56.879548,32.7783051 C56.879548,36.1410169 56.879548,39.4892655 56.9374011,42.8519774 C56.9735593,44.6020339 57.0314124,46.3520904 57.1688136,48.0949153 C57.320678,50.1848588 57.5520904,52.3109605 57.740113,54.4442938 C57.740113,54.5383051 57.7979661,54.6178531 57.7979661,54.6757062 C58.5211299,54.639548 59.2225989,54.5816949 59.9240678,54.5816949 C62.9107345,54.5021469 65.8323164,54.9071186 68.6309605,56.0063277 C69.9977401,56.5559322 71.3283616,57.1850847 72.5071186,58.0745763 C73.4906215,58.8122034 73.7148023,59.7233898 73.1651977,61.0540113 Z M75.7107345,65.4219209 C74.72,60.4971751 73.7726554,55.6519774 72.8253107,50.6910734 C73.620791,50.5970621 74.3873446,50.459661 75.1466667,50.3656497 C75.6962712,50.2861017 76.2675706,50.2861017 76.8027119,50.2354802 C77.1064407,50.199322 77.2944633,50.3294915 77.3378531,50.6187571 C77.4535593,51.3780791 77.5837288,52.1374011 77.6777401,52.940113 C77.8512994,54.2345763 77.959774,55.5435028 78.0971751,56.8379661 C78.2273446,57.980565 78.3430508,59.1014689 78.480452,60.2368362 C78.6106215,61.4372881 78.7624859,62.6522034 78.9143503,63.9032768 C78.9505085,64.2431638 79.0083616,64.6264407 79.0445198,65.0024859 C77.9380791,65.139887 76.8533333,65.2700565 75.7107345,65.4219209 Z M83.8246328,63.9972881 C82.8338983,63.9032768 81.8865537,63.8454237 80.8379661,63.7514124 C79.9412429,54.7263277 79.1819209,45.6216949 77.4752542,36.5315254 C78.0248588,36.4736723 78.5961582,36.4013559 79.1674576,36.3435028 C79.8327684,36.3073446 80.4763842,36.2639548 81.1416949,36.2133333 C81.6912994,36.1771751 81.9010169,36.3073446 81.9371751,36.8424859 L82.219209,41.1380791 C82.3493785,43.0761582 82.5012429,45.0142373 82.6386441,46.9523164 C82.7326554,48.3552542 82.7905085,49.7437288 82.920678,51.1538983 C83.0508475,52.6942373 83.2027119,54.2128814 83.340113,55.7315254 C83.4702825,56.8307345 83.5715254,57.9950282 83.6655367,59.0942373 C83.7957062,60.2946893 83.9331073,61.5096045 84.0054237,62.760678 L84.099435,63.8092655 C84.1138983,63.9972881 84.019887,64.0334463 83.8246328,63.9972881 Z M86.4497175,43.4160452 C86.6955932,43.4160452 86.7896045,43.4738983 86.7896045,43.7559322 C86.7534463,44.5152542 86.7896045,45.3179661 86.7896045,46.0772881 L86.7896045,48.9627119 C86.2183051,49.020565 85.7048588,49.0567232 85.1914124,49.0928814 C85.039548,47.2488136 84.9093785,45.3902825 84.7575141,43.4088136 L86.4497175,43.4088136 L86.4497175,43.4160452 Z M86.7389831,65.7473446 C86.6449718,65.7473446 86.4931073,65.5954802 86.4931073,65.5014689 C86.3412429,63.8454237 86.2110734,62.1966102 86.059209,60.540565 C85.9290395,59.0219209 85.7771751,57.459887 85.639774,55.9412429 C85.5096045,54.379209 85.3577401,52.8027119 85.220339,51.2117514 C85.220339,51.1177401 85.220339,51.0237288 85.1841808,50.8863277 C85.5674576,50.8067797 85.9073446,50.7561582 86.2833898,50.7561582 C87.2741243,50.7561582 88.279322,50.7778531 89.2700565,50.8140113 C89.5159322,50.8140113 89.6533333,51.0020339 89.6533333,51.2334463 C89.6750282,51.7468927 89.7111864,52.2241808 89.7111864,52.7376271 C89.7111864,55.0589831 89.6750282,57.4164972 89.7111864,59.7306215 C89.7473446,61.6108475 89.8051977,63.440452 89.8413559,65.320678 C89.8413559,65.4146893 89.8413559,65.5520904 89.8775141,65.7545763 C88.8072316,65.7473446 87.7441808,65.7835028 86.7389831,65.7473446 Z" id="Shape"></path>
                    </g>
                </g>
            </g>
        </g>
    </g>
</svg>