<?xml version="1.0" encoding="UTF-8"?>
<svg width="100px" height="100px" viewBox="0 0 100 100" version="1.1" xmlns="http://www.w3.org/2000/svg" xmlns:xlink="http://www.w3.org/1999/xlink">
    <!-- Generator: Sketch 51.1 (57501) - http://www.bohemiancoding.com/sketch -->
    <title>滴滴外卖@2x</title>
    <desc>Created with Sketch.</desc>
    <defs></defs>
    <g id="Page-1" stroke="none" stroke-width="1" fill="none" fill-rule="evenodd">
        <g id="饥人谷-公司介绍" transform="translate(-1072.000000, -3329.000000)" fill-rule="nonzero">
            <g id="7" transform="translate(0.000000, 3004.000000)">
                <g id="logo" transform="translate(281.000000, 156.000000)">
                    <g id="滴滴外卖" transform="translate(791.000000, 169.000000)">
                        <path d="M10,0 L90,0 C95.5,0 100,4.5 100,10 L100,90 C100,95.5 95.5,100 90,100 L10,100 C4.5,100 0,95.5 0,90 L0,10 C0,4.5 4.5,0 10,0 Z" id="Shape" fill="#B8D7E9"></path>
                        <path d="M67.525,37.14 L67.525,45.46 C67.395,54.95 59.985,62.36 50.755,62.36 C41.525,62.36 34.115,54.95 33.985,45.46 L33.985,37.14 L67.525,37.14 L67.525,27 L26.315,27 C25.015,27.13 23.975,28.17 23.975,29.47 L23.975,45.85 C23.975,47.67 24.105,49.36 24.495,51.18 C24.885,52.87 25.275,54.56 26.185,56.12 C26.835,57.81 27.745,59.37 28.655,60.67 C29.695,61.97 30.605,63.4 31.775,64.57 C32.425,65.22 33.335,65.87 33.985,66.65 C34.505,67.17 35.155,67.43 35.675,67.95 C36.975,68.99 38.665,69.77 40.225,70.42 C41.915,71.07 43.605,71.59 45.295,71.98 C46.985,72.37 48.805,72.5 50.625,72.5 C52.445,72.5 54.265,72.37 55.955,71.98 C57.645,71.59 59.335,71.2 61.025,70.42 C62.715,69.77 64.145,68.86 65.575,67.95 C66.225,67.43 66.745,67.17 67.265,66.65 C67.915,66 68.825,65.35 69.475,64.57 C70.645,63.4 71.815,62.1 72.595,60.67 C73.635,59.37 74.415,57.81 75.065,56.12 C75.715,54.43 76.235,52.74 76.755,51.18 C77.145,49.49 77.275,47.67 77.275,45.85 L77.275,37.14 L67.525,37.14 Z" id="Shape" fill="#FFFFFF"></path>
                    </g>
                </g>
            </g>
        </g>
    </g>
</svg>