<?xml version="1.0" encoding="UTF-8"?>
<svg width="100px" height="100px" viewBox="0 0 100 100" version="1.1" xmlns="http://www.w3.org/2000/svg" xmlns:xlink="http://www.w3.org/1999/xlink">
    <!-- Generator: Sketch 51.1 (57501) - http://www.bohemiancoding.com/sketch -->
    <title>滴滴外卖@2x</title>
    <desc>Created with Sketch.</desc>
    <defs>
        <linearGradient x1="9.79872569%" y1="0%" x2="100%" y2="90.562036%" id="linearGradient-1">
            <stop stop-color="#557AAE" offset="0%"></stop>
            <stop stop-color="#2B4576" offset="100%"></stop>
        </linearGradient>
    </defs>
    <g id="Page-1" stroke="none" stroke-width="1" fill="none" fill-rule="evenodd">
        <g id="饥人谷-公司介绍" transform="translate(-1072.000000, -3329.000000)" fill-rule="nonzero">
            <g id="7" transform="translate(0.000000, 3004.000000)">
                <g id="logo" transform="translate(281.000000, 156.000000)">
                    <g id="滴滴外卖" transform="translate(791.000000, 169.000000)">
                        <path d="M10,0 L90,0 C95.5,0 100,4.5 100,10 L100,90 C100,95.5 95.5,100 90,100 L10,100 C4.5,100 0,95.5 0,90 L0,10 C0,4.5 4.5,0 10,0 Z" id="Shape" fill="url(#linearGradient-1)"></path>
                        <path d="M66.875,38.5 L66.875,46.5 C66.75,55.625 59.625,62.75 50.75,62.75 C41.875,62.75 34.75,55.625 34.625,46.5 L34.625,38.5 L66.875,38.5 L66.875,28.75 L27.25,28.75 C26,28.875 25,29.875 25,31.125 L25,46.875 C25,48.625 25.125,50.25 25.5,52 C25.875,53.625 26.25,55.25 27.125,56.75 C27.75,58.375 28.625,59.875 29.5,61.125 C30.5,62.375 31.375,63.75 32.5,64.875 C33.125,65.5 34,66.125 34.625,66.875 C35.125,67.375 35.75,67.625 36.25,68.125 C37.5,69.125 39.125,69.875 40.625,70.5 C42.25,71.125 43.875,71.625 45.5,72 C47.125,72.375 48.875,72.5 50.625,72.5 C52.375,72.5 54.125,72.375 55.75,72 C57.375,71.625 59,71.25 60.625,70.5 C62.25,69.875 63.625,69 65,68.125 C65.625,67.625 66.125,67.375 66.625,66.875 C67.25,66.25 68.125,65.625 68.75,64.875 C69.875,63.75 71,62.5 71.75,61.125 C72.75,59.875 73.5,58.375 74.125,56.75 C74.75,55.125 75.25,53.5 75.75,52 C76.125,50.375 76.25,48.625 76.25,46.875 L76.25,38.5 L66.875,38.5 Z" id="Shape" fill="#FFFFFF"></path>
                    </g>
                </g>
            </g>
        </g>
    </g>
</svg>