<?xml version="1.0" encoding="UTF-8"?>
<svg width="100px" height="100px" viewBox="0 0 100 100" version="1.1" xmlns="http://www.w3.org/2000/svg" xmlns:xlink="http://www.w3.org/1999/xlink">
    <!-- Generator: Sketch 51.1 (57501) - http://www.bohemiancoding.com/sketch -->
    <title>饿了么@2x</title>
    <desc>Created with Sketch.</desc>
    <defs></defs>
    <g id="Page-1" stroke="none" stroke-width="1" fill="none" fill-rule="evenodd">
        <g id="饥人谷-公司介绍" transform="translate(-872.000000, -3328.000000)" fill="#B8D7E9" fill-rule="nonzero">
            <g id="7" transform="translate(0.000000, 3004.000000)">
                <g id="logo" transform="translate(281.000000, 156.000000)">
                    <g id="饿了么" transform="translate(591.000000, 168.000000)">
                        <path d="M50,0 C22.4,0 0,22.4 0,50 C0,77.6 22.4,100 50,100 C77.6,100 100,77.6 100,50 C100,22.4 77.6,0 50,0 Z M64.2,75.5 C54,82.5 39.1,81.1 30.1,72.4 C23.7,66.2 20.3,58.6 21.1,49.6 C22,38.8 27.3,30.6 37.1,25.9 C46.9,21.2 56.5,22.2 65.5,28.4 C69.6,31.2 72.6,34.9 74.7,39.5 C75.3,40.8 75.1,41.6 73.8,42.3 C65.8,46.9 57.9,51.6 50,56.3 C47.3,57.9 44.8,57.3 43.5,54.9 C42.3,52.7 42.7,50.6 44.9,49.2 C48.9,46.7 53,44.3 57.1,41.9 C58.6,41 60.1,40.2 61.5,39.3 C63.2,38.3 63.2,37.7 61.7,36.4 C58.9,34 55.6,32.4 51.9,32 C44.5,31.1 38.2,33.5 33.7,39.5 C29,45.8 28.4,52.9 31.7,60.1 C34.7,66.6 41.6,71.4 49.5,71 C52.6,71.2 55.7,70.3 58.6,68.9 C61.7,67.4 63.5,68 65.3,71 C66.9,73.7 66.9,73.7 64.2,75.5 Z M75.5,60.7 C74.4,61.4 73.3,62.1 72.1,62.8 C71.3,63.3 70.8,63.1 70.4,62.3 C69.4,60.5 68.3,58.8 67.3,57.1 C66.8,56.4 67,55.8 67.8,55.4 C69.7,54.4 71.5,53.4 73.4,52.3 C73.9,52 74.4,51.8 74.7,52.4 C75.7,54.2 76.9,55.9 77,57.9 C77,59.1 76.5,60 75.5,60.7 Z" id="Shape"></path>
                    </g>
                </g>
            </g>
        </g>
    </g>
</svg>