<?xml version="1.0" encoding="UTF-8"?>
<svg width="100px" height="100px" viewBox="0 0 100 100" version="1.1" xmlns="http://www.w3.org/2000/svg" xmlns:xlink="http://www.w3.org/1999/xlink">
    <!-- Generator: Sketch 51.1 (57501) - http://www.bohemiancoding.com/sketch -->
    <title>美团@2x</title>
    <desc>Created with Sketch.</desc>
    <defs>
        <linearGradient x1="9.79872569%" y1="0%" x2="100%" y2="90.562036%" id="linearGradient-1">
            <stop stop-color="#557AAE" offset="0%"></stop>
            <stop stop-color="#2B4576" offset="100%"></stop>
        </linearGradient>
    </defs>
    <g id="Page-1" stroke="none" stroke-width="1" fill="none" fill-rule="evenodd">
        <g id="饥人谷-公司介绍" transform="translate(-1072.000000, -3160.000000)" fill-rule="nonzero">
            <g id="7" transform="translate(0.000000, 3004.000000)">
                <g id="logo" transform="translate(281.000000, 156.000000)">
                    <g id="美团" transform="translate(791.000000, 0.000000)">
                        <path d="M0.576709561,49.6622798 C0.576709561,77.0899996 22.8112696,99.3245597 50.2389894,99.3245597 C77.6667092,99.3245597 99.9012693,77.0899996 99.9012693,49.6622798 C99.9012693,22.23456 77.6667092,-4.87804805e-08 50.2389894,-4.87804821e-08 C22.8112696,-4.87804838e-08 0.576709561,22.23456 0.576709561,49.6622798 Z" id="Shape" fill="#FFFFFF"></path>
                        <path d="M79.8828557,37.6620671 L59.9186192,37.6620671 C59.682542,37.6025588 59.4324377,37.6409048 59.225033,37.7684077 C59.0176283,37.8959106 58.8705003,38.1017647 58.8170195,38.33928 C58.781832,38.4816095 58.781832,38.6303668 58.8170195,38.7726963 L58.8170195,60.4435094 C58.8170195,61.5451091 59.0969341,61.6895811 60.0630913,61.6895811 L79.5036165,61.6895811 C80.2066689,61.8931858 80.9418531,61.4892384 81.1469864,60.7866305 C81.2100981,60.5591698 81.2100981,60.3188193 81.1469864,60.0913586 L81.1469864,38.8991094 C81.0296028,37.7884802 80.7496882,37.6620671 79.8828557,37.6620671 Z M78.0769546,45.9421236 L77.5622728,45.9421236 C75.6209291,45.9421236 75.7563717,45.6712384 75.7563717,47.7480247 L75.7563717,56.8858842 C75.7563717,59.3689981 74.9256572,60.3351553 72.4335138,60.6060404 C71.133265,60.6722568 69.8330162,60.6722568 68.5327674,60.6060404 C68.3375201,60.6316157 68.1401275,60.5783623 67.9842369,60.4580555 C67.8283463,60.3377486 67.7268004,60.1602995 67.7020529,59.9649456 C67.6930177,59.9050879 67.6930177,59.8442131 67.7020529,59.7843554 L67.7020529,59.4954112 C67.7020529,57.2922119 67.7020529,57.2922119 69.7788391,57.2922119 C71.8556254,57.2922119 72.2890417,56.8858842 72.2890417,54.8000685 L72.2890417,47.8563787 C69.3715663,51.9693319 65.6058415,55.4086733 61.2459565,57.9423363 L61.2459565,54.2221801 C61.3203559,53.690581 61.70363,53.2540745 62.2211431,53.1115509 C65.0823785,51.2863783 67.5405188,48.8958369 69.4447474,46.0865957 L61.2459565,46.0865957 C60.2617404,46.0865957 59.8554127,45.9421236 59.8554127,44.840524 C59.9998848,42.6282951 59.8554127,42.6282951 62.076671,42.6282951 L71.241619,42.6282951 C72.2168057,42.6282951 72.4876907,42.3483805 72.3432186,41.5266954 L72.3432186,40.5695679 C72.3432186,38.6462832 71.9368909,38.7636668 74.1491198,38.7636668 C75.3951915,38.7636668 75.8195783,39.0435815 75.7292832,40.3348008 C75.6570129,40.8862527 75.6570129,41.4447779 75.7292832,41.9962298 C75.6860397,42.1747268 75.7161505,42.3631092 75.8128795,42.5192331 C75.9096084,42.6753571 76.0648826,42.7861927 76.243965,42.8269443 C76.3475584,42.8541061 76.4564043,42.8541061 76.5599978,42.8269443 C77.1144743,42.8991825 77.6759796,42.8991825 78.2304562,42.8269443 C79.8106196,42.5560591 79.9009147,43.233272 79.9009147,44.4071077 C79.9009147,45.5809434 79.512646,46.2130088 78.0950137,45.9330941 L78.0769546,45.9421236 Z M31.9813294,51.4690796 L32.88428,51.4690796 C32.5852043,51.4199556 32.2804051,51.4199556 31.9813294,51.4690796 Z M49.9229567,0 C22.3418337,0.017450099 -0.00538659937,22.3858885 0.00333845057,49.9670156 C0.0120635005,77.5481428 22.3734314,99.902438 49.95456,99.902438 C77.5356885,99.902438 99.8970564,77.5481428 99.9057815,49.9670156 C99.9145065,22.3858885 77.5672862,0.017450099 49.9861632,0 L49.9229567,0 Z M45.9048268,65.9153897 C40.4079599,65.6315664 35.2976768,63.00079 31.8729753,58.6917853 C27.9812584,64.1094885 22.2836406,65.1749701 16.324167,66.0056847 C15.4934525,66.1501568 15.2225673,65.8702421 15.3489804,65.0485571 C15.184163,64.2190916 15.2338914,63.3612774 15.4934525,62.5564136 C15.8997802,61.8611417 16.8749668,62.2855284 17.7147108,62.1500859 C19.8963749,61.7573541 22.0344744,61.1525169 24.0985712,60.3441848 C25.7237937,59.6149507 27.1147764,58.4490259 28.1167011,56.9761792 L16.5950522,56.9761792 C16.3819161,57.0216937 16.159429,56.980669 15.9765427,56.8621316 C15.7936563,56.7435941 15.6653542,56.5572554 15.6198656,56.3441139 C15.5973809,56.2187006 15.5973809,56.0902879 15.6198656,55.9648746 C15.484423,53.4817607 15.484423,53.4817607 17.985596,53.4817607 L28.1347601,53.4817607 C29.1099467,53.4817607 29.7149235,53.3372886 29.7149235,52.2356889 C29.6260777,51.8758301 29.831358,51.5086942 30.1844579,51.3959449 L16.8298193,51.3959449 C16.0653264,51.4009735 15.4401581,50.7879053 15.430246,50.0234601 C15.4253835,49.957333 15.4253835,49.8909381 15.430246,49.8248109 C15.5656885,47.612582 15.1413018,47.9015262 17.3715897,47.9015263 L28.4056453,47.9015263 C29.2363598,47.9015263 29.7871596,48.0369689 29.7871596,46.7908972 C29.7871596,45.5448255 29.2363598,45.6892975 28.2160257,45.6892975 L18.915635,45.6892975 C17.9314189,45.6892975 17.5250912,45.4093828 17.6695633,44.4432258 L17.6695633,43.4499801 C17.5250912,42.6282951 17.8050059,42.2039084 18.7711629,42.3483805 L28.3604978,42.3483805 C29.1912123,42.3483805 29.59754,42.3483805 29.59754,41.2467808 C29.6690505,41.0095401 29.6399262,40.7533369 29.5169909,40.5382002 C29.3940556,40.3230635 29.1881129,40.1678994 28.9474156,40.1090631 C28.7572347,40.0437064 28.5506786,40.0437064 28.3604978,40.1090631 L17.8591829,40.1090631 C15.7733672,40.1090631 16.1887244,40.3799483 16.0532819,38.303162 C15.9088098,37.2015623 16.3331965,36.7320281 17.6244158,36.9397067 C19.7102315,37.0751493 21.7870179,36.9397067 24.1527482,36.9397067 C23.232115,35.763818 22.4841435,34.4624693 21.9314899,33.0750783 L25.2633774,33.0750783 C25.5523435,33.0629231 25.8213324,33.2221928 25.9496198,33.4814061 C26.0755954,33.6478503 26.1732232,33.8339534 26.238564,34.032206 C27.4846357,35.9735497 28.86615,37.4905065 31.5208247,36.9397067 L32.1799785,36.9397067 C34.2622937,37.4166998 36.3816301,36.3052937 37.173295,34.3211501 C37.5528042,33.4554916 38.4709907,32.9573661 39.4035828,33.1111964 C40.1426525,33.1744241 40.8857715,33.1744241 41.6248412,33.1111964 C41.1391976,34.5435857 40.3853649,35.8704538 39.4035828,37.0209723 L46.0763874,37.0209723 C46.3326357,36.9488128 46.6070642,36.9815624 46.8391355,37.1119966 C47.0712068,37.2424309 47.2418527,37.4598326 47.3134297,37.7162442 C47.3673991,37.895878 47.3673991,38.0874102 47.3134297,38.267044 C47.3134297,40.1722697 47.3134297,40.1722697 45.2185844,40.1722697 L34.6450336,40.1722697 C33.6698469,40.1722697 33.5434339,40.4612139 33.5434339,41.4183414 C33.481136,41.6556839 33.5181161,41.9081594 33.645864,42.1176659 C33.7736118,42.3271724 33.9811243,42.4756648 34.2206467,42.5289705 C34.3608155,42.5560251 34.5048648,42.5560251 34.6450336,42.5289705 L44.2343683,42.5289705 C45.2095549,42.5289705 45.8055022,42.7908261 45.48044,43.7750423 L45.48044,44.3258421 C45.7603546,45.7073565 45.0650827,45.8969761 43.9002766,45.8969761 C40.9837463,45.7615336 38.0672161,45.8969761 35.1506859,45.8969761 C34.455414,45.8969761 33.4802273,45.4906484 33.4802273,46.9985757 C33.4802273,48.506503 34.3199713,48.1092049 35.1506859,48.1092049 L46.5368922,48.1092049 C47.5120788,48.1092049 47.9184065,48.2446474 47.9184065,49.3552767 C47.782964,51.4140039 47.9184065,51.4140039 45.8416203,51.4140039 L32.9294275,51.4140039 C33.4350798,51.5313875 33.7330535,51.8925677 33.5434339,52.8045477 C33.3538142,53.7165277 34.2387058,53.4998196 34.6450336,53.4998197 L46.3111545,53.4998197 C47.4127542,53.4998197 47.9816131,53.7797343 47.7016983,54.8903635 L47.7016983,55.847491 C47.8461704,56.669176 47.4127541,56.9490907 46.6000987,56.9490907 L34.9339777,56.9490907 C37.155236,60.1003881 40.3516809,61.0936338 43.6835685,61.9153187 C44.7788554,62.1668315 45.8885674,62.3507783 47.0064264,62.4661185 C47.2580031,62.4244905 47.5157905,62.4849725 47.722601,62.6341473 C47.9294115,62.7833221 48.0681455,63.0088555 48.1080261,63.260715 C48.1266047,63.3652401 48.1266047,63.4722226 48.1080261,63.5767477 C48.2524982,66.0508322 48.2524982,66.1862747 45.9048268,65.9244191 L45.9048268,65.9153897 Z M84.605287,62.8724463 C84.605287,64.9311736 84.0544872,65.4910029 81.977701,65.4910028 L56.4512892,65.4910028 C55.3496895,65.4910028 55.2052175,65.2020586 55.2052174,64.2449311 L55.2052174,35.4769268 C55.2052174,34.5107698 55.3496895,34.104442 56.4512892,34.104442 L83.3772743,34.104442 C84.478874,34.104442 84.623346,34.5107698 84.623346,35.4859563 L84.623346,62.9085643 L84.605287,62.8724463 Z" id="Shape" fill="url(#linearGradient-1)"></path>
                    </g>
                </g>
            </g>
        </g>
    </g>
</svg>