<?xml version="1.0" encoding="UTF-8"?>
<svg width="100px" height="97px" viewBox="0 0 100 97" version="1.1" xmlns="http://www.w3.org/2000/svg" xmlns:xlink="http://www.w3.org/1999/xlink">
    <!-- Generator: Sketch 51.1 (57501) - http://www.bohemiancoding.com/sketch -->
    <title>趣店@2x</title>
    <desc>Created with Sketch.</desc>
    <defs>
        <linearGradient x1="9.79872569%" y1="0%" x2="100%" y2="90.562036%" id="linearGradient-1">
            <stop stop-color="#557AAE" offset="0%"></stop>
            <stop stop-color="#2B4576" offset="100%"></stop>
        </linearGradient>
    </defs>
    <g id="Page-1" stroke="none" stroke-width="1" fill="none" fill-rule="evenodd">
        <g id="饥人谷-公司介绍" transform="translate(-481.000000, -3329.000000)" fill="url(#linearGradient-1)" fill-rule="nonzero">
            <g id="7" transform="translate(0.000000, 3004.000000)">
                <g id="logo" transform="translate(281.000000, 156.000000)">
                    <g id="趣店" transform="translate(200.000000, 169.000000)">
                        <path d="M13.3333333,3.3333333 L13.3333333,16.6666667 L3.3333333,16.6666667 C3.3333333,16.6666667 0,17.2222223 0,21.1111111 C0,24.4444444 3.3333333,26.1111111 3.3333333,26.1111111 L12.7777777,26.1111111 L12.7777777,33.3333333 L3.3333333,33.3333333 C3.3333333,33.3333333 0,34.4444444 0,37.7777777 C0,41.111111 3.3333333,42.7777777 3.3333333,42.7777777 L12.7777777,42.7777777 L12.7777777,77.7777777 C11.6666666,76.6666666 8.88888887,75 9.44444443,73.3333333 L9.44444443,54.4444444 C9.44444443,54.4444444 8.3333333,51.1111111 4.44444443,51.1111111 C0.555555566,50.5555556 1.38777878e-15,54.4444444 1.38777878e-15,54.4444444 L1.38777878e-15,93.3333333 C1.38777878e-15,93.3333333 0.555555566,96.6666666 4.44444443,96.6666667 C8.3333333,96.6666668 9.44444443,93.3333334 9.44444443,93.3333333 L9.44444443,86.6666667 C10.5555556,87.7777778 12.7777777,90 16.6666667,92.7777777 C20,95.5555555 27.7777778,96.6666666 27.7777777,96.6666667 L96.6666667,96.6666667 C96.6666667,96.6666667 100,95.5555556 100,91.6666667 C100,87.7777778 96.6666667,87.2222223 96.6666667,87.2222223 L27.7777777,87.2222223 C26.111111,87.2222223 23.3333333,86.6666667 22.2222223,85 L22.2222223,64.4444444 L29.4444444,64.4444444 C29.4444444,64.4444444 32.7777777,63.3333333 32.7777777,59.4444444 C33.3333333,56.6666667 30,55.5555556 30,55.5555556 L22.7777777,55.5555556 L22.7777777,42.2222223 L30,42.2222223 C30,42.2222223 33.3333333,40.5555556 33.3333333,37.2222223 C33.3333333,33.888889 30,32.7777778 30,32.7777777 L22.7777777,32.7777777 L22.7777777,26.1111111 L30,26.1111111 C30,26.1111111 33.3333333,24.4444444 33.3333333,21.1111111 C33.3333333,17.7777778 30,16.6666667 30,16.6666667 L22.7777777,16.6666667 L22.7777777,3.3333333 C22.7777777,3.3333333 21.6666667,0 17.7777777,0 C13.8888888,0 13.3333333,3.3333333 13.3333333,3.3333333 Z M36.6666667,11.6666667 L36.6666667,67.2222223 L33.3333333,68.3333333 C33.3333333,68.3333333 29.4444444,69.4444444 30,73.3333333 C30.5555556,77.7777777 34.4444444,77.7777777 34.4444444,77.7777777 L56.1111111,71.6666667 L56.1111111,80 C56.1111111,80 56.6666667,83.3333333 60.5555556,83.3333333 C65,83.3333333 65.5555556,80 65.5555556,80 L65.5555556,68.8888889 L69.4444444,67.7777777 C69.4444444,67.7777777 72.7777777,66.111111 72.2222223,62.2222223 C71.6666667,58.3333334 66.6666667,58.888889 66.6666667,58.8888889 L65,59.4444444 L65,11.6666667 L95,11.6666667 C95,11.6666667 98.3333333,10 98.3333333,6.6666667 C98.3333333,3.3333334 95,2.22222227 95,2.22222227 L33.3333333,2.22222227 C33.3333333,2.22222227 30,3.3333334 30,6.6666667 C30,10.5555556 33.3333333,11.6666667 33.3333333,11.6666667 L36.6666667,11.6666667 Z M46.6666667,65 L46.6666667,52.2222223 L56.1111111,52.2222223 L56.1111111,62.2222223 L46.6666667,65 Z M46.6666667,45 L46.6666667,32.7777777 L56.1111111,32.7777777 L56.1111111,44.4444444 L46.6666667,44.4444444 L46.6666667,45 Z M46.6666667,23.3333333 L46.6666667,11.6666667 L56.1111111,11.6666667 L56.1111111,23.3333333 L46.6666667,23.3333333 Z M89.4444444,27.2222223 L84.4444444,45.5555556 L80.5555556,34.4444444 C80.5555556,34.4444444 79.4444444,30.5555556 75,31.1111111 C70.5555556,31.6666667 71.6666667,37.2222223 71.6666667,37.2222223 L78.8888889,57.7777777 L71.6666667,77.7777777 C71.6666667,77.7777777 70,82.2222222 74.4444444,83.8888889 C77.7777777,85 80.5555556,81.1111111 80.5555556,81.1111111 L84.4444444,70 L88.8888889,80.5555556 C88.8888889,80.5555556 91.1111111,84.4444444 95,83.3333333 C98.3333333,82.2222222 97.7777777,77.7777777 97.7777777,77.7777777 L89.4444444,57.2222223 L98.8888889,27.2222223 L98.8888889,25 C98.8888889,25 98.3333333,21.6666667 96.6666667,20 C95,18.3333333 92.7777778,17.7777777 92.7777777,17.7777777 L73.8888889,17.7777777 C73.8888889,17.7777777 70.5555556,18.3333333 70.5555556,22.2222223 C70.5555556,26.1111111 73.8888889,27.2222223 73.8888889,27.2222223 L89.4444444,27.2222223 Z" id="Shape"></path>
                    </g>
                </g>
            </g>
        </g>
    </g>
</svg>