<?xml version="1.0" encoding="UTF-8"?>
<svg width="100px" height="100px" viewBox="0 0 100 100" version="1.1" xmlns="http://www.w3.org/2000/svg" xmlns:xlink="http://www.w3.org/1999/xlink">
    <!-- Generator: Sketch 51.1 (57501) - http://www.bohemiancoding.com/sketch -->
    <title>腾讯网@2x</title>
    <desc>Created with Sketch.</desc>
    <defs>
        <linearGradient x1="9.79872569%" y1="0%" x2="100%" y2="90.562036%" id="linearGradient-1">
            <stop stop-color="#557AAE" offset="0%"></stop>
            <stop stop-color="#2B4576" offset="100%"></stop>
        </linearGradient>
    </defs>
    <g id="Page-1" stroke="none" stroke-width="1" fill="none" fill-rule="evenodd">
        <g id="饥人谷-公司介绍" transform="translate(-481.000000, -3160.000000)" fill="url(#linearGradient-1)" fill-rule="nonzero">
            <g id="7" transform="translate(0.000000, 3004.000000)">
                <g id="logo" transform="translate(281.000000, 156.000000)">
                    <g id="腾讯网" transform="translate(200.000000, 0.000000)">
                        <path d="M45.204,0.336 C45.716,0.336 45.972,0.08 46.484,0.08 L52.116,0.08 C53.14,0.08 53.908,0.336 54.932,0.336 C55.444,0.336 55.7,0.592 55.956,0.592 L55.956,1.104 L55.188,1.104 C54.932,1.104 54.932,1.104 54.676,1.36 L53.652,1.36 C53.396,1.616 52.884,1.616 52.372,1.616 C52.116,1.616 52.116,1.616 51.86,1.872 L51.348,1.872 C51.092,1.872 50.58,2.128 50.324,2.128 C50.068,2.384 49.556,2.384 49.3,2.384 C49.044,2.64 48.788,2.64 48.532,2.64 C48.276,2.64 48.02,2.896 47.764,2.896 C47.252,3.152 46.74,3.408 46.228,3.408 C43.156,4.688 40.084,5.968 37.524,7.76 C36.5,8.272 35.732,9.04 34.964,9.552 C33.94,10.32 33.172,10.832 32.66,11.6 L30.1,14.16 C29.076,15.44 28.052,16.464 27.028,18 C25.492,20.304 24.212,22.608 23.188,24.912 C22.932,25.424 22.676,26.192 22.42,26.704 C21.652,29.008 20.884,31.568 20.372,34.128 C20.372,34.64 20.116,35.408 20.116,35.92 C20.116,36.432 19.86,36.688 19.86,37.2 C19.86,37.712 19.604,38.224 19.604,38.736 C19.604,39.248 19.348,40.016 19.348,40.528 L19.348,47.184 C19.604,47.952 19.348,48.976 19.604,49.744 L19.604,52.048 C19.604,52.304 19.604,52.816 19.86,53.072 C20.116,53.84 19.86,54.608 20.116,55.376 C20.116,55.888 20.116,56.4 20.372,56.912 L20.372,60.24 C20.116,62.288 19.348,64.08 18.068,65.616 C16.532,67.408 14.228,68.432 11.924,68.688 L9.62,68.688 C8.34,68.432 7.316,68.176 6.292,67.408 C5.268,66.896 4.5,66.128 3.732,65.36 C2.964,64.336 2.196,63.312 1.94,62.032 C0.916,58.448 0.148,54.864 0.148,51.28 C-0.108,50.512 0.148,49.744 0.148,49.232 L0.148,47.44 C0.404,46.672 0.148,45.648 0.148,44.88 C0.404,43.856 0.404,42.832 0.66,41.552 C0.66,41.04 0.916,40.528 0.916,40.016 C2.452,32.08 5.78,24.656 10.9,18.512 C10.9,18 11.412,17.488 11.924,16.72 C12.948,15.44 13.972,14.416 15.252,13.392 C16.276,12.624 17.044,11.6 18.068,10.832 C19.348,9.808 20.884,8.528 22.42,7.76 C23.956,6.736 25.492,5.968 27.028,5.2 C29.588,3.92 32.404,2.896 34.964,2.128 C35.732,1.872 36.756,1.616 37.524,1.36 C38.036,1.36 38.804,1.104 39.316,1.104 C39.572,1.104 40.084,0.848 40.34,0.848 C40.852,0.848 41.364,0.592 41.876,0.592 C42.388,0.592 42.9,0.592 43.412,0.336 L45.204,0.336 Z" id="Shape"></path>
                        <path d="M57.236,2.128 C57.748,2.128 58.26,1.872 58.772,1.872 L60.564,1.872 C65.94,2.64 71.06,4.688 75.668,7.504 L77.972,9.04 C81.812,11.6 84.884,14.672 87.956,18.256 C90.004,20.816 91.796,23.376 93.332,26.448 C94.868,29.52 96.148,32.592 97.172,35.92 C97.684,37.712 98.196,39.76 98.452,41.808 C98.708,42.32 98.452,43.088 98.708,43.856 C98.964,44.368 98.708,45.136 98.964,45.904 C99.22,47.696 99.22,49.488 99.22,51.28 C99.22,52.304 99.22,53.328 98.964,54.352 C98.964,54.864 98.964,55.632 98.708,56.144 C98.452,56.912 98.708,57.68 98.452,58.192 C97.94,61.264 97.172,64.336 96.148,67.152 C95.38,68.944 94.868,70.48 94.1,72.272 C93.844,72.784 93.588,73.552 93.076,74.064 L93.076,74.32 L90.772,78.16 C90.26,78.672 90.004,79.44 89.236,79.696 C88.98,79.44 88.724,79.44 88.98,79.184 C89.236,78.672 89.236,78.416 89.492,77.904 C89.492,77.648 89.492,77.648 89.748,77.392 C89.748,77.136 89.748,77.136 90.004,77.136 L90.004,76.88 C90.004,76.624 90.26,76.112 90.26,75.856 C90.772,74.576 91.028,73.296 91.284,72.016 C91.284,71.504 91.54,70.736 91.796,70.224 C91.796,69.456 92.052,68.944 92.052,68.432 C92.052,67.92 92.308,67.408 92.308,66.896 L92.308,64.592 C92.564,64.08 92.308,63.568 92.308,62.8 L92.308,61.52 L92.308,59.216 C92.308,58.704 92.052,57.936 92.052,57.424 C91.796,54.864 91.028,52.56 90.26,50.256 C90.26,50.256 90.26,50 90.004,50 L89.236,47.696 C89.236,47.44 88.98,47.44 88.98,47.184 C88.724,46.928 88.724,46.416 88.468,46.16 C88.468,45.904 88.212,45.904 88.212,45.648 C87.188,43.6 85.652,41.552 84.372,39.504 C83.86,38.736 83.092,37.968 82.58,37.2 C82.068,36.432 81.3,35.92 80.788,35.152 C80.532,34.64 80.02,34.384 79.764,34.128 C79.252,33.616 78.74,33.104 77.972,32.592 C77.46,32.08 77.204,31.824 76.692,31.568 L70.548,26.96 C69.78,26.448 69.012,26.192 68.5,25.68 C68.244,25.68 68.244,25.424 67.988,25.424 C67.732,25.424 67.732,25.168 67.476,25.168 C66.708,24.656 65.684,24.4 64.916,23.888 C64.66,23.888 64.66,23.632 64.404,23.632 C64.148,23.632 64.148,23.376 63.892,23.376 C63.636,23.376 63.636,23.12 63.38,23.12 C62.356,22.608 61.588,22.352 60.564,21.84 C59.54,21.328 58.772,21.072 57.748,20.56 C57.492,20.56 57.492,20.304 57.236,20.304 C56.98,20.304 56.98,20.048 56.724,20.048 C56.468,19.792 55.956,19.792 55.7,19.536 L55.444,19.536 C54.676,19.024 53.908,18.512 53.396,17.744 C52.628,16.976 52.116,16.208 51.604,15.184 C51.092,14.16 50.836,12.88 50.836,11.6 C50.836,11.088 51.092,10.576 51.092,10.064 C51.604,8.016 52.372,6.224 53.908,4.944 C54.164,3.408 55.7,2.64 57.236,2.128 Z" id="Shape"></path>
                        <path d="M46.228,28.752 C46.74,28.752 47.508,28.496 48.02,28.496 L51.348,28.496 C52.116,28.496 52.628,28.752 53.396,28.752 C53.908,28.752 54.42,29.008 54.932,29.008 C55.956,29.264 57.236,29.776 58.26,30.288 C59.028,30.8 59.54,31.056 60.308,31.568 C61.844,32.848 62.868,34.384 63.892,36.176 C64.404,37.456 64.916,38.736 65.172,40.016 C65.172,40.528 65.428,41.296 65.428,41.808 C65.428,42.32 65.684,43.088 65.684,43.6 L65.684,45.904 C65.684,46.16 65.94,46.416 65.94,46.672 C66.452,47.44 66.964,48.208 67.476,49.232 C68.5,51.536 69.524,53.584 70.036,55.888 C70.292,56.4 70.036,57.168 70.036,57.936 C69.78,58.192 69.524,58.448 69.268,58.448 C67.988,58.448 66.708,57.936 65.94,56.912 L65.172,56.144 C64.66,56.656 64.404,57.168 64.148,57.936 C63.636,58.96 62.868,59.984 62.356,61.264 C62.868,61.776 63.636,61.776 64.148,62.032 C64.916,62.544 65.428,63.056 65.94,63.824 C65.94,64.336 65.94,65.104 65.428,65.36 C64.66,66.128 63.636,66.64 62.356,66.896 C61.332,67.152 60.308,67.408 59.028,67.408 C57.748,67.664 56.468,67.408 54.932,67.408 C53.908,67.408 53.14,67.152 52.116,66.64 C51.092,66.384 50.068,65.872 48.788,65.872 C47.764,66.128 46.74,66.64 45.716,66.896 C44.948,67.152 44.18,67.152 43.412,67.408 L41.108,67.408 C40.34,67.408 39.572,67.152 39.06,67.152 C37.78,66.896 36.5,66.64 35.476,66.128 C34.964,65.616 34.196,65.36 33.94,64.592 C33.684,64.336 33.94,63.824 34.196,63.568 C34.708,62.544 35.732,61.776 36.756,61.52 C37.012,61.52 37.268,61.264 37.268,61.008 C37.268,60.752 37.012,60.496 37.012,59.984 C36.5,58.96 35.732,57.936 35.22,56.656 C34.964,56.4 34.964,56.144 34.708,55.888 C34.196,55.888 34.196,56.144 33.94,56.4 C33.172,57.168 32.148,57.936 30.868,57.936 C30.612,57.936 30.1,57.936 29.844,57.424 C29.844,56.912 30.1,56.144 30.1,55.632 C30.612,52.816 31.636,50 33.172,47.44 C33.428,46.928 33.94,46.672 34.196,46.16 C34.452,45.904 34.196,45.392 34.196,45.136 C34.196,44.368 34.452,43.856 34.452,43.088 C34.708,42.32 34.452,41.552 34.708,41.04 C34.964,39.76 35.22,38.224 35.732,36.944 C36.244,35.664 37.012,34.64 37.524,33.36 C38.036,32.848 38.292,32.336 38.804,31.824 C39.316,31.312 39.828,30.8 40.34,30.544 C41.108,30.032 41.876,29.776 42.644,29.264 C43.156,29.008 43.668,28.752 44.436,28.752 C45.204,28.752 45.716,29.008 46.228,28.752 Z" id="Shape"></path>
                        <path d="M77.204,68.688 C77.972,68.432 78.74,68.688 79.252,68.688 C80.788,68.944 82.068,69.456 83.348,70.48 C83.86,70.736 84.372,71.248 84.628,71.76 C85.14,72.272 85.652,73.04 85.908,73.552 C86.42,74.576 86.676,75.344 86.932,76.368 L86.932,78.416 C86.932,79.696 86.42,80.976 86.164,82.256 C85.908,82.768 85.652,83.28 85.396,83.536 C84.628,84.56 83.86,85.072 83.092,86.096 C82.58,86.864 81.556,87.376 80.788,88.144 C80.02,88.912 79.252,89.424 78.228,90.192 C77.204,91.216 75.924,91.728 74.644,92.752 C73.108,93.52 71.572,94.544 69.78,95.312 C67.476,96.336 64.916,97.36 62.612,97.872 C60.82,98.384 58.772,98.896 56.98,99.152 C56.468,99.408 55.7,99.152 54.932,99.408 C54.164,99.664 53.652,99.408 52.884,99.664 C52.116,99.664 51.348,99.664 50.836,99.92 C49.044,99.92 47.252,99.92 45.46,99.664 C44.692,99.408 44.18,99.664 43.412,99.408 C42.9,99.152 42.132,99.408 41.364,99.152 C38.036,98.64 34.964,97.872 31.892,96.592 C29.588,95.824 27.284,94.8 25.236,93.52 C24.724,93.008 23.956,92.752 23.444,92.496 C20.884,90.96 18.58,89.168 16.276,87.376 C15.764,86.864 15.252,86.352 14.484,85.84 C13.972,85.328 13.204,84.816 12.948,84.304 C11.668,83.024 10.388,81.488 9.108,79.952 C7.316,77.648 6.036,75.344 4.756,72.784 C4.5,72.272 3.988,71.504 3.988,70.992 L3.732,70.736 C3.732,70.48 3.476,70.224 3.476,69.968 L3.732,69.712 C4.244,69.968 4.5,70.48 5.012,70.992 C5.524,71.76 6.036,72.016 6.548,72.784 C7.316,73.04 7.828,73.552 8.34,74.064 C9.108,74.576 9.62,75.344 10.644,76.112 C11.156,76.368 11.668,76.88 12.18,77.392 C14.228,78.928 16.276,80.464 18.58,81.488 C19.348,82 20.116,82.256 21.14,82.768 C21.908,83.024 22.932,83.28 23.7,83.792 C24.724,84.048 25.748,84.56 26.772,84.56 C27.284,84.816 28.052,84.816 28.564,85.072 C29.076,85.072 29.588,85.328 30.1,85.328 C30.612,85.328 31.124,85.584 31.636,85.584 L34.452,85.584 C35.22,85.84 35.988,85.584 36.756,85.584 C37.268,85.328 38.036,85.584 38.548,85.584 L39.828,85.584 C40.596,85.584 41.364,85.328 41.876,85.328 C42.388,85.328 42.9,85.072 43.412,85.072 C44.436,84.816 45.716,84.56 46.74,84.304 C48.276,84.048 49.812,83.536 51.092,83.024 C52.116,82.768 52.884,82.256 53.908,82 C55.956,81.232 58.004,80.208 59.796,79.184 C60.564,78.672 61.332,78.416 62.1,77.904 L64.404,76.368 C65.172,75.856 65.94,75.344 66.452,74.832 C67.22,74.576 67.732,74.064 68.244,73.552 C69.524,72.784 70.548,71.76 71.828,70.992 C72.596,70.736 73.108,70.224 73.62,69.968 C74.9,69.2 76.18,68.688 77.204,68.688 Z" id="Shape"></path>
                    </g>
                </g>
            </g>
        </g>
    </g>
</svg>