<?xml version="1.0" encoding="UTF-8"?>
<svg width="100px" height="68px" viewBox="0 0 100 68" version="1.1" xmlns="http://www.w3.org/2000/svg" xmlns:xlink="http://www.w3.org/1999/xlink">
    <!-- Generator: Sketch 51.1 (57501) - http://www.bohemiancoding.com/sketch -->
    <title>今日头条@2x</title>
    <desc>Created with Sketch.</desc>
    <defs>
        <linearGradient x1="9.79872569%" y1="0%" x2="100%" y2="90.562036%" id="linearGradient-1">
            <stop stop-color="#557AAE" offset="0%"></stop>
            <stop stop-color="#2B4576" offset="100%"></stop>
        </linearGradient>
    </defs>
    <g id="Page-1" stroke="none" stroke-width="1" fill="none" fill-rule="evenodd">
        <g id="饥人谷-公司介绍" transform="translate(-872.000000, -3176.000000)" fill="url(#linearGradient-1)" fill-rule="nonzero">
            <g id="7" transform="translate(0.000000, 3004.000000)">
                <g id="logo" transform="translate(281.000000, 156.000000)">
                    <g id="今日头条" transform="translate(591.000000, 16.000000)">
                        <path d="M99.9775969,0.0824833496 L99.9775969,61.9227108 C98.8988573,61.9728639 97.8199182,62.0173336 96.7415774,62.0745659 C94.9131342,62.1715817 93.0847907,62.2735829 91.2571451,62.3792732 C89.5806567,62.4761893 87.9047665,62.5867653 86.2280787,62.6800919 C83.3973718,62.8375307 80.566266,62.9831042 77.7355591,63.139147 C76.0083194,63.2344678 74.2817776,63.3418532 72.5547373,63.4407634 C69.8757858,63.5944132 67.196934,63.7455704 64.5177831,63.8978243 C62.7401908,63.9988284 60.9626983,64.0989352 59.1851061,64.201036 C56.5567065,64.3524923 53.9284066,64.5049457 51.300007,64.6576981 C49.5730664,64.7580043 47.8463252,64.8633955 46.1191852,64.9597133 C43.3391299,65.1150582 40.558576,65.2627256 37.7785207,65.4179708 C36.0513807,65.5145877 34.3247392,65.6230699 32.5976989,65.7193877 C29.8175439,65.8748323 27.0370898,66.0224 24.2570345,66.1775455 C22.5297947,66.2742621 20.803253,66.3825449 19.076113,66.4791618 C16.2959579,66.6345067 13.5154041,66.7821741 10.7354485,66.9373196 C9.00820876,67.0339365 7.28166699,67.1412222 5.55452697,67.2390356 C3.70335034,67.3437289 1.85167517,67.4429383 0,67.5444409 C0,46.8299279 0,26.1151159 0,5.40040351 C0.622974878,5.35005102 1.24505239,5.28544031 1.86892463,5.25213788 C4.82655969,5.09430029 7.7848927,4.94683233 10.7426275,4.79198598 C12.5966956,4.69477079 14.4503649,4.58967868 16.3042337,4.4901702 C19.1608647,4.33691918 22.0174956,4.18406699 24.874326,4.03330867 C26.8292985,3.93021071 28.7845702,3.83279611 30.7395427,3.72989757 C33.5962734,3.57903953 36.4530041,3.42718442 39.3096351,3.27253749 C41.1129519,3.17492347 42.9158699,3.0678372 44.7193862,2.97151938 C46.6994851,2.86552989 48.6800826,2.7670185 50.6602812,2.66571529 C52.640779,2.56411295 54.6214761,2.46619981 56.6017745,2.36160623 C59.4331794,2.2120444 62.2643848,2.05809542 65.0957897,1.90574177 C66.9749842,1.80463797 68.8538796,1.70213827 70.7332736,1.60292892 C72.6882462,1.49963155 74.6433184,1.39842804 76.5984904,1.29852074 C78.6042142,1.19582162 80.6099381,1.09671198 82.6156619,0.994112561 C84.5708339,0.89410555 86.5259061,0.793101461 88.4808787,0.690003505 C90.3600732,0.59069445 92.2390684,0.486998247 94.1184623,0.387589484 C96.0714407,0.284391821 98.0245188,0.184085686 99.9775969,0.0824833496 Z M77.1028129,26.1929877 C77.9910107,25.769628 78.7542746,25.4130726 79.511556,25.0436549 C82.2582092,23.7034812 84.9934956,22.3392779 87.7542076,21.0283186 C88.5777947,20.637364 89.0046442,20.1783089 88.9128132,19.180532 C88.7996448,17.9505355 88.8857924,16.7021928 88.8857924,15.461727 L88.8857924,12.0300806 C88.2522485,12.1066563 87.716518,12.2003817 87.1770983,12.2315903 C84.3722158,12.3944132 81.5658376,12.5374941 78.7606559,12.6950325 C77.1090944,12.7878606 75.459228,12.9119969 73.8071681,12.992162 C71.3974278,13.1093188 68.9864911,13.1990559 66.5762524,13.3023533 C66.3252876,13.3132214 66.0744226,13.3598847 65.8252526,13.3500136 C65.4193418,13.3336615 64.9686621,13.3878029 64.6173912,13.2316604 C62.8065963,12.4260206 61.0216257,11.5629492 59.1551938,10.6862177 C59.0535914,10.8140432 58.9299537,10.9423673 58.8371256,11.0903338 C56.5605951,14.7207977 54.3012144,18.3621297 51.9969651,21.9751447 C51.6801932,22.4718894 51.9018438,22.5797733 52.2657776,22.7114874 C53.8687813,23.2922859 55.5009994,23.8029897 57.069903,24.4644518 C57.8912966,24.8107373 58.1681854,24.4967572 58.54548,23.8592249 C59.5415618,22.1751587 60.6087353,20.5326707 61.6667357,18.8857955 C61.7822972,18.7059225 62.0104288,18.507105 62.2053577,18.4854684 C63.0261531,18.3940362 63.8544265,18.3653204 64.6799081,18.3158652 C66.3813235,18.2140635 68.08234,18.0996985 69.7848522,18.0165422 C72.1440405,17.9010804 74.5044253,17.811443 76.8641122,17.7051544 C77.1370127,17.6929901 77.4078193,17.6314703 77.6807198,17.6156167 C78.9219833,17.5438271 80.1633464,17.4803131 81.3575478,17.4163007 C81.6575688,18.2151603 81.2604323,18.5021196 80.6742497,18.7853897 C77.432846,20.351302 74.2127797,21.9605873 70.9725725,23.5286933 C70.7015665,23.6596097 70.2970516,23.7053757 70.0219575,23.6052689 C67.9083498,22.8354243 65.8127891,22.0161246 63.708853,21.2194586 C62.0489161,20.5907007 62.0474204,20.5956861 61.061808,22.056606 C60.9367743,22.241963 60.8002742,22.4198419 60.6787303,22.607193 C60.1311346,23.4500238 59.5868292,24.2950481 59.0210867,25.1710816 C60.7101383,25.7963498 62.3024732,26.3855237 63.9574247,26.9981289 C61.1913285,28.3766902 58.5177612,29.7210516 55.8291381,31.033008 C55.5093749,31.1890508 55.1061562,31.1994204 54.737935,31.2245468 C53.8758606,31.2837733 53.011792,31.3110933 52.1527089,31.3511759 L52.1527089,36.0513059 C53.6648787,36.0513059 55.1387607,36.0671595 56.6116456,36.0391416 C56.944969,36.0327603 57.3001285,35.9247766 57.602742,35.7766107 C61.2567369,33.9876518 64.9107318,32.198992 68.5460814,30.3725429 C69.8378968,29.7235443 70.992913,29.4579225 72.4731762,30.1071205 C75.2515365,31.3259498 78.1445609,32.2922189 81.0181422,33.2819194 C82.456229,33.7770687 83.818139,34.625882 85.4455712,34.4255688 C86.0653554,34.349392 86.6914212,34.3236674 87.3136981,34.2686286 C87.9774536,34.2099007 88.640511,34.1434952 89.2820315,34.0826734 L89.2820315,29.1890103 C88.6442999,29.2636915 88.0764635,29.3747661 87.5066329,29.3853352 C86.8353994,29.3975992 86.1302652,29.4385792 85.4976187,29.2610991 C84.3100978,28.9278754 83.1613632,28.4534652 82.0012619,28.0250204 C80.4078302,27.436046 78.8188853,26.8353059 77.1028129,26.1929877 Z M31.5768896,15.3196432 L31.5768896,36.1446325 C29.6389671,36.2828277 27.7897846,36.4322898 25.9382092,36.5430652 C23.1326286,36.7108736 20.3259513,36.8606349 17.5188752,37.0004253 C16.0864717,37.0720156 14.651376,37.0901624 13.2188728,37.1620518 C12.3248919,37.2069204 11.4335034,37.307725 10.5315459,37.3839019 L10.5315459,42.2641044 L25.0199992,41.4561714 C23.2135914,43.8533484 21.4250314,46.1747474 19.6995864,48.5422115 C18.9904639,49.5152608 18.2357749,50.0827981 16.9268097,49.9545737 C15.7375938,49.8381149 14.518266,50.0063221 13.3138944,50.0766162 C12.4437437,50.1274672 11.5761854,50.2234859 10.6372362,50.3055455 C10.6372362,51.7857091 10.6214824,53.2733507 10.660169,54.7595965 C10.6643568,54.9169355 10.9961846,55.2072849 11.1621982,55.197713 C14.0346828,55.0305028 16.9042758,54.8135385 19.7762617,54.6348619 C21.1064647,54.5521044 22.4408553,54.5385441 23.7717562,54.4644611 C23.9558169,54.4540915 24.1843474,54.3163949 24.3007065,54.1667334 C25.1699599,53.0486092 26.0123918,51.9095463 26.8700791,50.7824483 C28.9770064,48.0134606 31.0745612,45.2372939 33.2056179,42.4870512 C33.7729558,41.7548962 34.1985091,40.8410734 35.3703759,40.7932136 C38.1784491,40.6784499 40.9835311,40.4959844 43.7903081,40.3487159 C44.9699521,40.286897 46.1521885,40.2647618 47.3293398,40.1740277 C47.5168904,40.1594703 47.8319673,39.881385 47.8369527,39.7177644 C47.8776335,38.3516666 47.8709531,36.983475 47.8414395,35.616779 C47.8384483,35.4836689 47.5817005,35.238587 47.4499864,35.2436721 C45.8726076,35.3024 44.2962259,35.3913394 42.7203427,35.4871587 C41.474393,35.5629367 40.2297394,35.6591548 38.8839821,35.7531794 L38.8839821,14.9222076 L31.5768896,15.3196432 Z M52.1338641,42.3222341 C52.3889168,42.3222341 52.5853414,42.3330025 52.7804697,42.3204393 C54.279179,42.222925 55.7769908,42.1013811 57.2768966,42.0257028 C58.7842804,41.949526 60.2940573,41.920511 61.8024382,41.8636775 C62.0759369,41.8534076 62.3473418,41.7974715 62.6206411,41.7825153 C64.062816,41.7017519 65.5051903,41.6274695 67.0325157,41.5465067 L67.0325157,51.9647844 L74.4659381,51.5589733 L74.4659381,41.1784849 C75.1410602,41.0974224 75.7318294,40.9998084 76.3269858,40.9600249 C78.0523311,40.8448623 79.7789725,40.7383743 81.5062123,40.6556167 C83.9155537,40.5398559 86.3258921,40.4494208 88.7356323,40.3456249 C88.9278691,40.3374489 89.1192086,40.3098298 89.3052635,40.2918824 L89.3052635,35.3150629 C87.9526263,35.424243 86.6414676,35.5603443 85.3269188,35.6292425 C82.9438006,35.7543759 80.5581897,35.8370337 78.1737753,35.9438208 C77.9267988,35.9549881 77.6825145,36.0251825 77.4353387,36.0405375 C76.4530166,36.1010602 75.4700962,36.150615 74.4300432,36.2073488 L74.4300432,33.8089753 C71.9344545,33.9598333 69.4997873,34.1072016 66.9885445,34.2592561 L66.9885445,36.606978 C65.0301819,36.7432787 63.1579669,36.8986236 61.282661,36.9976335 C58.8743167,37.1249605 56.4629811,37.1974481 54.0538391,37.3148043 C53.4155093,37.3459131 52.7806691,37.4553924 52.1338641,37.530273 L52.1338641,42.3222341 Z M35.0090345,41.8663696 C34.9826119,41.9626874 34.9560896,42.0593044 34.9294676,42.1556222 L40.6813165,53.44086 L48.7539661,53.0018462 C48.7368164,52.8114041 48.7463883,52.7560662 48.7262473,52.7163825 C47.0413834,49.3985028 45.3396689,46.0889986 43.6776382,42.7600514 C43.2804019,41.9642828 42.7912351,41.5634571 41.8499926,41.697265 C40.9353722,41.8273838 40.0011093,41.843038 39.0745239,41.8601877 C37.7197928,41.8849153 36.3642641,41.8663696 35.0090345,41.8663696 Z M52.0597811,52.8061196 C52.4672872,52.8061196 52.7449737,52.8182839 53.0214637,52.8042251 C54.9248872,52.7066111 56.8268152,52.5757944 58.7313355,52.5198582 C59.2673651,52.5044035 59.5016787,52.3273223 59.7378867,51.8586952 C60.876451,49.5971209 62.0706524,47.363764 63.2389297,45.1171459 C63.6008693,44.4210851 63.9435653,43.714555 64.3591478,42.8848857 C63.5885056,42.960564 62.9721114,43.0478084 62.352726,43.0765242 C60.8959938,43.1439268 59.4373671,43.1726426 57.9804354,43.2391478 C57.2983338,43.2703564 56.7471486,43.4440475 56.4629811,44.2246606 C56.1682446,45.0336904 55.6691069,45.7671416 55.2713722,46.539778 C54.2175595,48.5875786 53.1702278,50.6385698 52.0597811,52.8061196 Z M90.7031681,50.5982878 C90.6827279,50.4769433 90.6954906,50.3389476 90.6381585,50.243228 C89.0328615,47.5681651 87.420585,44.8969908 85.8092058,42.2255174 C85.5924409,41.8661702 85.3297106,41.6675521 84.8530072,41.7024499 C83.0530804,41.8336654 81.2491653,41.912335 79.4476432,42.0217145 C79.0217908,42.0475389 78.5986306,42.1160382 78.0979973,42.1736693 C79.8070902,45.0113558 81.4487805,47.7517274 83.1146002,50.4775416 C83.2489067,50.6971981 83.5483295,50.9603272 83.7693819,50.959031 C85.3540393,50.9493593 86.9388962,50.8917281 88.5223572,50.8170469 C89.2392569,50.7833457 89.9527665,50.6759603 90.7031681,50.5982878 Z M27.4833823,33.893727 C27.4655346,33.7950162 27.4726138,33.7347926 27.4460915,33.701191 C25.9052058,31.7464179 24.3250352,29.821258 22.8340035,27.8293936 C22.113614,26.8672125 21.341177,26.3438458 20.0752857,26.4997889 C18.5110684,26.6927237 16.9264109,26.7183486 15.3514251,26.8269305 C14.7972487,26.8650189 14.2450664,26.9351135 13.6848078,26.9912491 C13.7108315,27.147591 13.7026555,27.2085126 13.7290781,27.2420144 C15.3064569,29.2318847 16.9105574,31.2013149 18.4550325,33.216511 C19.1065239,34.0665207 19.7747661,34.5739342 20.9498236,34.4490002 C22.8691007,34.2447984 24.8076214,34.2246574 26.7368693,34.1078995 C26.9918224,34.0926442 27.2402944,33.9662146 27.4833823,33.893727 Z M27.570527,24.7862092 C27.3239494,24.4397242 27.1503579,24.1733048 26.9544319,23.9241348 C25.6646107,22.2841394 24.34388,20.6675755 23.0865636,19.0032514 C22.2842142,17.941163 21.53471,17.0479797 19.9431727,17.3657488 C18.7271353,17.6085375 17.4412027,17.4902839 16.1879743,17.5620736 C15.3565102,17.6098337 14.5279377,17.7098407 13.5872935,17.7966863 C15.5314976,20.276222 17.4069032,22.6801792 19.3069367,25.0641947 C19.4315716,25.2206364 19.7489418,25.3009013 19.9705924,25.2900331 C21.5682119,25.2119618 23.1645352,25.1053741 24.7607587,24.9992849 C25.6553379,24.9399587 26.54892,24.8641807 27.570527,24.7862092 Z" id="Shape"></path>
                    </g>
                </g>
            </g>
        </g>
    </g>
</svg>