<?xml version="1.0" encoding="UTF-8"?>
<svg width="20px" height="20px" viewBox="0 0 20 20" version="1.1" xmlns="http://www.w3.org/2000/svg" xmlns:xlink="http://www.w3.org/1999/xlink">
    <!-- Generator: Sketch 51.1 (57501) - http://www.bohemiancoding.com/sketch -->
    <title>返回</title>
    <desc>Created with Sketch.</desc>
    <defs></defs>
    <g id="Page-1" stroke="none" stroke-width="1" fill="none" fill-rule="evenodd">
        <g id="饥人谷-马上报名" transform="translate(-680.000000, -65.000000)" fill="#009FF5">
            <g id="Group-4" transform="translate(675.000000, 60.000000)">
                <g id="返回">
                    <g id="return" transform="translate(5.000000, 5.000000)">
                        <path d="M10,20 C4.47720703,20 0,15.522793 0,10 C0,4.47720703 4.47720703,0 10,0 C15.522793,0 20,4.47720703 20,10 C20,15.522793 15.522793,20 10,20 Z M10,2 C5.58880859,2 2,5.58880859 2,10 C2,14.4111914 5.58880859,18 10,18 C14.4111914,18 18,14.4111914 18,10 C18,5.58880859 14.4111914,2 10,2 Z M6.29680469,10.7059961 C5.90656064,10.3164415 5.90600009,9.68429111 6.29555486,9.29404501 C6.29583234,9.29376705 7.62824761,7.96001714 10.2928007,5.29279528 C10.6829355,4.90233036 11.3157363,4.90206082 11.7062012,5.29219537 C12.096666,5.68233013 12.0969355,6.31513091 11.706801,6.70559576 C11.706801,6.70559576 10.6101343,7.80372727 8.416801,9.99999029 L11.706801,13.2927833 C12.0978186,13.6821876 12.0991291,14.3148438 11.7097248,14.7058633 C11.5217998,14.8945676 11.2663185,15.0004434 11.0000002,14.9999844 C10.7440002,14.9999844 10.4880002,14.9019844 10.292801,14.7059844 L6.29680469,10.7059961 Z" id="Shape" fill-rule="nonzero"></path>
                    </g>
                </g>
            </g>
        </g>
    </g>
</svg>