<?xml version="1.0" encoding="UTF-8"?>
<svg width="18px" height="18px" viewBox="0 0 18 18" version="1.1" xmlns="http://www.w3.org/2000/svg" xmlns:xlink="http://www.w3.org/1999/xlink">
    <!-- Generator: Sketch 51.1 (57501) - http://www.bohemiancoding.com/sketch -->
    <title>问题 未选中</title>
    <desc>Created with Sketch.</desc>
    <defs></defs>
    <g id="Page-1" stroke="none" stroke-width="1" fill="none" fill-rule="evenodd">
        <g id="饥人谷-马上报名" transform="translate(-1047.000000, -386.000000)">
            <g id="Group-7" transform="translate(1010.000000, 359.000000)">
                <g id="Group-3" transform="translate(30.000000, 20.000000)">
                    <g id="11/问题-未选中">
                        <g id="问题选中"></g>
                        <g id="加号" transform="translate(7.000000, 7.000000)" fill="#1296DB">
                            <path d="M16.8055412,10.1700174 L10.1625606,10.1700174 L10.1625606,16.8140575 C10.1625606,17.4615168 9.63744823,17.9861094 8.98996889,17.9861094 C8.34250953,17.9861094 7.81739715,17.4615168 7.81739715,16.8140575 L7.81739715,10.1700174 L1.17437662,10.1700174 C0.526377499,10.1700174 0.00180487974,9.64542477 0.00180487974,8.99796542 C0.00180487974,8.35074596 0.526437473,7.82591345 1.17437662,7.82591345 L7.81735716,7.82591345 L7.81735716,1.18187337 C7.81735716,0.534653912 8.34246955,0.00982140491 8.9899289,0.00982140491 C9.63740825,0.00982140491 10.1625206,0.534673903 10.1625206,1.18187337 L10.1625206,7.82593345 L16.8055012,7.82593345 C17.4535003,7.82593345 17.9780929,8.35074596 17.9780929,8.99794543 C17.9780729,9.64540478 17.4535003,10.1699574 16.8055012,10.1699574 L16.8055412,10.1700174 Z" id="Shape" fill-rule="nonzero"></path>
                        </g>
                    </g>
                </g>
            </g>
        </g>
    </g>
</svg>