<?xml version="1.0" encoding="UTF-8"?>
<svg width="48px" height="48px" viewBox="0 0 48 48" version="1.1" xmlns="http://www.w3.org/2000/svg" xmlns:xlink="http://www.w3.org/1999/xlink">
    <!-- Generator: Sketch 51.1 (57501) - http://www.bohemiancoding.com/sketch -->
    <title>5/求职指导和内推</title>
    <desc>Created with Sketch.</desc>
    <defs></defs>
    <g id="5/求职指导和内推" stroke="none" stroke-width="1" fill="none" fill-rule="evenodd">
        <rect id="Rectangle-18" fill-rule="nonzero" x="0" y="0" width="48" height="48"></rect>
        <g id="内推-投递" transform="translate(4.000000, 2.000000)" fill="#009FF5" fill-rule="nonzero">
            <path d="M29.9825688,11.9990826 L10.0009174,11.9990826 L10.0009174,13.9972477 L29.9825688,13.9972477 L29.9825688,11.9990826 Z M4.01651376,4.01651376 L35.987156,4.01651376 L35.987156,23.9981651 L39.9834862,23.9981651 L39.9834862,4.01651376 C39.9834862,1.80642202 38.1972477,0.0201834862 35.987156,0.0201834862 L4.01651376,0.0201834862 C1.80642202,0.0201834862 0.0201834862,1.80642202 0.0201834862,4.01651376 L0.0201834862,39.9834862 C0.0201834862,42.193578 1.80642202,43.9798165 4.01651376,43.9798165 L18.0036697,43.9798165 L18.0036697,39.9834862 L4.01651376,39.9834862 L4.01651376,4.01651376 Z M10.0009174,29.9825688 L17.993578,29.9825688 L17.993578,27.9844037 L10.0009174,27.9844037 L10.0009174,29.9825688 Z M10.0009174,22 L29.9825688,22 L29.9825688,20.0018349 L10.0009174,20.0018349 L10.0009174,22 Z M39.3981651,32.3844037 L33.5853211,26.5715596 C32.7779817,25.7642202 31.4458716,25.7642202 30.6385321,26.5715596 C29.8311927,27.3788991 29.8311927,28.7110092 30.6385321,29.5183486 L33.1009174,31.9807339 L22,31.9807339 C20.8899083,31.9807339 20.0018349,32.8788991 20.0018349,33.9788991 C20.0018349,35.0788991 20.9,35.9770642 22,35.9770642 L32.9697248,35.9770642 L30.5577982,38.3889908 C29.7504587,39.1963303 29.7504587,40.5284404 30.5577982,41.3357798 C31.3651376,42.1431193 32.6972477,42.1431193 33.5045872,41.3357798 L39.3174312,35.5229358 C39.5293578,35.3110092 39.6908257,35.0688073 39.7816514,34.806422 C39.8220183,34.7155963 39.8522936,34.6146789 39.8825688,34.5137615 C40.1348624,33.787156 39.9633028,32.9495413 39.3981651,32.3844037 Z" id="Shape"></path>
        </g>
    </g>
</svg>