<?xml version="1.0" encoding="UTF-8"?>
<svg width="36px" height="36px" viewBox="0 0 36 36" version="1.1" xmlns="http://www.w3.org/2000/svg" xmlns:xlink="http://www.w3.org/1999/xlink">
    <!-- Generator: Sketch 51.1 (57501) - http://www.bohemiancoding.com/sketch -->
    <title>1/日程安排</title>
    <desc>Created with Sketch.</desc>
    <defs></defs>
    <g id="1/日程安排" stroke="none" stroke-width="1" fill="none" fill-rule="evenodd">
        <g id="时间" transform="translate(3.000000, 3.000000)" fill="#FFFFFF" fill-rule="nonzero">
            <path d="M14.6271735,29.2564074 C6.56840475,29.2564074 0.0113864774,22.6994962 0.0113864774,14.6407987 C0.0113864774,6.58202996 6.56840475,0.0250116897 14.6271735,0.0250116897 C22.6878692,0.0250116897 29.2427822,6.58202996 29.2427822,14.6407987 C29.2427822,22.6994962 22.6878692,29.2564074 14.6271735,29.2564074 Z M14.6271735,2.60106726 C7.98833436,2.60106726 2.58669269,8.00270893 2.58669269,14.6415481 C2.58669269,21.278282 7.98833436,26.6803161 14.6271735,26.6803161 C21.2677968,26.6803161 26.6674759,21.2802088 26.6674759,14.6415481 C26.6674759,8.00270893 21.2658343,2.60106726 14.6271735,2.60106726 Z M18.1639912,16.8756901 L14.3274015,16.8756901 L14.3274015,10.4813502 C14.3274015,9.75052871 13.7792051,9.20247506 13.0485264,9.20247506 C12.50033,9.20247506 11.9522407,9.75052871 11.9522406,10.4813502 L11.9522406,18.154708 C11.9522406,18.885351 12.50033,19.4335474 13.2311158,19.4335474 L18.1639912,19.4335474 C18.8948126,19.4335474 19.4428663,18.885351 19.4428663,18.154708 C19.2601342,17.4238865 18.7120805,16.8756901 18.1639912,16.8756901 Z" id="Shape"></path>
        </g>
    </g>
</svg>