<?xml version="1.0" encoding="UTF-8"?>
<svg width="36px" height="36px" viewBox="0 0 36 36" version="1.1" xmlns="http://www.w3.org/2000/svg" xmlns:xlink="http://www.w3.org/1999/xlink">
    <!-- Generator: Sketch 51.1 (57501) - http://www.bohemiancoding.com/sketch -->
    <title>1/等级</title>
    <desc>Created with Sketch.</desc>
    <defs></defs>
    <g id="1/等级" stroke="none" stroke-width="1" fill="none" fill-rule="evenodd">
        <g id="等级" transform="translate(2.000000, 4.000000)" fill="#FFFFFF" fill-rule="nonzero">
            <path d="M25.6925301,0 L6.30746988,0 L0.00385542169,9.73879518 L15.9537349,29.6096386 L32,9.73879518 L25.6925301,0 Z M8.97927711,10.5792771 L13.5556627,23.7763855 L2.96096386,10.5792771 L8.97927711,10.5792771 Z M15.9190361,2.67180723 C15.9306024,2.65638554 15.9575904,2.61012048 16.026988,2.61012048 C16.0963855,2.61012048 16.1272289,2.65638554 16.1349398,2.67180723 L16.146506,2.69108434 L20.626506,8.79421687 L11.3850602,8.79421687 L15.8920482,2.71036145 L15.9190361,2.67180723 Z M21.1277108,10.5792771 L15.9575904,25.2491566 L10.8645783,10.5792771 L21.1277108,10.5792771 Z M23.0168675,10.5792771 L29.0313253,10.5792771 L18.3633735,23.7879518 L23.0168675,10.5792771 Z M29.2587952,8.79421687 L22.8395181,8.79421687 L17.700241,1.78506024 L24.7209639,1.78506024 L29.2587952,8.79421687 Z M7.27518072,1.78506024 L14.3537349,1.78506024 L9.16048193,8.79421687 L2.74120482,8.79421687 L7.27518072,1.78506024 Z" id="Shape"></path>
        </g>
    </g>
</svg>