<?xml version="1.0" encoding="UTF-8"?>
<svg width="422px" height="135px" viewBox="0 0 422 135" version="1.1" xmlns="http://www.w3.org/2000/svg" xmlns:xlink="http://www.w3.org/1999/xlink">
    <!-- Generator: Sketch 51.1 (57501) - http://www.bohemiancoding.com/sketch -->
    <title>Fill 1@2x</title>
    <desc>Created with Sketch.</desc>
    <defs>
        <linearGradient x1="8.95427005%" y1="4.71793792%" x2="100%" y2="94.3631448%" id="linearGradient-1">
            <stop stop-color="#23D5F1" offset="0%"></stop>
            <stop stop-color="#009DF5" offset="100%"></stop>
        </linearGradient>
    </defs>
    <g id="Page-1" stroke="none" stroke-width="1" fill="none" fill-rule="evenodd">
        <g id="饥人谷-公司介绍" transform="translate(-150.000000, -270.000000)" fill="url(#linearGradient-1)">
            <path d="M476.285492,270 L474.174358,272.404889 L481.131526,289.926559 L508.542339,289.926559 L519.13101,316.592758 L538.97344,316.592758 L541.378794,313.85321 L523.914296,270 L476.285492,270 Z M402.440884,270 L400.531474,272.174812 L407.579743,289.926559 L456.823736,289.926559 L459.235133,287.179575 L452.414152,270 L402.440884,270 Z M250.806422,270.586581 L210.675817,372.059065 L212.918955,374.613156 L233.384685,374.613156 L266.368483,290.512675 L279.759915,290.512675 L281.642366,292.65681 L238.883301,401.448543 L241.050212,403.916646 L325.823263,403.916646 L377.430313,273.025401 L375.546467,270.879407 L346.042647,270.879407 L301.469922,383.990552 L272.104614,383.990552 L270.12316,381.733935 L312.885013,272.936624 L310.821289,270.586581 L250.806422,270.586581 Z M183.408163,270.879407 L150,355.355449 L163.654046,370.510807 L167.448695,370.510807 L187.381762,320.108991 L193.386084,320.108991 L195.216012,322.193631 L187.452412,341.824576 L200.887535,356.738237 L204.996857,356.738237 L226.435884,302.528756 L224.376343,300.182897 L197.860275,300.182897 L196.06939,298.142877 L205.943195,273.174603 L203.92781,270.879407 L183.408163,270.879407 Z M449.726663,300.182897 L447.472834,302.750002 L453.049073,316.885584 L485.392838,316.885584 L512.317002,384.964779 L510.34252,387.213959 L499.675297,387.213959 L476.14977,327.728038 L458.367811,327.728038 L456.483965,329.873102 L485.699607,403.916646 L540.010415,403.916646 L542.247046,401.369062 L502.229853,300.182897 L449.726663,300.182897 Z M414.269649,300.182897 L412.079499,302.677028 L443.487616,382.378616 L441.814326,384.283378 L420.530078,384.283378 L418.571864,386.513966 L425.454663,403.916646 L426.040779,403.916646 L457.103083,403.916646 L472.611691,403.916646 L474.647528,401.59914 L444.620805,325.676398 L444.547366,325.676398 L434.490429,300.182897 L414.269649,300.182897 Z M526.101657,326.848631 L524.105794,329.121981 L554.398384,404.209937 L558.455183,404.209937 L572,389.550987 L546.553908,326.848631 L526.101657,326.848631 Z M361.020451,344.724015 L360.954449,344.724015 L354.183668,361.843165 L356.391945,364.357284 L368.784981,364.357284 L384.430242,403.916646 L410.71019,403.916646 L412.79483,401.542898 L390.323476,344.724015 L361.020451,344.724015 Z M182.829019,353.51483 L163.814868,401.593562 L165.854887,403.916646 L221.796223,403.916646 L228.620457,386.659449 L226.277386,383.990552 L196.616463,383.990552 L194.963624,382.108101 L200.346505,368.497746 L186.848168,353.51483 L182.829019,353.51483 Z" id="Fill-1"></path>
        </g>
    </g>
</svg>