<?xml version="1.0" encoding="UTF-8"?>
<svg width="48px" height="48px" viewBox="0 0 48 48" version="1.1" xmlns="http://www.w3.org/2000/svg" xmlns:xlink="http://www.w3.org/1999/xlink">
    <!-- Generator: Sketch 51.1 (57501) - http://www.bohemiancoding.com/sketch -->
    <title>2/数据</title>
    <desc>Created with Sketch.</desc>
    <defs></defs>
    <g id="2/数据" stroke="none" stroke-width="1" fill="none" fill-rule="evenodd">
        <rect id="Rectangle-20" fill-rule="nonzero" x="0" y="0" width="36" height="36"></rect>
        <g id="数据" transform="translate(2.000000, 2.000000)" fill="#009FF5" fill-rule="nonzero">
            <path d="M0.0289263607,41.0671676 C0.0289263607,40.177588 0.702121665,39.4563074 1.5436158,39.4563074 L42.5844867,39.4563074 C43.3538527,39.4563074 43.9789626,40.177588 43.9789626,41.0671676 C43.9789626,41.9567471 43.3538527,42.6780277 42.5844867,42.6780277 L1.5436158,42.6780277 C0.726164354,42.6780277 0.0289263607,41.9567471 0.0289263607,41.0671676 Z M12.1945272,37.1722519 L8.61216649,37.1722519 C6.92917823,37.1722519 5.53470224,35.8018186 5.53470224,34.0947876 L5.53470224,21.4964184 C5.53470224,19.8134301 6.90513554,18.4189541 8.61216649,18.4189541 L12.1945272,18.4189541 C13.8775155,18.4189541 15.2719915,19.7893874 15.2719915,21.4964184 L15.2719915,34.0947876 C15.2719915,35.8018186 13.9015582,37.1722519 12.1945272,37.1722519 Z M8.61216649,21.4723757 C8.5881238,21.4723757 8.56408111,21.4964184 8.56408111,21.520461 L8.56408111,34.1188303 C8.56408111,34.142873 8.5881238,34.1669157 8.61216649,34.1669157 L12.1945272,34.1669157 C12.2185699,34.1669157 12.2426126,34.142873 12.2426126,34.1188303 L12.2426126,21.520461 C12.2426126,21.4964184 12.2185699,21.4723757 12.1945272,21.4723757 L8.61216649,21.4723757 Z M23.8311889,37.1722519 L20.2728709,37.1722519 C18.5898826,37.1722519 17.1954066,35.8018186 17.1954066,34.0947876 L17.1954066,3.07971825 C17.1954066,1.39672999 18.5658399,0.00225400213 20.2728709,0.00225400213 L23.8552316,0.00225400213 C25.5382199,0.00225400213 26.9326958,1.3726873 26.9326958,3.07971825 L26.9326958,34.0947876 C26.9086531,35.8018186 25.5382199,37.1722519 23.8311889,37.1722519 Z M20.2728709,3.05567556 C20.2488282,3.05567556 20.2247855,3.07971825 20.2247855,3.10376094 L20.2247855,34.1188303 C20.2247855,34.142873 20.2488282,34.1669157 20.2728709,34.1669157 L23.8552316,34.1669157 C23.8792743,34.1669157 23.903317,34.142873 23.903317,34.1188303 L23.903317,3.10376094 C23.903317,3.07971825 23.8792743,3.05567556 23.8552316,3.05567556 L20.2728709,3.05567556 Z M35.8525336,37.1722519 L32.2701729,37.1722519 C30.5871846,37.1722519 29.1927086,35.8018186 29.1927086,34.0947876 L29.1927086,15.1972337 C29.1927086,13.5142455 30.5631419,12.1197695 32.2701729,12.1197695 L35.8525336,12.1197695 C37.5355219,12.1197695 38.9299979,13.4902028 38.9299979,15.1972337 L38.9299979,34.1188303 C38.9299979,35.8018186 37.5595646,37.1722519 35.8525336,37.1722519 Z M32.2701729,15.1491483 C32.2461302,15.1491483 32.2220875,15.173191 32.2220875,15.1972337 L32.2220875,34.1188303 C32.2220875,34.142873 32.2461302,34.1669157 32.2701729,34.1669157 L35.8525336,34.1669157 C35.8765763,34.1669157 35.900619,34.142873 35.900619,34.1188303 L35.900619,15.1972337 C35.900619,15.173191 35.8765763,15.1491483 35.8525336,15.1491483 L32.2701729,15.1491483 Z" id="Shape"></path>
        </g>
    </g>
</svg>