<?xml version="1.0" encoding="UTF-8"?>
<svg width="60px" height="60px" viewBox="0 0 60 60" version="1.1" xmlns="http://www.w3.org/2000/svg" xmlns:xlink="http://www.w3.org/1999/xlink">
    <!-- Generator: Sketch 51.1 (57501) - http://www.bohemiancoding.com/sketch -->
    <title>1/联系我们</title>
    <desc>Created with Sketch.</desc>
    <defs></defs>
    <g id="1/联系我们" stroke="none" stroke-width="1" fill="none" fill-rule="evenodd">
        <g id="telephone.1" transform="translate(10.000000, 10.000000)" fill="#FFFFFF" fill-rule="nonzero">
            <path d="M20,0.009 C8.96,0.009 0.009,8.959 0.009,20 C0.009,31.041 8.96,39.991 20,39.991 C31.04,39.991 39.991,31.041 39.991,20 C39.991,8.959 31.041,0.009 20,0.009 Z M20.0000086,37.6368 C10.2580223,37.6368 2.3624,29.741995 2.3624,20.0000086 C2.3624,10.2580223 10.2580223,2.3624 20.0000086,2.3624 C29.741995,2.3624 37.6368,10.2580223 37.6368,20.0000086 C37.6376172,29.741995 29.741995,37.6368 20.0000086,37.6368 Z M26.0202,20.9602 C24.3034,20.9602 22.5508,21.647 21.7608,22.999 C19.9426,22.813 17.3982,21.0584 16.969,18.0062 C18.2566,17.1342 19.0578,15.4548 19.0578,13.9288 C19.0578,11.3126 16.7622,8.8702 13.9384,9.0192 C11.3666,9.1548 9.2284,11.241 9.2284,13.8572 C9.2284,22.796 17.4412,30.7104 25.9794,30.9876 L26.0204,30.9876 C28.5958,30.9876 30.7328,28.6524 30.7712,26.0364 C30.8116,23.2766 28.5956,20.9602 26.0202,20.9602 Z M26.2694722,29.4242005 L26.2694722,29.158881 C20.5912535,29.4250508 10.9451488,22.1993481 10.9451488,13.8562424 C10.9451488,12.0021953 12.1116614,10.7610616 13.6878459,10.5833316 C15.1541185,10.4181447 16.6629102,11.5659489 16.9528907,13.4580506 C17.1284948,14.6030911 17.3608117,15.6110073 16.2202357,16.3061953 L15.5358902,16.5379246 L15.5358902,17.0013832 C15.3054364,21.5560335 18.3285975,24.6225641 22.655983,24.5319983 L23.0964813,24.4665189 L23.3245965,24.0030602 C23.7808269,22.8444137 24.7264525,23.276358 26.0951437,23.276358 C27.9200652,23.276358 28.9923979,25.0921378 29.0119567,26.4163965 C29.2677093,28.2666169 27.2119089,29.2581632 26.3128417,29.1584558 L26.2694722,29.4242005 Z" id="Shape"></path>
        </g>
    </g>
</svg>