<?xml version="1.0" encoding="UTF-8"?>
<svg width="60px" height="60px" viewBox="0 0 60 60" version="1.1" xmlns="http://www.w3.org/2000/svg" xmlns:xlink="http://www.w3.org/1999/xlink">
    <!-- Generator: Sketch 51.1 (57501) - http://www.bohemiancoding.com/sketch -->
    <title>1/搜索</title>
    <desc>Created with Sketch.</desc>
    <defs></defs>
    <g id="1/搜索" stroke="none" stroke-width="1" fill="none" fill-rule="evenodd">
        <g id="search-for.2" transform="translate(13.000000, 10.000000)" fill="#FFFFFF" fill-rule="nonzero">
            <path d="M33.9571304,38.0752406 L27.5739283,29.6762905 C31.3814523,26.5406824 33.6211724,21.8372704 33.6211724,16.7979003 C33.6211724,7.50306213 26.1181102,0 16.8232721,0 C7.52843394,0 0.025371811,7.50306213 0.025371811,16.7979003 C0.025371811,26.0927384 7.52843394,33.5958006 16.8232721,33.5958005 C17.7191601,33.5958005 18.7270341,33.4838145 19.6229221,33.3718285 C20.1828521,33.2598425 20.6307961,32.6999125 20.5188102,32.0279965 C20.4068242,31.4680665 19.8468941,31.0201225 19.2869641,31.1321085 C18.5030621,31.2440945 17.7191601,31.3560805 16.8232721,31.3560805 C8.76027996,31.3560805 2.26509185,24.8608924 2.26509185,16.7979003 C2.26509185,8.73490819 8.76027996,2.23972004 16.8232721,2.23972004 C24.8862642,2.23972004 31.3814523,8.73490815 31.3814523,16.7979003 C31.3814523,21.5013124 29.1417323,25.9807524 25.2222222,28.6684165 C24.6622922,29.0043744 24.5503062,29.6762905 24.9982502,30.2362205 L24.9982502,30.3482065 L31.9413823,39.4190726 C32.1653543,39.7550306 32.5013123,39.9790026 32.9492563,39.9790026 C33.1732283,39.9790026 33.3972004,39.8670167 33.6211724,39.7550306 C34.1811024,39.4190726 34.4050744,38.6351706 33.9571304,38.0752406 Z" id="Shape"></path>
        </g>
    </g>
</svg>