<?xml version="1.0" encoding="UTF-8"?>
<svg width="40px" height="40px" viewBox="0 0 40 40" version="1.1" xmlns="http://www.w3.org/2000/svg" xmlns:xlink="http://www.w3.org/1999/xlink">
    <!-- Generator: Sketch 51.1 (57501) - http://www.bohemiancoding.com/sketch -->
    <title>更多</title>
    <desc>Created with Sketch.</desc>
    <defs></defs>
    <g id="Symbols" stroke="none" stroke-width="1" fill="none" fill-rule="evenodd">
        <g id="1/搜索" transform="translate(-10.000000, -10.000000)" fill="#FFFFFF" fill-rule="nonzero">
            <g id="更多" transform="translate(10.000000, 10.000000)">
                <path d="M20.0024375,0.036333507 C8.96558293,0.036333507 0.0200757916,8.92821635 0.0200757916,19.8968218 C0.0200757916,30.8654273 8.96558293,39.7573101 20.0024375,39.7573101 C31.0344171,39.7573101 39.9799242,30.8654273 39.9799242,19.8968218 C39.9799242,8.92821635 31.0344171,0.036333507 20.0024375,0.036333507 Z M19.9975625,37.1784691 C10.4670631,37.1784691 2.74028994,29.4516959 2.74028994,19.9211965 C2.74028994,10.3906971 10.4670631,2.66392389 19.9975625,2.66392389 C29.5280619,2.66392389 37.2548351,10.3906971 37.2548351,19.9211965 C37.2548351,29.4516959 29.5280619,37.1784691 19.9975625,37.1784691 Z" id="Shape"></path>
                <path d="M9.60419948,19.7993231 C9.60419948,21.1886798 10.7303097,22.3147899 12.1196663,22.3147899 C13.509023,22.3147899 14.6351332,21.1886798 14.6351332,19.7993231 C14.6351332,18.4099664 13.509023,17.2838562 12.1196663,17.2838562 C10.7303097,17.2838562 9.60419948,18.4099664 9.60419948,19.7993231 Z M18.0280885,19.7993231 C18.0280885,21.1886798 19.1541987,22.3147899 20.5435554,22.3147899 C21.932912,22.3147899 23.0590222,21.1886798 23.0590222,19.7993231 C23.0590222,18.4099664 21.932912,17.2838562 20.5435554,17.2838562 C19.1541987,17.2838562 18.0280885,18.4099664 18.0280885,19.7993231 Z M25.6329883,19.7993231 C25.6329883,21.1886798 26.7590984,22.3147899 28.1484551,22.3147899 C29.5378118,22.3147899 30.663922,21.1886798 30.663922,19.7993231 C30.663922,18.4099664 29.5378118,17.2838562 28.1484551,17.2838562 C26.7590984,17.2838562 25.6329883,18.4099664 25.6329883,19.7993231 Z" id="Shape"></path>
            </g>
        </g>
    </g>
</svg>