<?xml version="1.0" encoding="UTF-8"?>
<svg width="36px" height="36px" viewBox="0 0 36 36" version="1.1" xmlns="http://www.w3.org/2000/svg" xmlns:xlink="http://www.w3.org/1999/xlink">
    <!-- Generator: Sketch 51.1 (57501) - http://www.bohemiancoding.com/sketch -->
    <title>1/teacher</title>
    <desc>Created with Sketch.</desc>
    <defs></defs>
    <g id="1/teacher" stroke="none" stroke-width="1" fill="none" fill-rule="evenodd">
        <rect id="Rectangle-16" fill-rule="nonzero" x="0" y="0" width="36" height="36"></rect>
        <g id="teacher" transform="translate(5.000000, 3.000000)" fill="#FFFFFF" fill-rule="nonzero">
            <path d="M13.9868638,21.3191518 C13.8621094,20.9627009 13.523471,20.7307701 13.1669531,20.7307701 C12.7926563,20.7307701 12.453817,20.9626674 12.346875,21.3191518 L10.4040067,26.7202232 C10.2970982,27.0410156 10.3683147,27.379654 10.6000112,27.6291964 L12.5430469,29.6434821 C12.7033594,29.821808 12.9352232,29.910904 13.1847656,29.910904 C13.4343415,29.910904 13.648192,29.821808 13.826317,29.6434821 L15.7693862,27.6291964 C16.0010826,27.379654 16.0725,27.0409821 15.9653906,26.7202232 L13.9868638,21.3191518 Z M13.1669866,27.7718304 L12.24,26.8093192 L13.1669866,24.2245647 L14.0938058,26.8093192 L13.1669866,27.7718304 Z M26.3397991,28.5562165 L26.3397991,28.5205246 C25.5377344,25.2229353 23.6125446,22.3707254 20.9388281,20.4812277 L20.225692,19.9821429 L20.207846,19.9644643 C19.6553906,19.6256585 18.9957924,19.7861384 18.6750335,20.3209821 C18.3361942,20.8734375 18.4967076,21.5330357 19.0136719,21.8537946 L19.7087612,22.3352344 C22.0261272,23.9394643 23.6125781,26.3459263 24.2364174,29.1086719 C24.3433929,29.6434821 24.7712612,29.9999665 25.3239174,29.9999665 L25.5734598,29.9999665 L25.6625558,29.9465625 C26.1794866,29.6256362 26.4289955,29.1087054 26.3397991,28.5562165 Z" id="Shape"></path>
            <path d="M13.2560491,19.9287723 C18.7462165,19.9287723 23.2203348,15.454654 23.2203348,9.96428571 C23.2203348,4.45627232 18.7462165,0 13.2560491,0 C7.7658817,0 3.29176339,4.4563058 3.29176339,9.96428571 C3.29176339,11.8182924 3.80856027,13.6363728 4.77123884,15.2050781 C5.66253348,16.6667076 6.92815848,17.8609152 8.42547991,18.6988058 C6.44671875,19.5008705 4.64648437,20.784308 3.20253348,22.4242969 C1.66972098,24.1711607 0.582220982,26.2745089 0.047578125,28.5205246 L0.047578125,28.5383705 C-0.05953125,29.0553348 0.243582589,29.7325781 0.849642857,29.8573326 L1.0634933,29.8573326 C1.61614955,29.8573326 2.04401786,29.5008817 2.15092634,28.9839174 C3.39870536,23.7432924 8.03330357,19.9287723 13.1848326,19.9287723 L13.2560491,19.9287723 Z M5.50205357,9.94664062 C5.50205357,5.66852679 8.97793527,2.1924442 13.2560826,2.1924442 C17.5342299,2.1924442 21.0101116,5.66852679 21.0101116,9.94664062 C21.0101116,14.2245871 17.5342299,17.7006696 13.2560826,17.7006696 C8.97793527,17.7183147 5.50205357,14.2245871 5.50205357,9.94664062 Z" id="Shape"></path>
        </g>
    </g>
</svg>