<?xml version="1.0" encoding="UTF-8"?>
<svg width="36px" height="36px" viewBox="0 0 36 36" version="1.1" xmlns="http://www.w3.org/2000/svg" xmlns:xlink="http://www.w3.org/1999/xlink">
    <!-- Generator: Sketch 51.1 (57501) - http://www.bohemiancoding.com/sketch -->
    <title>1/课程形式</title>
    <desc>Created with Sketch.</desc>
    <defs></defs>
    <g id="1/课程形式" stroke="none" stroke-width="1" fill="none" fill-rule="evenodd">
        <g id="-" transform="translate(3.000000, 3.000000)" fill="#FFFFFF" fill-rule="nonzero">
            <path d="M15.0025671,23.8709677 L2.6264525,18.244051 C2.09786372,18.093646 1.43991565,17.7220572 0.601310639,17.2487238 C0.238414867,17.0618731 0.00773540108,16.6930483 0.000190703839,16.2876158 C-0.00735399341,15.8821832 0.209446149,15.5051688 0.565142974,15.3051667 C0.9208398,15.1051645 1.35838414,15.1142522 1.70532521,15.3288481 C2.07556038,15.5367609 2.51939654,15.7579447 2.86509804,15.9216208 L15.0025671,21.4401574 L26.5713013,16.1826177 L27.5838722,15.6805304 L28.3577976,15.3000942 C28.7161337,15.1095241 29.1506582,15.1274766 29.4917689,15.3469446 C29.8328797,15.5664125 30.0265028,15.9526052 29.997064,16.3547852 C29.9676251,16.7569651 29.7197911,17.1113776 29.3502955,17.2796895 L28.5786005,17.6601257 C28.2116671,17.8451443 27.8421391,18.0250581 27.4701253,18.1998143 L27.4701253,18.2020261 L15.0025671,23.8709677 Z" id="Shape"></path>
            <path d="M14.9841045,30.3225806 L2.56819052,24.6352462 C2.1640034,24.5013741 1.55883925,24.2090866 0.565119498,23.6423612 C0.0286362122,23.3373771 -0.1588231,22.6555983 0.146417401,22.1195657 C0.451657902,21.5835331 1.13400985,21.3962312 1.67049316,21.7012153 C2.05458257,21.9198731 2.51906283,22.1496869 2.87188915,22.3170271 L14.9841045,27.8682582 L26.5670804,22.5624593 L27.5808979,22.0559765 L28.355776,21.6722097 C28.7145532,21.4799712 29.1496126,21.4980808 29.4911433,21.7194702 C29.832674,21.9408595 30.0265355,22.3304331 29.9970604,22.7361341 C29.9675853,23.141835 29.7194461,23.4993502 29.3494957,23.6691356 L28.5768507,24.0551336 C28.2094655,24.241772 27.8394827,24.4232609 27.4670109,24.599547 L27.4670109,24.6017782 L14.9841045,30.3225806 Z M14.9617737,17.0424651 C14.309715,17.0424651 13.7358139,16.8148825 13.2132736,16.5694502 L1.46728306,11.3238938 C0.65844314,10.904311 0.143657199,10.0767239 0.125203147,9.16632124 C0.0850077547,8.18459227 0.542788735,7.26533696 1.31989989,6.76777884 L13.1686121,0.544955879 C14.6737067,-0.204728065 15.6160656,-0.166797645 16.8688224,0.571730297 L28.5880161,6.71869242 C29.4030896,7.16493285 29.8787352,8.08195698 29.845239,9.12615959 C29.8117428,10.1190446 29.3115333,10.9602078 28.5388884,11.3172002 L16.7571685,16.578375 C16.1095759,16.8595065 15.5647048,17.042465 14.9617737,17.0424651 Z M15.055563,2.25182558 C14.8478868,2.25182558 14.5709851,2.34107366 14.1846626,2.53295706 L2.44090507,8.69776878 C2.37794816,8.81388921 2.34856697,8.94522098 2.35604812,9.07707316 C2.36051428,9.20871411 2.40517584,9.30019339 2.44537123,9.32027419 L14.1422341,14.5435186 C14.9952699,14.9406726 14.9997361,14.9094358 15.8572381,14.536825 L27.612161,9.28680615 C27.6478902,9.20425166 27.6322587,8.78478565 27.5206048,8.67991916 L15.7835465,2.52180103 C15.368194,2.2786 15.1783823,2.25182555 15.055563,2.25182558 Z" id="Shape"></path>
        </g>
    </g>
</svg>