<?xml version="1.0" encoding="UTF-8"?>
<svg width="32px" height="32px" viewBox="0 0 32 32" version="1.1" xmlns="http://www.w3.org/2000/svg" xmlns:xlink="http://www.w3.org/1999/xlink">
    <!-- Generator: Sketch 51.1 (57501) - http://www.bohemiancoding.com/sketch -->
    <title>10/分期付款</title>
    <desc>Created with Sketch.</desc>
    <defs></defs>
    <g id="10/分期付款" stroke="none" stroke-width="1" fill="none" fill-rule="evenodd">
        <g id="分期付款" transform="translate(2.000000, 4.000000)" fill="#FFFFFF" fill-rule="nonzero">
            <path d="M13.0346128,11.1217508 L5.79420875,11.1217508 C5.26324577,11.1217508 4.82882154,11.5561751 4.82882154,12.0871381 C4.82882154,12.6181011 5.26324577,13.0525253 5.79420875,13.0525253 L13.0346128,13.0525253 C13.5655758,13.0525253 14,12.618101 14,12.0871381 C14,11.5561751 13.5655758,11.1217509 13.0346128,11.1217508 Z M12.0692256,15.9486869 L5.79420875,15.9486869 C5.26324577,15.9486869 4.82882154,16.3831111 4.82882154,16.9140741 C4.82882154,17.4450371 5.26324577,17.8794613 5.79420875,17.8794613 L12.0692256,17.8794613 C12.6001886,17.8794613 13.0346128,17.4450371 13.0346128,16.9140741 C13.0346128,16.3831111 12.6001886,15.9486869 12.0692256,15.9486869 Z M19.7923232,11.1217508 L18.3442424,11.1217508 C17.8132795,11.1217508 17.3788552,11.5561751 17.3788552,12.0871381 C17.3788552,12.6181011 17.8132795,13.0525253 18.3442424,13.0525253 L19.7923232,13.0525253 C20.3232862,13.0525253 20.7577104,12.618101 20.7577104,12.0871381 C20.7577104,11.5561751 20.3232862,11.1217509 19.7923232,11.1217508 Z" id="Shape"></path>
            <path d="M26.0673401,0.0197979911 L1.93265993,0.0197979911 C0.870734013,0.0197979911 0.00188552,0.888646484 0.00188552,1.9505724 L0.00188552,21.2583165 C0.00188552,22.3202424 0.870734013,23.1890909 1.93265993,23.1890909 L26.0673401,23.1890909 C27.129266,23.1890909 27.9981145,22.3202424 27.9981145,21.2583165 L27.9981145,1.9505724 C27.9981145,0.888646484 27.129266,0.0197979911 26.0673401,0.0197979911 Z M1.93265993,1.9505724 L26.0673401,1.9505724 L26.0673401,5.81212122 L1.93265993,5.81212122 L1.93265993,1.9505724 Z M1.93265993,21.2583165 L1.93265993,7.74289563 L26.0673401,7.74289563 L26.0673401,21.2583165 L1.93265993,21.2583165 Z" id="Shape"></path>
        </g>
    </g>
</svg>