<?xml version="1.0" encoding="UTF-8"?>
<svg width="48px" height="48px" viewBox="0 0 48 48" version="1.1" xmlns="http://www.w3.org/2000/svg" xmlns:xlink="http://www.w3.org/1999/xlink">
    <!-- Generator: Sketch 51.1 (57501) - http://www.bohemiancoding.com/sketch -->
    <title>5/任务</title>
    <desc>Created with Sketch.</desc>
    <defs></defs>
    <g id="5/任务" stroke="none" stroke-width="1" fill="none" fill-rule="evenodd">
        <rect id="Rectangle-18" fill-rule="nonzero" x="0" y="0" width="48" height="48"></rect>
        <g id="任务-(1)" transform="translate(4.000000, 2.000000)" fill="#009FF5" fill-rule="nonzero">
            <path d="M22.0286602,3.66665234 L35.3352656,3.66665234 C38.1114766,3.66665234 40.3619648,5.92156641 40.3619648,8.69335156 L40.3619648,38.9733008 C40.3619648,41.7495117 38.1070508,44 35.3352656,44 L5.05535937,44 C2.27914844,44 0.0286601562,41.7450859 0.0286601562,38.9733008 L0.0286601562,16.5 L3.6953125,16.5 L3.6953125,38.6968398 C3.6953125,39.582082 4.42797266,40.3333477 5.33177734,40.3333477 L35.0588477,40.3333477 C35.9440469,40.3333477 36.6953125,39.6006445 36.6953125,38.6968398 L36.6953125,8.96976953 C36.6953125,8.08461328 35.9626523,7.33334766 35.0588477,7.33334766 L22.0286602,7.33334766 L22.0286602,3.66665234 Z M6.06155859,12.2686953 C6.81651953,13.0215078 8.04014063,13.0215078 8.79510156,12.2686953 L17.7959375,3.2910625 C18.5506406,2.53799219 18.5506406,1.31746484 17.7959375,0.564609375 C17.0409766,-0.188203125 15.8173555,-0.188203125 15.0624375,0.564609375 L7.4284375,8.17910156 L3.3281875,4.08933594 C2.57326953,3.33652344 1.34960547,3.33652344 0.5946875,4.08933594 C-0.160015625,4.84240625 -0.160015625,6.06293359 0.5946875,6.81578906 L6.06155859,12.2686523 L6.06155859,12.2686953 Z M7.36196484,33 C7.36196484,31.9874844 8.17480469,31.1666523 9.2125,31.1666523 L12.8448203,31.1666523 C13.866832,31.1666523 14.6953125,31.9804375 14.6953125,33 C14.6953125,34.0125156 13.8825156,34.8333477 12.8448203,34.8333477 L9.2125,34.8333477 C8.19048828,34.8333477 7.36196484,34.0195625 7.36196484,33 Z M7.36196484,23.8333477 C7.36196484,22.820832 8.17480469,22 9.2125,22 L12.8448203,22 C13.866832,22 14.6953125,22.8137422 14.6953125,23.8333477 C14.6953125,24.8458633 13.8825156,25.6666523 12.8448203,25.6666523 L9.2125,25.6666523 C8.19048828,25.6666523 7.36196484,24.8529102 7.36196484,23.8333477 Z M18.3619648,33 C18.3619648,31.9874844 19.1925508,31.1666523 20.1898555,31.1666523 L31.2007695,31.1666523 C32.2102773,31.1666523 33.0286602,31.9804375 33.0286602,33 C33.0286602,34.0125156 32.1980742,34.8333477 31.2007695,34.8333477 L20.1898555,34.8333477 C19.1803477,34.8333477 18.3619648,34.0195625 18.3619648,33 Z M18.3619648,23.8333477 C18.3619648,22.820832 19.1925508,22 20.1898555,22 L31.2007695,22 C32.2102773,22 33.0286602,22.8137422 33.0286602,23.8333477 C33.0286602,24.8458633 32.1980742,25.6666523 31.2007695,25.6666523 L20.1898555,25.6666523 C19.1803477,25.6666523 18.3619648,24.8529102 18.3619648,23.8333477 Z M18.3619648,14.6666523 C18.3619648,13.6541367 19.1925508,12.8333477 20.1898555,12.8333477 L31.2007695,12.8333477 C32.2102773,12.8333477 33.0286602,13.6470898 33.0286602,14.6666523 C33.0286602,15.679168 32.1980742,16.5 31.2007695,16.5 L20.1898555,16.5 C19.1803477,16.5 18.3619648,15.6862578 18.3619648,14.6666523 Z" id="Shape"></path>
        </g>
    </g>
</svg>