<?xml version="1.0" encoding="UTF-8"?>
<svg width="70px" height="71px" viewBox="0 0 70 71" version="1.1" xmlns="http://www.w3.org/2000/svg" xmlns:xlink="http://www.w3.org/1999/xlink">
    <!-- Generator: Sketch 51.1 (57501) - http://www.bohemiancoding.com/sketch -->
    <title>12/QQ</title>
    <desc>Created with Sketch.</desc>
    <defs></defs>
    <g id="12/QQ" stroke="none" stroke-width="1" fill="none" fill-rule="evenodd">
        <g id="Group" transform="translate(7.000000, 8.000000)" fill-rule="nonzero">
            <ellipse id="Oval" stroke="#EBF7FF" stroke-width="2" cx="27.6056338" cy="27.677151" rx="26.6056338" ry="26.677151"></ellipse>
            <g id="qq" transform="translate(12.619718, 11.830986)" fill="#EBF7FF">
                <path d="M20.5925901,31.5492958 C18.5320268,31.5492958 16.6232944,31.0366197 15.3968155,30.1611268 C15.0106431,30.1828945 14.6235512,30.1828945 14.2373789,30.1611268 C13.0109,31.0366197 11.1021676,31.5492958 9.03963239,31.5492958 C5.15512535,31.5492958 2.33540704,29.8771831 2.33540704,27.5740845 C2.33540704,26.4560563 3.01963239,25.4504225 4.2480831,24.7346479 L4.18892817,24.6498592 C3.47118169,25.1546479 2.67456197,25.2985915 1.94104085,25.0619718 C-0.247691549,24.348169 -0.366001408,20.6746479 0.63174507,17.5847887 C1.1680831,15.9323944 2.15202676,14.6369014 2.97822394,13.7752113 C2.96783673,13.6657518 2.96257276,13.5558666 2.9624493,13.4459155 C2.9624493,12.5526761 3.20498451,11.6811268 3.68216761,10.8529577 L3.68216761,10.815493 C3.68216761,4.85267606 8.68075915,0 14.8249845,0 C20.9692099,0 25.9658296,4.85267606 25.9658296,10.815493 L25.9658296,10.8273239 C26.5043111,11.7223674 26.7567794,12.7604458 26.6894915,13.8028169 C27.5018859,14.6566197 28.4779423,15.9422535 29.0083648,17.5828169 C30.0061113,20.6746479 29.8878014,24.3461972 27.6970972,25.0619718 C26.9655479,25.2985915 26.1728718,25.1546479 25.4551254,24.6538028 L25.3959704,24.7366197 C26.6185056,25.4583099 27.302731,26.4580282 27.302731,27.5760563 C27.302731,29.8771831 24.4830127,31.5492958 20.594562,31.5492958 L20.5925901,31.5492958 Z M15.659069,28.5678873 C15.8562521,28.5678873 16.0475197,28.6349296 16.1973789,28.7591549 C17.0985056,29.5084507 18.7824493,29.971831 20.594562,29.971831 C23.3866746,29.971831 25.6582239,28.8971831 25.6582239,27.5740845 C25.6582239,26.8760563 25.0016042,26.2095775 23.8539986,25.7501408 C23.6203229,25.6593577 23.443364,25.4633867 23.3768155,25.2216901 C23.3111992,24.9828322 23.3656033,24.7269858 23.522731,24.535493 C23.9070821,24.0656577 24.2482764,23.5621158 24.5421676,23.0309859 C24.6748012,22.7969807 24.9132738,22.6424151 25.1810408,22.6169014 C25.4519181,22.585441 25.7207713,22.6903232 25.8987873,22.8969014 C26.2201958,23.263662 26.7328718,23.7092958 27.1706183,23.5673239 C28.0066746,23.2912676 28.3162521,20.7712676 27.4348437,18.0521127 C26.9418859,16.5219718 25.9697732,15.3447887 25.2382239,14.6270423 C25.0556021,14.4513461 24.972115,14.1964517 25.015407,13.9467606 C25.0449845,13.7712676 25.0587873,13.6095775 25.0587873,13.4459155 C25.0587873,12.7597183 24.8497732,12.0853521 24.4376606,11.4385915 C24.3496134,11.3015212 24.3081229,11.1397085 24.3193507,10.9771831 L24.3232944,10.815493 C24.3232944,5.71830986 20.0641394,1.57746479 14.8249845,1.57746479 C9.58582958,1.57746479 5.32470282,5.72028169 5.32470282,10.815493 C5.32470282,10.8746479 5.32864648,10.9377465 5.33259014,10.9949296 C5.34468296,11.1587744 5.30315764,11.3221073 5.21428028,11.4602817 C4.82475239,12.050666 4.61324653,12.7406269 4.60498451,13.4478873 C4.60498451,13.603662 4.61878732,13.7633803 4.64639296,13.9309859 C4.68608594,14.1789954 4.60216432,14.4307603 4.42160423,14.6053521 C3.68413944,15.3290141 2.69822394,16.5160563 2.20132254,18.0540845 C1.32188592,20.7732394 1.62949155,23.2952113 2.46949155,23.5673239 C2.91315352,23.7171831 3.42188592,23.2616901 3.7452662,22.8909859 C3.92469714,22.6865754 4.19270321,22.5827599 4.46301268,22.6129577 C4.73118169,22.6385915 4.97568873,22.796338 5.10188592,23.0270423 C5.3937169,23.5594366 5.73287183,24.0622535 6.12132254,24.5335211 C6.27906901,24.7287324 6.33230845,24.9830986 6.2652662,25.2197183 C6.19928634,25.4617262 6.02212635,25.6579199 5.7880831,25.748169 C4.6365338,26.2076056 3.97597042,26.8721127 3.97597042,27.5760563 C3.97597042,28.8991549 6.24751972,29.9738028 9.03963239,29.9738028 C10.8517451,29.9738028 12.5356887,29.5084507 13.4387873,28.7591549 C13.6056254,28.6192771 13.8214266,28.5518392 14.0382239,28.571831 C14.5903366,28.6112676 15.0320268,28.6112676 15.5999141,28.571831 L15.659069,28.5698592 L15.659069,28.5678873 Z" id="Shape"></path>
            </g>
        </g>
    </g>
</svg>