<?xml version="1.0" encoding="UTF-8"?>
<svg width="70px" height="72px" viewBox="0 0 70 72" version="1.1" xmlns="http://www.w3.org/2000/svg" xmlns:xlink="http://www.w3.org/1999/xlink">
    <!-- Generator: Sketch 51.1 (57501) - http://www.bohemiancoding.com/sketch -->
    <title>12/微信</title>
    <desc>Created with Sketch.</desc>
    <defs></defs>
    <g id="12/微信" stroke="none" stroke-width="1" fill="none" fill-rule="evenodd">
        <g id="Group" transform="translate(7.000000, 8.000000)" fill-rule="nonzero">
            <ellipse id="Oval" stroke="#EBF7FF" stroke-width="2" cx="28" cy="28.0725389" rx="27" ry="27.0725389"></ellipse>
            <g id="wechat" transform="translate(12.000000, 15.000000)" fill="#EBF7FF">
                <path d="M16.0202056,6.81350954 C16.0202056,6.08704846 15.5850808,5.61762115 14.9323935,5.61762115 C14.2797063,5.61762115 13.6241997,6.08751836 13.6241997,6.81350954 C13.6241997,7.53198238 14.2820558,8.01409692 14.9323935,8.01409692 C15.5827313,8.01409692 16.0202056,7.52963289 16.0202056,6.81350954 Z M7.74578561,5.61527166 C7.09356828,5.61527166 6.4343025,6.08516887 6.4343025,6.81162996 C6.4343025,7.52963289 7.09215859,8.01174743 7.74578561,8.01174743 C8.39941263,8.01174743 8.83077827,7.52963289 8.83077827,6.81162996 C8.83030837,6.08516887 8.39612335,5.61527166 7.74578561,5.61527166 Z" id="Shape"></path>
                <path d="M31.9967107,16.7842584 C31.9967107,12.4264317 27.9767401,8.71283407 23.0418796,8.32610866 C23.0511857,8.27089353 23.0511857,8.21451028 23.0418796,8.15929515 C22.0503965,3.52093979 17.0896916,0.0234948605 11.4997944,0.0234948605 C5.18343612,0.0234948605 0.0437004405,4.45274596 0.0437004405,9.89697504 C0.0437004405,12.8178561 1.52669604,15.4497504 4.33668135,17.5252863 L3.35694567,20.4856388 C3.29381518,20.6781636 3.35148023,20.8897869 3.5035536,21.0236711 C3.65609243,21.1566793 3.8739468,21.1841665 4.05474302,21.0932159 L7.73215859,19.2427606 L8.1851395,19.3367401 C9.31759178,19.5716887 10.294978,19.7737445 11.4993245,19.7737445 C11.853627,19.7737445 12.8291336,19.6431131 12.9113656,19.5387959 C14.2378855,22.8741263 17.892746,25.2804699 22.1932452,25.2804699 C23.2951542,25.2804699 24.4097504,25.0135683 25.4106314,24.763583 L28.2455213,26.3217621 C28.4235467,26.4193471 28.6429453,26.3993563 28.8004022,26.2712032 C28.9578592,26.1430502 29.0219856,25.9322822 28.9625844,25.7381498 L28.2384728,23.3172394 C30.6654919,21.3887812 31.9967107,19.0815859 31.9967107,16.7842584 Z M12.6073421,18.445815 C12.5557651,18.4310768 12.502061,18.4251979 12.4485169,18.4284288 C12.1350954,18.4556828 11.8174449,18.4688399 11.5021439,18.4688399 C10.4387665,18.4688399 9.53891336,18.2841703 8.49903084,18.0675477 L7.89427313,17.9449046 C7.78953219,17.9224166 7.68023141,17.9370343 7.58508076,17.9862555 L4.92734214,19.3240529 L5.61809104,17.2377093 C5.68549555,17.0344666 5.61204114,16.8110507 5.43718062,16.6874596 C2.76722467,14.815859 1.4139207,12.5359178 1.4139207,9.91201175 C1.4139207,5.19518355 5.93903084,1.35612335 11.501674,1.35612335 C16.4191483,1.35612335 20.772746,4.36346549 21.6711894,8.36604993 C16.5154772,8.43418502 12.3432599,12.0782379 12.3432599,16.5558884 C12.3467329,17.1948131 12.4355458,17.8304104 12.6073421,18.445815 Z M27.1074302,22.4507489 C26.9494575,22.5713953 26.8823462,22.7770289 26.9387372,22.9676358 L27.3879589,24.4713069 L25.5445521,23.4572687 C25.4748415,23.418511 25.3964124,23.3981356 25.316652,23.3980617 C25.2774739,23.3979966 25.2384554,23.4030516 25.2005874,23.4130984 C24.2138032,23.6640235 23.1894273,23.9234068 22.1932452,23.9234068 C17.5671072,23.9234068 13.8041703,20.7281057 13.8041703,16.7974156 C13.8041703,12.8667254 17.5671072,9.67283407 22.1932452,9.67283407 C26.7310426,9.67283407 30.5654038,12.9353304 30.5654038,16.7974156 C30.5654038,18.756417 29.3375624,20.7642878 27.1074302,22.4507489 Z" id="Shape"></path>
                <path d="M18.6840529,13.6035242 C18.1507195,13.6035242 17.6178561,14.2064023 17.6178561,14.8041116 C17.6178561,15.4018209 18.1507195,16 18.6840529,16 C19.4828781,16 20.0143319,15.4060499 20.0143319,14.8041116 C20.0143319,14.2021733 19.4852276,13.6035242 18.6840529,13.6035242 Z M25.0676065,13.6035242 C24.5417915,13.6035242 24.008928,14.2064023 24.008928,14.8041116 C24.008928,15.4018209 24.5422614,16 25.0676065,16 C25.8664317,16 26.4054038,15.4060499 26.4054038,14.8041116 C26.4054038,14.2021733 25.8669016,13.6035242 25.0676065,13.6035242 Z" id="Shape"></path>
            </g>
        </g>
    </g>
</svg>