<?xml version="1.0" encoding="UTF-8"?>
<svg width="70px" height="71px" viewBox="0 0 70 71" version="1.1" xmlns="http://www.w3.org/2000/svg" xmlns:xlink="http://www.w3.org/1999/xlink">
    <!-- Generator: Sketch 51.1 (57501) - http://www.bohemiancoding.com/sketch -->
    <title>12/微博</title>
    <desc>Created with Sketch.</desc>
    <defs></defs>
    <g id="12/微博" stroke="none" stroke-width="1" fill="none" fill-rule="evenodd">
        <g id="Group" transform="translate(7.000000, 8.000000)">
            <ellipse id="Oval" stroke="#EBF7FF" stroke-width="2" fill-rule="nonzero" cx="27.6056338" cy="27.677151" rx="26.6056338" ry="26.677151"></ellipse>
            <g id="weibo" transform="translate(11.830986, 13.408451)"></g>
            <path d="M34.6758154,27.1111957 C34.6809131,27.0599398 34.6863215,27.0087149 34.6914191,26.9622768 C34.7975678,25.9707897 34.9950695,24.1252025 33.3415444,22.8938475 L33.2821758,22.8497717 L33.2169325,22.8152385 C32.718982,22.5524934 32.1567207,22.424711 31.4978533,22.424711 C30.7285478,22.424711 29.9433278,22.600237 29.1840622,22.7700437 C28.7822205,22.859967 28.3951744,22.9463779 28.0285498,23.0039747 C28.0228616,22.9449169 28.0175775,22.8862011 28.0126353,22.8327382 C27.9266906,21.8788305 27.7667683,20.1032424 26.0069393,19.3924973 C25.3498436,19.1272035 24.6425799,18.9925517 23.904948,18.9925517 C22.8684216,18.9925517 21.8016824,19.2568509 20.7231627,19.7836775 C16.1443808,22.0955726 12.3293715,27.1899913 11.8491073,31.6336241 L11.8435435,31.7362603 C11.8435435,37.1575483 17.5582865,41.4043322 24.8536649,41.4043322 C28.3311433,41.4043322 31.5997125,40.4911433 34.0570452,38.8328626 C36.5973074,37.1186945 38.1176416,34.7256416 38.3378961,32.0944925 C38.6130432,28.8079883 36.3635318,27.8174648 34.6759709,27.1111646 L34.6758154,27.1111957 Z M36.434712,31.9350364 C36.073931,36.2447013 31.0950792,39.4945896 24.8535406,39.4945896 C18.6534046,39.4945896 13.7911763,36.1133754 13.7533171,31.7873609 C14.1885731,28.0052686 17.6175308,23.4909529 21.5722895,21.4938358 C22.3762836,21.1012258 23.160882,20.9021389 23.904575,20.9021389 C24.3960291,20.9021389 24.8628033,20.9899796 25.2915318,21.1631433 C25.9219271,21.4177756 26.0250296,22.0572161 26.1103215,23.0038193 C26.1679184,23.6431044 26.2875881,24.9733968 27.5295736,24.9733968 C27.5591336,24.9733968 27.589253,24.9724332 27.6202739,24.9705372 C28.2853269,24.9275804 28.9537368,24.7781331 29.6003575,24.633628 C30.2888159,24.4797358 30.9390733,24.3342671 31.4975425,24.3342671 C31.8054823,24.3342671 32.0563225,24.3796173 32.2614395,24.4728975 C32.921084,25.0098572 32.8954716,25.7944245 32.7923691,26.7590248 C32.7261622,27.3781059 32.6260748,28.3138611 33.4690471,28.6750151 C33.5992229,28.7310267 33.7311705,28.7861059 33.8635532,28.8414959 C35.6603089,29.5926489 36.5906246,30.0715143 36.434712,31.9350986 L36.434712,31.9350364 Z M34.859796,18.3680622 C34.3325342,18.3680622 33.9049247,18.7956717 33.9049247,19.3229335 C33.9049247,19.8501952 34.3325342,20.2778048 34.859796,20.2778048 C35.7920699,20.2778048 36.5507139,21.0273725 36.5507139,21.9488295 C36.5507139,22.4760913 36.9783235,22.9037008 37.5055852,22.9037008 C38.032847,22.9037008 38.4604565,22.4760913 38.4604565,21.9488295 C38.4604565,19.9743099 36.845288,18.3680622 34.859796,18.3680622 Z M34.5613987,13.4345605 C34.034137,13.4345605 33.6065274,13.86217 33.6065274,14.3894318 C33.6065274,14.9166935 34.034137,15.3443031 34.5613987,15.3443031 C38.3567013,15.3443031 41.4444293,18.3160291 41.4444293,21.9687227 C41.4444293,22.4959845 41.8720389,22.923594 42.3993006,22.923594 C42.9265624,22.923594 43.3541719,22.4959845 43.3541719,21.9687227 C43.3541719,17.2629665 39.409764,13.4345605 34.5613987,13.4345605 Z M25.9024692,26.0901175 C25.0797008,26.0901175 24.2433803,26.1900495 23.4167887,26.387085 C21.3845168,26.8713589 19.5979252,27.8975347 18.3859038,29.2761923 C17.0926935,30.7470112 16.5921632,32.4452647 16.9766605,34.0578844 C17.5809461,36.592272 20.2824361,38.2949704 23.6989607,38.2949704 C24.521729,38.2949704 25.3580495,38.1951938 26.1847965,37.9981583 C28.2170685,37.513729 30.0038154,36.4877086 31.2158679,35.1092064 C32.5090782,33.6382322 33.0096085,31.940134 32.6251112,30.3273589 C32.0206702,27.7929713 29.3191802,26.0901175 25.9025002,26.0901175 L25.9024692,26.0901175 Z M29.7812919,33.8481049 C28.8278504,34.9325614 27.3933055,35.7468752 25.741863,36.1402623 C25.0600874,36.3027644 24.3725925,36.3851656 23.6989296,36.3851656 C21.1842797,36.3851656 19.2294978,35.2719573 18.834339,33.6149199 C18.5977037,32.6225313 18.9478232,31.5294959 19.8202312,30.5370452 C20.7738281,29.4526508 22.208373,28.6382749 23.85966,28.2448878 C24.5414356,28.0823856 25.2287751,27.9999845 25.9025935,27.9999845 C28.4172433,27.9999845 30.3721807,29.1131928 30.7671841,30.7702302 C31.0038193,31.7628052 30.6535134,32.8558407 29.7812919,33.8481049 Z M23.857764,31.5172802 C23.547897,31.5172802 23.2305702,31.5861914 22.9401302,31.7163672 C22.4584051,31.9318349 22.0742186,32.2993298 21.8582535,32.7506557 C21.6286119,33.2306401 21.6147489,33.7688742 21.820239,34.2275357 C22.1062341,34.8661991 22.7582322,35.2629432 23.5219738,35.2629432 C23.8316853,35.2629432 24.1488256,35.1940321 24.4394522,35.0640117 C24.9211773,34.8483575 25.3055192,34.4810491 25.5214842,34.0295678 C25.7511258,33.5497387 25.7651442,33.0115046 25.5596853,32.5528742 C25.2735347,31.9140243 24.6215367,31.5173113 23.857795,31.5173113 L23.857764,31.5172802 Z M24.3729344,33.4800194 C24.2882642,33.6569752 24.122747,33.810712 23.9187489,33.9020651 C23.7908111,33.9593511 23.6534551,33.9897504 23.521694,33.9897504 C23.2667508,33.9897504 23.0600175,33.8813638 22.9818747,33.7072676 C22.9102593,33.5473142 22.9665818,33.3837241 23.0063681,33.3001729 C23.0910384,33.1234036 23.2564002,32.9694803 23.4602428,32.8782827 C23.5883672,32.8209966 23.7256921,32.790442 23.8576396,32.790442 C24.1125828,32.790442 24.3194716,32.8988286 24.3976144,33.0730801 C24.4690743,33.232847 24.4129072,33.3966236 24.3729344,33.4800194 Z" id="Shape" fill="#EBF7FF" fill-rule="nonzero"></path>
        </g>
    </g>
</svg>