<?xml version="1.0" encoding="UTF-8"?>
<svg width="70px" height="71px" viewBox="0 0 70 71" version="1.1" xmlns="http://www.w3.org/2000/svg" xmlns:xlink="http://www.w3.org/1999/xlink">
    <!-- Generator: Sketch 51.1 (57501) - http://www.bohemiancoding.com/sketch -->
    <title>12/电话</title>
    <desc>Created with Sketch.</desc>
    <defs></defs>
    <g id="12/电话" stroke="none" stroke-width="1" fill="none" fill-rule="evenodd">
        <g id="Group" transform="translate(7.000000, 7.000000)" fill-rule="nonzero">
            <ellipse id="Oval" stroke="#EBF7FF" stroke-width="2" cx="27.6056338" cy="27.677151" rx="26.6056338" ry="26.677151"></ellipse>
            <g id="telephone" transform="translate(12.619718, 12.619718)" fill="#EBF7FF">
                <path d="M22.0354569,29.9701826 C20.1019006,29.9701826 17.6056241,28.6821241 15.8519489,27.6012195 C13.5034254,26.1540793 10.9734025,24.1519512 8.72773674,21.964008 L8.71964479,21.955916 L8.0065942,21.2427456 C5.81853112,18.9972596 3.81658284,16.4670569 2.36920285,14.1185335 C1.28853804,12.3648582 0.00029968904,9.86858174 0.00029968904,7.93502542 C0.00029968904,5.86588401 1.47992762,3.66966903 2.11607469,2.82157281 C2.61244088,2.15971131 4.34669546,0 5.82020946,0 C6.42530745,0 7.07691917,0.396025998 7.93328715,1.28416239 C8.69075355,2.0694411 9.41759041,3.0456299 9.89387656,3.72625275 C10.5336201,4.64004362 11.1251715,5.59681172 11.559919,6.42045227 C12.2637987,7.75394557 12.3452577,8.32577667 12.3452577,8.63992411 C12.3452577,9.27391336 12.0140871,9.82380625 11.3611567,10.2741982 C10.9312045,10.5707232 10.415118,10.794001 9.91605445,11.0100261 C9.57942937,11.1556212 9.04188418,11.38801 8.83688812,11.5514674 C8.90845693,11.854406 9.22104592,12.5860381 10.0660252,13.826504 C10.853342,14.982334 11.871429,16.2349678 12.791154,17.1795081 C13.7355144,18.0991131 14.9879684,19.1173201 16.1441581,19.9046368 C17.3842643,20.7491966 18.1158964,21.0619654 18.4190748,21.1335941 C18.5823523,20.9285981 18.8149209,20.3912327 18.9605161,20.0546076 C19.1763613,19.5554243 19.3995793,19.0392778 19.696344,18.6093255 C20.1467359,17.9563952 20.6966288,17.6254045 21.3306181,17.6254045 C21.6447655,17.6254045 22.2165966,17.7068035 23.5502697,18.4105633 C24.3737305,18.8453108 25.3306784,19.4368622 26.2443494,20.0766058 C26.9249722,20.5530717 27.9011011,21.2799086 28.6865596,22.0371952 C29.5744563,22.8935632 29.9704823,23.5451749 29.9704823,24.1502729 C29.9704823,25.6237868 27.8109509,27.3580414 27.1490894,27.8544076 C26.3008133,28.4905547 24.1045983,29.9701826 22.0354569,29.9701826 Z M9.96682398,20.7004651 C12.1211407,22.7990372 14.5405735,24.7144915 16.780485,26.0947983 C18.9520046,27.4330868 20.8674589,28.2006232 22.0355168,28.2006232 C23.0760216,28.2006232 24.5593059,27.5651354 26.0036289,26.5010141 C26.636779,26.0343784 27.2130457,25.5146954 27.6262746,25.0378099 C28.0140288,24.5901153 28.1557878,24.2980858 28.191752,24.1802431 C28.041961,23.8583633 27.1519065,22.8518447 25.0746132,21.4188504 C24.2597239,20.8567896 23.417382,20.3402235 22.7024732,19.9644574 C21.8048663,19.4925469 21.4307784,19.411028 21.3451237,19.3976613 C21.3118568,19.4204986 21.214094,19.5021973 21.0654419,19.7513094 C20.8991074,20.0302719 20.7391865,20.399984 20.5846603,20.7573485 C20.3943496,21.1974906 20.1973856,21.6526178 19.9558858,22.0198125 C19.5632165,22.6171183 19.0810562,22.9201168 18.5229515,22.9204764 C18.5128216,22.9204764 18.502332,22.9202966 18.4915427,22.919937 C18.2200129,22.9141827 17.3929557,22.8966202 15.1477694,21.3675415 C13.9083825,20.5231016 12.5623617,19.4284107 11.5476912,18.4387353 L11.531807,18.423031 C10.5423114,17.4080608 9.44762052,16.0622197 8.60330055,14.8229527 C7.07404202,12.5777664 7.05635961,11.7507692 7.05060534,11.4790596 C7.03843745,10.910765 7.33843897,10.4201531 7.94185862,10.0205906 C8.31085152,9.77633362 8.76969499,9.57793102 9.2133736,9.38588209 C9.57085793,9.23135582 9.94039029,9.07137499 10.2194127,8.9052203 C10.4685249,8.75674801 10.5504633,8.65880545 10.5730608,8.62553856 C10.5596941,8.53988378 10.4781752,8.16585591 10.0063247,7.26818901 C9.63055854,6.55346009 9.11393254,5.71093831 8.55187173,4.89622887 C7.11887742,2.81875575 6.1123588,1.9287612 5.79047904,1.77897024 C5.67257636,1.81505434 5.38054687,1.95681331 4.93285231,2.34456752 C4.45590681,2.75761659 3.93628381,3.33400314 3.46982787,3.96721315 C2.40552674,5.41135637 1.77021882,6.89464065 1.77021882,7.93514546 C1.77021882,9.10314341 2.53763532,11.0184778 3.8758639,13.1901772 C5.25629051,15.4300887 7.17180478,17.8495216 9.27019709,20.0038383 L9.96682398,20.7004651 Z" id="Shape"></path>
            </g>
        </g>
    </g>
</svg>