<?xml version="1.0" encoding="UTF-8"?>
<svg width="48px" height="48px" viewBox="0 0 48 48" version="1.1" xmlns="http://www.w3.org/2000/svg" xmlns:xlink="http://www.w3.org/1999/xlink">
    <!-- Generator: Sketch 51.1 (57501) - http://www.bohemiancoding.com/sketch -->
    <title>2/火箭</title>
    <desc>Created with Sketch.</desc>
    <defs></defs>
    <g id="2/火箭" stroke="none" stroke-width="1" fill="none" fill-rule="evenodd">
        <rect id="Rectangle-20" fill-rule="nonzero" x="0" y="0" width="48" height="48"></rect>
        <g id="火箭-(1)" transform="translate(2.000000, 2.000000)" fill="#009FF5" fill-rule="nonzero">
            <path d="M32.6864486,11.3186916 C30.1780374,8.81028037 26.1070093,8.81028037 23.5985981,11.3186916 C21.0901869,13.8271028 21.0901869,17.8981308 23.5985981,20.4065421 C26.1070093,22.9149533 30.1780374,22.9149533 32.6864486,20.4065421 C35.1948598,17.8981308 35.1948598,13.8271028 32.6864486,11.3186916 Z M25.053271,18.9518692 C23.3518692,17.2504673 23.3518692,14.4747664 25.053271,12.7733645 C26.7546729,11.0719626 29.5303738,11.0719626 31.2317757,12.7733645 C32.9331776,14.4747664 32.9331776,17.2504673 31.2317757,18.9518692 C29.5303738,20.653271 26.7598131,20.653271 25.053271,18.9518692 Z M30.9850467,37.5285047 L27.4742991,34.017757 C29.6588785,32.3163551 32.121028,29.8542056 35.1948598,26.7803738 C44.5448598,17.4303738 44.961215,2.95046729 43.0079439,0.997196262 C41.0546729,-0.956074766 26.6415888,-0.611682243 17.2247664,8.81028037 C14.1509346,11.8841121 11.6836449,14.3411215 9.97196262,16.5205607 L6.32242991,12.871028 L6.22990654,12.7785047 L0.0462616822,18.9518692 L1.86588785,20.7714953 L6.22990654,16.4074766 L8.49158879,18.6691589 C6.28130841,22.4883178 6.97009346,25.7163551 11.5859813,30.6046729 L6.91869159,35.2719626 L8.73831776,37.0915888 L13.4056075,32.4242991 C18.2579439,36.9990654 21.4911215,37.6878505 25.3205607,35.4981308 L27.6028037,37.7803738 L23.238785,42.1443925 L25.0584112,43.9640187 L31.2317757,37.7803738 L30.9850467,37.5285047 Z M38.5873832,2.61121495 C39.8929907,2.62149533 40.7102804,2.76542056 41.1214953,2.87850467 C41.2345794,3.28971963 41.3785047,4.11214953 41.3836449,5.42803738 C41.388785,6.22990654 41.3373832,7.35046729 41.1471963,8.73831776 L41.1780374,8.49158879 C40.1448598,7.68457944 39.1425234,6.7953271 38.1761682,5.82897196 C37.2046729,4.85747664 36.3102804,3.85 35.4981308,2.81168224 C36.7831776,2.64719626 37.8317757,2.60607477 38.5873832,2.61121495 Z M40.7873832,10.7738318 C40.8747664,10.3626168 40.946729,9.96682243 41.0135514,9.59158879 C40.946729,9.97196262 40.8747664,10.367757 40.7873832,10.7738318 Z M41.0135514,9.57616822 C41.0488455,9.38598131 41.0841396,9.20607477 41.1135514,9.02616822 C41.0841396,9.20607477 41.0488455,9.3911215 41.0135514,9.57616822 Z M41.1009346,9.02616822 C41.1209346,8.93878505 41.1509346,8.85654206 41.1709346,8.77429907 C41.1509346,8.85654206 41.1309346,8.93878505 41.1009346,9.02616822 Z M22.5808411,33.9252336 C21.5116822,34.2593458 20.5658879,34.1873832 19.414486,33.6733645 C18.2271028,33.1439252 16.8443925,32.1364486 15.2149533,30.6046729 L19.635514,26.1841121 L17.8158879,24.364486 L13.3953271,28.7850467 C11.8584112,27.1504673 10.8457944,25.767757 10.311215,24.5803738 C9.79719626,23.4392523 9.70981308,22.5037383 10.0336449,21.45 C10.835514,18.8233645 14.1869159,15.4771028 18.8182243,10.8406542 L19.0341121,10.6247664 C20.9205607,8.73831776 23.1616822,7.12429907 25.685514,5.83925234 C27.8752336,4.72383178 30.2294393,3.87570093 32.6813084,3.31028037 C32.9588785,3.24859813 33.2313084,3.18691589 33.4985981,3.13551402 L33.2056075,3.19719626 C34.2182243,4.58504673 35.3901869,5.96261682 36.711215,7.27850467 C38.0271028,8.59439252 39.3943925,9.76121495 40.7771028,10.7686916 C40.7359813,10.9588785 40.6948598,11.1490654 40.6485981,11.3392523 C40.0831776,13.7962617 39.2299065,16.1504673 38.1196262,18.3401869 C36.8397196,20.8588785 35.2411215,23.0845794 33.3700935,24.9556075 C28.6616822,29.6794393 25.2537383,33.0873832 22.5808411,33.9252336 Z M35.4981308,2.81168224 C35.4107477,2.83168224 35.3233645,2.85168224 35.2359813,2.88168224 C35.3233645,2.86168224 35.4107477,2.83168224 35.4981308,2.81168224 Z M35.2359813,2.84766355 C35.061215,2.87891355 34.8761682,2.91016355 34.6911215,2.94766355 C34.8761682,2.91016355 35.061215,2.87891355 35.2359813,2.84766355 Z M34.6859813,2.92990654 C34.5985981,2.95990654 34.5060748,2.98990654 34.4186916,3.01990654 C34.511215,2.97990654 34.5985981,2.94990654 34.6859813,2.92990654 Z M34.3981308,2.97616822 C34.1205607,3.02242991 33.8327103,3.07383178 33.5397196,3.13551402 C33.8327103,3.07383178 34.1205607,3.02242991 34.3981308,2.97616822 Z" id="Shape"></path>
        </g>
    </g>
</svg>