<?xml version="1.0" encoding="UTF-8"?>
<svg width="48px" height="48px" viewBox="0 0 48 48" version="1.1" xmlns="http://www.w3.org/2000/svg" xmlns:xlink="http://www.w3.org/1999/xlink">
    <!-- Generator: Sketch 51.1 (57501) - http://www.bohemiancoding.com/sketch -->
    <title>2/自由</title>
    <desc>Created with Sketch.</desc>
    <defs></defs>
    <g id="2/自由" stroke="none" stroke-width="1" fill="none" fill-rule="evenodd">
        <g id="自由流程" transform="translate(2.000000, 2.000000)" fill="#009FF5" fill-rule="nonzero">
            <path d="M33,9.77742857 C30.9728571,9.77742857 29.3322857,11.418 29.3322857,13.4451429 C29.3322857,15.0354286 30.36,16.3585714 31.7774286,16.8645714 L31.7774286,31.7774286 L24.4451429,31.7774286 L24.4451429,14.6677143 L9.77742857,14.6677143 L9.77742857,27.1354286 C8.31887935,27.6420967 7.33879157,29.0139676 7.33228571,30.558 C7.33228577,32.5836226 8.97437738,34.2257142 11,34.2257142 C13.0256226,34.2257142 14.6677142,32.5836226 14.6677143,30.558 C14.6677143,28.9645714 13.64,27.6445714 12.2225714,27.1354286 L12.2225714,17.1097143 L22,17.1097143 L22,34.2194286 L34.2225714,34.2194286 L34.2225714,16.8645714 C35.64,16.3554286 36.6677143,15.0354286 36.6677143,13.4451429 C36.6677143,11.4211429 35.0271429,9.77742857 33,9.77742857 Z M36.6677143,-1.35130002e-14 L7.33228571,-1.35130002e-14 C3.28277613,-1.35130002e-14 4.13939877e-15,3.28277613 4.13939877e-15,7.33228571 L4.13939877e-15,36.6645714 C-0.000833770997,38.609759 0.771304591,40.4755621 2.14646528,41.8513122 C3.52162597,43.2270623 5.38709798,44.0000002 7.33228571,44 L36.6645714,44 C38.609759,44.0008338 40.4755621,43.2286954 41.8513122,41.8535347 C43.2270623,40.478374 44.0000002,38.612902 44,36.6677143 L44,7.33228571 C44.0008342,5.38738702 43.2285956,3.52190675 41.8533444,2.14665557 C40.4780933,0.77140439 38.612613,-0.000834183555 36.6677143,-1.35130002e-14 Z M41.558,36.6677143 C41.558,39.3642857 39.3674286,41.558 36.6677143,41.558 L7.33228571,41.558 C4.63145549,41.558 2.442,39.3685445 2.442,36.6677143 L2.442,7.33228571 C2.442,4.63257143 4.62942857,2.442 7.33228571,2.442 L36.6645714,2.442 C39.3611429,2.442 41.5548571,4.62942857 41.5548571,7.33228571 L41.5548571,36.6677143 L41.558,36.6677143 Z" id="Shape"></path>
        </g>
    </g>
</svg>