<?xml version="1.0" encoding="UTF-8"?>
<svg width="48px" height="48px" viewBox="0 0 48 48" version="1.1" xmlns="http://www.w3.org/2000/svg" xmlns:xlink="http://www.w3.org/1999/xlink">
    <!-- Generator: Sketch 51.1 (57501) - http://www.bohemiancoding.com/sketch -->
    <title>5/课表</title>
    <desc>Created with Sketch.</desc>
    <defs></defs>
    <g id="5/课表" stroke="none" stroke-width="1" fill="none" fill-rule="evenodd">
        <rect id="Rectangle-18" fill-rule="nonzero" x="0" y="0" width="48" height="48"></rect>
        <g id="课表-(1)" transform="translate(2.000000, 2.000000)" fill="#009FF5" fill-rule="nonzero">
            <path d="M39.4777976,4.16108178 L33.640583,4.16108178 L33.640583,1.4157668 C33.640583,0.649632389 33.0386202,0.0385489879 32.2907271,0.0385489879 C31.5519547,0.0385489879 30.9408713,0.649632389 30.9408713,1.4157668 L30.9408713,4.16108178 L22.8782186,4.16108178 L22.8782186,1.4157668 C22.8782186,0.649632389 22.2762559,0.0385489879 21.5283628,0.0385489879 C20.7895903,0.0385489879 20.1785069,0.649632389 20.1785069,1.4157668 L20.1785069,4.16108178 L12.1067336,4.16108178 L12.1067336,1.4157668 C12.1067336,0.649632389 11.5047709,0.0385489879 10.7568777,0.0385489879 C10.0181053,0.0385489879 9.40702186,0.649632389 9.40702186,1.4157668 L9.40702186,4.16108178 L3.58804858,4.16108178 C1.59974737,4.16108178 0.0036340081,5.80279838 0.0036340081,7.81846154 L0.0036340081,40.3153296 C0.0036340081,42.3401134 1.60886802,43.9727093 3.58804858,43.9727093 L39.4777976,43.9727093 C41.4569781,43.9727093 43.0622121,42.3309927 43.0622121,40.3153296 L43.0622121,7.81846154 C43.0622121,5.80279838 41.4569781,4.16108178 39.4777976,4.16108178 Z M40.3716211,40.3153296 C40.3716211,40.8169652 39.9703126,41.2273943 39.4777976,41.2273943 L3.58804858,41.2273943 C3.0955336,41.2273943 2.6942251,40.8169652 2.6942251,40.3153296 L2.6942251,7.81846154 C2.6942251,7.31682591 3.0955336,6.90639676 3.58804858,6.90639676 L9.42526316,6.90639676 L9.42526316,9.65171174 C9.42526316,10.4087255 10.0272259,11.0289296 10.775119,11.0289296 C11.5138915,11.0289296 12.1249749,10.4178462 12.1249749,9.65171174 L12.1249749,6.90639676 L20.1967482,6.90639676 L20.1967482,9.65171174 C20.1967482,10.4087255 20.7987109,11.0289296 21.546604,11.0289296 C22.2853765,11.0289296 22.8964599,10.4178462 22.8964599,9.65171174 L22.8964599,6.90639676 L30.9682332,6.90639676 L30.9682332,9.65171174 C30.9682332,10.4087255 31.570196,11.0289296 32.3180891,11.0289296 C33.0568615,11.0289296 33.6679449,10.4178462 33.6679449,9.65171174 L33.6679449,6.90639676 L39.5051595,6.90639676 C39.9976745,6.90639676 40.398983,7.31682591 40.398983,7.81846154 L40.398983,40.3153296 L40.3716211,40.3153296 Z M9.41614251,20.6329717 L14.7973247,20.6329717 L14.7973247,16.5104389 L9.41614251,16.5104389 L9.41614251,20.6329717 Z M9.41614251,27.5008194 L14.7973247,27.5008194 L14.7973247,23.3782866 L9.41614251,23.3782866 L9.41614251,27.5008194 Z M9.41614251,34.3595466 L14.7973247,34.3595466 L14.7973247,30.2370138 L9.41614251,30.2370138 L9.41614251,34.3595466 Z M18.8377717,34.3595466 L24.2189538,34.3595466 L24.2189538,30.2370138 L18.8377717,30.2370138 L18.8377717,34.3595466 Z M18.8377717,27.5008194 L24.2189538,27.5008194 L24.2189538,23.3782866 L18.8377717,23.3782866 L18.8377717,27.5008194 Z M18.8377717,20.6329717 L24.2189538,20.6329717 L24.2189538,16.5104389 L18.8377717,16.5104389 L18.8377717,20.6329717 Z M28.2594008,34.3595466 L33.640583,34.3595466 L33.640583,30.2370138 L28.2594008,30.2370138 L28.2594008,34.3595466 Z M28.2594008,27.5008194 L33.640583,27.5008194 L33.640583,23.3782866 L28.2594008,23.3782866 L28.2594008,27.5008194 Z M28.2594008,20.6329717 L33.640583,20.6329717 L33.640583,16.5104389 L28.2594008,16.5104389 L28.2594008,20.6329717 Z" id="Shape"></path>
        </g>
    </g>
</svg>