<?xml version="1.0" encoding="UTF-8"?>
<svg width="48px" height="48px" viewBox="0 0 48 48" version="1.1" xmlns="http://www.w3.org/2000/svg" xmlns:xlink="http://www.w3.org/1999/xlink">
    <!-- Generator: Sketch 51.1 (57501) - http://www.bohemiancoding.com/sketch -->
    <title>5/模拟面试</title>
    <desc>Created with Sketch.</desc>
    <defs></defs>
    <g id="5/模拟面试" stroke="none" stroke-width="1" fill="none" fill-rule="evenodd">
        <rect id="Rectangle-18" fill-rule="nonzero" x="0" y="0" width="48" height="48"></rect>
        <g id="面试中" transform="translate(2.000000, 3.000000)" fill="#009FF5" fill-rule="nonzero">
            <path d="M34.4152752,22.7341367 C34.159082,22.7341367 33.9028889,22.648739 33.7320935,22.4779436 C33.1343096,22.1363528 32.9635142,21.2823757 33.3905027,20.6845918 L36.7210132,15.6461272 C36.9772063,15.3045363 37.3187971,15.0483433 37.8311833,15.0483433 L41.5886824,15.0483433 L41.5886824,2.58027831 L27.3272656,2.58027831 L27.3272656,3.00726683 C27.3272656,3.69044846 26.7294817,4.28823242 26.0463,4.28823242 C25.3631184,4.28823242 24.7653344,3.69044851 24.7653344,3.00726683 L24.7653344,1.29931272 C24.7653344,0.616131079 25.3631184,0.0183471208 26.0463,0.0183471208 L42.6988525,0.0183471208 C43.3820342,0.0183471208 43.9798181,0.616131037 43.9798181,1.29931272 L43.9798181,16.3293088 C43.9798181,16.6708996 43.8090227,17.0124904 43.6382273,17.2686836 C43.3820342,17.5248767 43.0404434,17.6102744 42.6988525,17.6102744 L38.3435695,17.6102744 L35.5254453,22.1363528 C35.2692522,22.4779436 34.8422637,22.7341367 34.4152752,22.7341367 Z" id="Shape"></path>
            <path d="M9.82073607,36.4831672 L1.28096559,36.4831672 C0.597783958,36.4831672 0,35.8853833 0,35.2022016 C0,26.3208403 6.49022557,19.0620354 14.4322122,19.0620354 C15.1153938,19.0620354 15.7131778,19.6598193 15.7131778,20.343001 C15.7131778,21.0261827 15.1153938,21.6239666 14.4322122,21.6239666 C8.2835774,21.6239665 3.24511278,27.0894197 2.64732887,33.9212361 L9.82073611,33.9212361 C10.5039178,33.9212361 11.1017017,34.51902 11.1017017,35.2022017 C11.1017017,35.8853833 10.5039177,36.4831672 9.82073607,36.4831672 Z" id="Shape"></path>
            <path d="M36.8064109,41.9486204 L12.7242581,41.9486204 C12.0410764,41.9486204 11.4432925,41.3508364 11.4432925,40.6676548 C11.4432925,32.2986797 17.4211318,25.4668633 24.7653344,25.4668633 C32.109537,25.4668633 38.0873764,32.2986797 38.0873764,40.6676548 C38.0873765,41.3508364 37.5749902,41.9486204 36.8064109,41.9486204 Z M14.0906213,39.3866892 L35.5254453,39.3866892 C35.0130591,33.067259 30.401583,28.0287944 24.8507322,28.0287944 C19.2998813,28.0287944 14.6030076,33.067259 14.0906213,39.3866892 Z" id="Shape"></path>
            <path d="M24.7653345,24.6982839 C19.983063,24.6982839 16.0547686,20.7699895 16.0547686,15.987718 C16.0547686,11.2054465 19.983063,7.27715209 24.7653345,7.27715209 C29.547606,7.27715209 33.4759004,11.2054465 33.4759004,15.987718 C33.4759004,20.7699895 29.547606,24.6982839 24.7653345,24.6982839 Z M24.7653345,9.83908324 C21.3494263,9.83908324 18.6166997,12.5718098 18.6166997,15.987718 C18.6166997,19.4036262 21.3494263,22.1363528 24.7653345,22.1363528 C28.1812427,22.1363528 30.9139693,19.4036262 30.9139693,15.987718 C30.9139693,12.5718098 28.1812427,9.83908324 24.7653345,9.83908324 Z" id="Shape"></path>
            <path d="M13.9198259,16.4147065 C9.56454295,16.4147065 5.97783937,12.8280029 5.97783937,8.47271996 C5.97783937,4.11743698 9.564543,0.530733401 13.9198259,0.530733401 C17.2503364,0.530733401 20.3246538,2.66567603 21.434824,5.82539114 C21.6910171,6.50857277 21.3494263,7.19175441 20.6662446,7.44794753 C19.983063,7.70414065 19.2998813,7.36254981 19.0436882,6.67936817 C18.2751089,4.54442554 16.225564,3.09266455 14.0052236,3.09266455 C10.9309063,3.09266455 8.53977052,5.56919798 8.53977052,8.47271996 C8.53977052,11.4616396 10.9309063,13.8527754 13.9198259,13.8527754 C14.6030076,13.8527754 15.2007915,14.4505593 15.2007915,15.133741 C15.2007915,15.8169226 14.6030076,16.4147065 13.9198259,16.4147065 Z" id="Shape"></path>
        </g>
    </g>
</svg>