<?xml version="1.0" encoding="UTF-8"?>
<svg width="48px" height="48px" viewBox="0 0 48 48" version="1.1" xmlns="http://www.w3.org/2000/svg" xmlns:xlink="http://www.w3.org/1999/xlink">
    <!-- Generator: Sketch 51.1 (57501) - http://www.bohemiancoding.com/sketch -->
    <title>5/项目</title>
    <desc>Created with Sketch.</desc>
    <defs></defs>
    <g id="5/项目" stroke="none" stroke-width="1" fill="none" fill-rule="evenodd">
        <g id="-" transform="translate(3.000000, 2.000000)" fill="#009FF5" fill-rule="nonzero">
            <path d="M21.2939662,33.8813736 L3.72786806,25.8947821 C2.97761302,25.6813041 2.04375124,25.1538876 0.853473166,24.4820596 C0.338395295,24.2168521 0.010979279,23.6933589 0.000270676417,23.1179062 C-0.0104379261,22.5424535 0.297278405,22.0073364 0.802138415,21.7234623 C1.30699843,21.4395883 1.92802911,21.452487 2.42046158,21.7570747 C2.94595667,22.0521768 3.57591767,22.3661151 4.06659077,22.5984295 L21.2939662,30.4311912 L37.7141051,22.9688768 L39.1513025,22.2562367 L40.2497772,21.7162628 C40.7583833,21.4457761 41.3751277,21.4712571 41.859285,21.78276 C42.3434422,22.0942629 42.6182621,22.6424074 42.5764779,23.2132435 C42.5346938,23.7840796 42.1829293,24.2871166 41.6584839,24.5260109 L40.5631749,25.0659849 C40.0423662,25.3285919 39.5178748,25.5839534 38.9898552,25.8319944 L38.9898552,25.8351338 L21.2939662,33.8813736 Z" id="Shape"></path>
            <path d="M21.2677613,43.0385016 L3.64517364,34.9661559 C3.07148869,34.7761438 2.21254603,34.3612841 0.802105094,33.5568998 C0.0406449464,33.1240191 -0.225426335,32.1563331 0.207818247,31.3955126 C0.641062828,30.6346921 1.60956237,30.3688443 2.37102255,30.8017249 C2.91618171,31.1120779 3.57544402,31.4382653 4.07622976,31.6757804 L21.2677613,39.5549471 L37.7081142,32.0241358 L39.1470808,31.3052569 L40.2469078,30.7605556 C40.75614,30.487701 41.3736437,30.5134051 41.8583969,30.8276351 C42.3431502,31.1418651 42.6183084,31.6948083 42.5764728,32.2706419 C42.5346372,32.8464755 42.1824396,33.3539164 41.6573487,33.5949022 L40.5606913,34.1427703 C40.0392414,34.4076764 39.5141044,34.6652735 38.9854348,34.915486 L38.9854348,34.9186529 L21.2677613,43.0385016 Z M21.236066,24.1893053 C20.3105632,24.1893053 19.4959939,23.8662848 18.7543239,23.5179293 L2.0825953,16.0726234 C0.934564457,15.4770866 0.203900541,14.3024469 0.177707692,13.0102624 C0.120656168,11.6168406 0.770409817,10.3120912 1.8734063,9.60587965 L18.6909333,0.773485764 C20.8271966,-0.29058177 22.1647383,-0.236745044 23.9428447,0.811488164 L40.5765389,9.5362086 C41.7334175,10.1695821 42.4085274,11.4711648 42.3609844,12.9532588 C42.3134414,14.3625149 41.6034667,15.556424 40.5068093,16.0631228 L23.7843682,23.5305968 C22.8652045,23.9296221 22.0918391,24.1893052 21.236066,24.1893053 Z M21.3691862,3.19613954 C21.0744199,3.19613954 20.6813982,3.32281423 20.1330695,3.59516486 L3.46451042,12.3452202 C3.37515223,12.5100363 3.3334499,12.6964427 3.3440683,12.8835877 C3.35040737,13.0704329 3.41379797,13.2002745 3.47084949,13.2287763 L20.0728484,20.6424135 C21.2836089,21.2061159 21.289948,21.1617798 22.5070476,20.6329129 L39.1914543,13.1812733 C39.2421667,13.0640991 39.21998,12.468728 39.0615035,12.3198853 L22.4024531,3.57933049 C21.8129205,3.23414194 21.5435104,3.19613949 21.3691862,3.19613954 Z" id="Shape"></path>
        </g>
    </g>
</svg>