<?xml version="1.0" encoding="UTF-8"?>
<svg width="48px" height="48px" viewBox="0 0 48 48" version="1.1" xmlns="http://www.w3.org/2000/svg" xmlns:xlink="http://www.w3.org/1999/xlink">
    <!-- Generator: Sketch 51.1 (57501) - http://www.bohemiancoding.com/sketch -->
    <title>5/班级群交流辅导</title>
    <desc>Created with Sketch.</desc>
    <defs></defs>
    <g id="5/班级群交流辅导" stroke="none" stroke-width="1" fill="none" fill-rule="evenodd">
        <g id="交流" transform="translate(2.000000, 3.000000)" fill="#009FF5" fill-rule="nonzero">
            <path d="M20.7028761,0.00236226341 C9.26071675,0.00236226341 0.0017587122,8.05716294 0.0017587122,17.9927935 C0.0017587122,24.0895063 3.53963709,29.5095467 8.88375153,32.8209795 L8.88375153,38.3928715 C8.88375153,39.1441379 9.41123641,39.5956969 10.0146472,39.5956969 C10.2397607,39.5956969 10.4662062,39.5211031 10.6153938,39.4451772 L16.2605476,35.6821854 C17.6924826,35.9845567 19.1217535,36.0591506 20.6269503,36.0591506 C32.0691096,36.0591506 41.3267356,28.0043499 41.3267356,18.0687193 C41.4039935,8.05716294 32.1450354,0.00236226341 20.7028761,0.00236226341 Z M20.7028761,33.047425 C19.4227929,33.047425 18.1427096,32.8982374 16.8639584,32.6704598 L16.2605476,32.5212722 C15.8849145,32.4453463 15.5092813,32.5212722 15.1309841,32.7477177 L14.6048312,33.1220189 L11.894145,34.929587 L11.894145,31.9937873 C11.894145,31.4663024 11.5931057,30.9388176 11.1428787,30.7137041 L10.3902803,30.2634771 C5.72283836,27.4768651 2.93755839,22.886681 2.93755839,18.0687193 C2.93755839,9.78880517 10.8431714,3.09001363 20.6269503,3.09001367 C30.4133932,3.09001367 38.3150101,9.78880522 38.3150101,18.0687193 C38.392268,26.2727076 30.4133932,33.047425 20.7028761,33.047425 Z M8.95834535,18.5202784 C8.95834534,19.4078121 9.43183893,20.2279271 10.2004657,20.6716939 C10.9690924,21.1154608 11.9160796,21.1154608 12.6847064,20.6716939 C13.4533331,20.2279271 13.9268267,19.4078121 13.9268267,18.5202784 C13.9268267,17.1482702 12.8145942,16.0360378 11.442586,16.0360378 C10.0705778,16.0360378 8.95834538,17.1482702 8.95834535,18.5202784 Z M18.3691551,18.5202784 C18.3691551,19.4078121 18.8426487,20.2279271 19.6112754,20.6716939 C20.3799022,21.1154608 21.3268894,21.1154608 22.0955161,20.6716939 C22.8641428,20.2279271 23.3376364,19.4078121 23.3376364,18.5202784 C23.3376364,17.1482702 22.225404,16.0360378 20.8533958,16.0360378 C19.4813876,16.0360378 18.3691552,17.1482702 18.3691551,18.5202784 Z M27.4775935,18.5202784 C27.4775935,19.8922866 28.5898259,21.004519 29.9618341,21.004519 C31.3338424,21.004519 32.4460748,19.8922866 32.4460748,18.5202784 C32.4460748,17.1482701 31.3338424,16.0360377 29.9618341,16.0360377 C28.5898259,16.0360377 27.4775935,17.1482701 27.4775935,18.5202784 Z M41.7356696,22.4084813 C41.6917125,22.3512039 41.6450914,22.2979226 41.5984703,22.2419772 C41.2731365,23.4679135 40.8139316,24.6543417 40.2291408,25.7798556 C40.2544494,25.835801 40.2850862,25.8877503 40.3077307,25.9410315 C40.7020124,26.8481457 40.9164696,27.8271896 40.9164696,28.8475265 C40.9164696,31.5555486 39.3513314,34.1356956 36.7285594,35.6995018 L36.3076371,35.952588 C36.0454035,36.0969037 35.8825599,36.3725639 35.8827187,36.6718855 L35.8827187,38.3222738 L34.3615375,37.305933 L34.0644943,37.0954719 C33.8773081,36.9732605 33.6502055,36.9279354 33.4304468,36.9689288 L33.0921106,37.0528468 C32.3808992,37.1866642 31.6592143,37.2570942 30.9355499,37.263308 C29.2902778,37.2684838 27.6640289,36.9114912 26.1722016,36.2176624 C24.7378398,36.5525727 23.2758251,36.7554445 21.804467,36.8237372 C24.1595005,38.8524228 27.3976715,40.1085294 30.978175,40.1085294 C31.9265821,40.1085294 32.8270361,40.0605762 33.7261581,39.8714276 L37.2786888,42.2397815 C37.3732631,42.2864026 37.5157906,42.3330237 37.655654,42.3330237 C38.0352832,42.3330237 38.3669594,42.0493008 38.3669594,41.5764293 L38.3669594,38.0691876 C41.7303415,35.9858888 43.9574999,32.5732215 43.9574998,28.7382999 C43.9588318,26.3939226 43.1382998,24.2160494 41.7356696,22.4084813 Z" id="Shape"></path>
        </g>
    </g>
</svg>