<?xml version="1.0" encoding="UTF-8"?>
<svg width="48px" height="48px" viewBox="0 0 48 48" version="1.1" xmlns="http://www.w3.org/2000/svg" xmlns:xlink="http://www.w3.org/1999/xlink">
    <!-- Generator: Sketch 51.1 (57501) - http://www.bohemiancoding.com/sketch -->
    <title>5/鈭方</title>
    <desc>Created with Sketch.</desc>
    <defs></defs>
    <g id="5/鈭方" stroke="none" stroke-width="1" fill="none" fill-rule="evenodd">
        <rect id="Rectangle-18" fill-rule="nonzero" x="0" y="0" width="48" height="48"></rect>
        <g id="vv" transform="translate(7.000000, 2.000000)" fill="#009FF5" fill-rule="nonzero">
            <path d="M7.31706616,13.6251949 C7.31706616,15.6498328 5.67908861,17.2911197 3.65853308,17.2911197 C1.63797756,17.2911197 0,15.6498327 0,13.6251949 C0,11.6005571 1.63797756,9.95927019 3.65853308,9.95927019 C5.67908861,9.95927019 7.31706616,11.600557 7.31706616,13.6251949 Z M26.6550269,13.6251949 C26.6550269,15.6498328 28.2930044,17.2911197 30.3135599,17.2911197 C32.3341155,17.2911197 33.972093,15.6498327 33.972093,13.6251949 C33.972093,11.6005571 32.3341155,9.95927019 30.3135599,9.95927019 C28.2930044,9.95927019 26.6550269,11.600557 26.6550269,13.6251949 Z M6.27177102,30.383708 L6.27177102,21.713796 C6.27177102,20.1390195 4.99755621,18.8622302 3.42595491,18.8622302 L3.36846366,18.8622302 C1.79686235,18.8622302 0.52264755,20.1390195 0.52264755,21.713796 L0.52264755,30.9074116 C0.52264755,32.6429651 1.92647896,34.0496328 3.65853308,34.0496328 L8.36236136,34.0496328 C8.93988692,34.0496328 9.40765655,34.5183475 9.40765655,35.0970399 L9.40765655,42.4288894 C9.40765655,43.2966662 10.1095723,44 10.9755993,44 L11.4982469,44 C12.3642739,44 13.0661896,43.2966661 13.0661896,42.4288894 L13.0661896,33.5259293 C13.0661896,31.7903757 11.6623582,30.383708 9.9303041,30.383708 L6.27177102,30.383708 Z M30.6036294,18.8622302 L30.5461381,18.8622302 C28.9745368,18.8622302 27.700322,20.1390195 27.700322,21.713796 L27.7003221,30.383708 L24.041789,30.383708 C22.3097348,30.383708 20.9059034,31.7903757 20.9059034,33.5259293 L20.9059034,42.1853672 C20.9059034,43.1877358 21.7165298,44 22.7168773,44 L22.7534626,44 C23.7538101,44 24.5644365,43.1877358 24.5644365,42.1853672 L24.5644365,35.0970399 C24.5644365,34.5183475 25.0322061,34.0496328 25.6097317,34.0496328 L30.31356,34.0496328 C32.0456141,34.0496328 33.4494455,32.6429651 33.4494455,30.9074115 L33.4494455,21.713796 C33.4494455,20.1390195 32.1752307,18.8622302 30.6036294,18.8622302 Z M25.6097317,26.7177833 L25.6097317,25.1466727 C25.6097317,24.8575884 25.3755856,24.6229692 25.0870841,24.6229692 L8.88500895,24.6229692 C8.5965075,24.6229692 8.36236136,24.8575883 8.36236136,25.1466727 L8.36236136,26.7177833 C8.36236136,27.0068676 8.59650745,27.2414868 8.88500895,27.2414868 L25.0870841,27.2414868 C25.3755856,27.2414868 25.6097317,27.0068676 25.6097317,26.7177833 Z M15.5754207,0 C11.7653198,0 8.67699519,2.44936145 8.67699519,5.47060715 C8.67699519,7.27057619 9.77821367,8.86263497 11.4700239,9.85976651 C11.3043446,10.7689158 10.7775158,11.8398896 10.0411054,12.5777879 C11.8400584,12.4431961 13.4231579,11.9263007 14.4600907,10.8631825 C14.8243761,10.9103158 15.1954559,10.9412143 15.5759433,10.9412143 C19.3860442,10.9412143 22.4743688,8.4918529 22.4743688,5.4706072 C22.4743688,2.4493615 19.3849989,0 15.5754207,0 Z M12.3412774,6.55048385 C11.7459818,6.55048385 11.2635781,6.06710548 11.2635781,5.47060715 C11.2635781,4.87410882 11.7459818,4.39073045 12.3412774,4.39073045 C12.936573,4.39073045 13.4189768,4.87410882 13.4189768,5.47060715 C13.4189768,6.06710548 12.936573,6.55048385 12.3412774,6.55048385 Z M15.5754207,6.55048385 C14.9801251,6.55048385 14.4977214,6.06710548 14.4977214,5.47060715 C14.4977214,4.87410882 14.9801251,4.39073045 15.5754207,4.39073045 C16.1707163,4.39073045 16.65312,4.87410882 16.65312,5.47060715 C16.65312,6.06710548 16.1707163,6.55048385 15.5754207,6.55048385 Z M18.8090413,6.55048385 C18.2137457,6.55048385 17.731342,6.06710548 17.731342,5.47060715 C17.731342,4.87410882 18.2137457,4.39073045 18.8090413,4.39073045 C19.4043369,4.39073045 19.8867406,4.87410882 19.8867406,5.47060715 C19.8867406,6.06710548 19.4043369,6.55048385 18.8090413,6.55048385 Z" id="Shape"></path>
        </g>
    </g>
</svg>