<?xml version="1.0" encoding="UTF-8"?>
<svg width="48px" height="48px" viewBox="0 0 48 48" version="1.1" xmlns="http://www.w3.org/2000/svg" xmlns:xlink="http://www.w3.org/1999/xlink">
    <!-- Generator: Sketch 51.1 (57501) - http://www.bohemiancoding.com/sketch -->
    <title>5/拓展课程——直播课</title>
    <desc>Created with Sketch.</desc>
    <defs></defs>
    <g id="5/拓展课程——直播课" stroke="none" stroke-width="1" fill="none" fill-rule="evenodd">
        <g id="talk" transform="translate(2.000000, 2.000000)" fill="#009FF5" fill-rule="nonzero">
            <path d="M13.2,0 L42.625,0 C43.725,0 44,0.55 44,1.1 L44,24.2 C44,24.75 43.45,25.3 42.625,25.3 L24.2,25.3 C24.2,25.3 23.65,26.125 23.1,27.5 C26.4,28.6 28.325,29.7 28.875,31.35 C29.7,33 30.25,35.75 31.075,40.15 C31.075,40.425 31.075,41.25 31.35,42.9 C31.35,43.45 30.8,43.725 29.975,44 L1.375,44 C0.55,44 0,43.725 0,42.9 C0.55,36.025 1.65,31.9 2.75,30.525 C2.75,29.7 4.4,28.875 7.975,27.5 C7.15,25.85 6.6,24.2 6.6,22.55 C6.6,18.7 8.525,15.675 12.1,13.475 L12.1,1.1 C12.1,0.275 12.65,0 13.2,0 Z M2.75,41.525 L28.6,41.525 C28.05,37.125 27.5,34.375 26.95,32.725 C26.4,31.625 25.575,31.075 24.2,30.525 C23.925,30.525 23.1,29.975 21.725,29.7 C20.075,31.35 18.15,32.175 15.675,32.175 C13.475,32.175 11.55,31.35 9.9,29.7 C6.325,30.8 4.4,31.9 4.4,33.55 C3.025,37.125 2.75,39.875 2.75,41.525 Z M14.3,20.35 C12.925,22 11.275,22.825 9.35,22.825 C9.35,25.85 11,28.05 14.025,29.425 C14.575,29.7 15.125,29.7 15.675,29.7 L16.225,29.7 C18.975,29.7 20.625,28.05 22,24.475 C22.275,24.2 22.275,23.65 22.275,23.1 L22.275,22.275 L20.075,22.275 C17.875,22.275 16.225,21.45 14.3,20.35 Z M9.625,20.35 C11.275,20.35 12.375,19.25 13.475,17.325 C13.75,17.05 14.025,16.775 14.3,16.775 L14.575,16.775 C15.125,16.775 15.675,17.325 16.225,18.425 C17.325,19.25 18.975,19.8 21.45,19.8 C20.075,17.05 18.15,15.4 15.95,15.4 L15.125,15.4 C12.65,15.4 11,17.05 9.625,20.35 Z M14.575,2.475 L14.575,12.925 L15.4,12.925 C19.525,12.925 22.275,15.4 23.925,20.075 C24.2,21.175 24.2,22 24.2,22.55 L24.2,23.1 L41.25,23.1 L41.25,2.475 L14.575,2.475 Z M26.95,6.875 L38.5,6.875 C39.325,6.875 39.875,7.425 39.875,7.975 C39.6,8.525 39.05,9.075 38.5,9.075 L27.5,9.075 C26.675,9.075 26.125,8.525 26.125,7.975 C25.85,7.15 26.125,6.875 26.95,6.875 Z M26.675,13.75 L34.925,13.75 C35.2,13.75 35.75,14.025 36.025,14.3 L36.025,14.85 C36.025,15.4 35.475,15.95 34.925,15.95 L26.675,15.95 C25.85,15.95 25.575,15.4 25.575,14.85 C25.85,14.025 26.125,13.75 26.675,13.75 Z" id="Shape"></path>
        </g>
    </g>
</svg>