<?xml version="1.0" encoding="UTF-8"?>
<svg width="32px" height="32px" viewBox="0 0 32 32" version="1.1" xmlns="http://www.w3.org/2000/svg" xmlns:xlink="http://www.w3.org/1999/xlink">
    <!-- Generator: Sketch 51.1 (57501) - http://www.bohemiancoding.com/sketch -->
    <title>10/就业</title>
    <desc>Created with Sketch.</desc>
    <defs></defs>
    <g id="10/就业" stroke="none" stroke-width="1" fill="none" fill-rule="evenodd">
        <g id="就业服务" transform="translate(4.000000, 2.000000)" fill="#FFFFFF" fill-rule="nonzero">
            <path d="M21.0683893,0.0283571305 C15.0456993,0.0243453543 9.023229,0.0270381904 3.00064885,0.0270381904 L1.55401948,0.0270381904 L1.55401948,3.85781563 L1.55415687,4.16782138 L0.880590932,4.16782138 C0.394204499,4.16782138 6.45731109e-06,4.56212936 6.45731109e-06,5.04854324 C6.45731109e-06,5.53468237 0.394204499,5.92901781 0.880590932,5.92901783 L1.55520103,5.92901783 L1.55613528,7.66960585 L0.880590932,7.66960585 C0.394204499,7.66960585 6.45731109e-06,8.0639138 6.45731109e-06,8.55008041 C6.45731109e-06,9.03649432 0.394204499,9.43080228 0.880590932,9.43080228 L1.55706953,9.43080228 L1.55800378,11.1713903 L0.880590932,11.1713903 C0.394204499,11.1713903 6.45731109e-06,11.5656983 6.45731109e-06,12.0518649 C6.45731109e-06,12.5382788 0.394204499,12.9325867 0.880590932,12.9325867 L1.55896551,12.9325867 L1.55989976,14.6729 L0.880590932,14.6729 C0.394204499,14.6729 6.45731109e-06,15.0672354 6.45731109e-06,15.5533471 C6.45731109e-06,16.039761 0.394204499,16.4340964 0.880590932,16.4340964 L1.56080653,16.4340964 L1.56187817,18.1746844 L0.880590932,18.1746844 C0.394204499,18.1746844 6.45731109e-06,18.5689924 6.45731109e-06,19.055159 C6.45731109e-06,19.5415729 0.394204499,19.9359083 0.880590932,19.9359084 L1.56283989,19.9359084 L1.56377414,21.6764964 L0.880590932,21.6764964 C0.394204499,21.6764689 6.45731109e-06,22.0708043 6.45731109e-06,22.5569435 C6.45731109e-06,23.0433299 0.394204499,23.4376653 0.880590932,23.4376653 L1.56470839,23.4376653 L1.56512056,24.1623402 L1.56512056,27.9979537 L2.88312584,27.9979537 C8.99698762,27.9979537 15.1107395,28.0041088 21.2247111,27.9950136 C23.7239641,27.9912491 24.8641049,26.8184921 24.8654514,24.2774726 C24.8694632,17.4794934 24.8681167,10.6812394 24.8662482,3.88301288 C24.8654789,1.19339292 23.7220957,0.0299783278 21.0683893,0.0283571305 Z M21.2793647,26.2429123 C15.4841917,26.2503863 9.68874394,26.2380762 3.8937083,26.2273873 C3.76494683,26.2273873 3.63632274,26.1612755 3.39968301,26.0959605 L3.39968301,23.7613551 L3.39913345,23.4376928 L4.15043439,23.4376928 C4.63671092,23.4376928 5.03101887,23.0433574 5.03101887,22.5569709 C5.03101887,22.0708318 4.63668344,21.6764964 4.15043439,21.6764964 L3.39591853,21.6764964 L3.392841,19.9359084 L4.15043439,19.9359084 C4.63671092,19.9359084 5.03101887,19.5415729 5.03101887,19.055159 C5.03101887,18.5690199 4.63668344,18.1746844 4.15043439,18.1746844 L3.38976348,18.1746844 L3.38668595,16.4340964 L4.15043439,16.4340964 C4.63671092,16.4340964 5.03101887,16.039761 5.03101887,15.5533471 C5.03101887,15.0672354 4.63668344,14.6729 4.15043439,14.6729 L3.38347103,14.6729 L3.38039353,12.9325867 L4.15043439,12.9325867 C4.63671092,12.9325867 5.03101887,12.5382513 5.03101887,12.0518649 C5.03101887,11.5657257 4.63668344,11.1713903 4.15043439,11.1713903 L3.37731601,11.1713903 L3.37423848,9.43080228 L4.15043439,9.43080228 C4.63671092,9.43080228 5.03101887,9.03646685 5.03101887,8.55008041 C5.03101887,8.06394128 4.63668344,7.66960585 4.15043439,7.66960585 L3.37102356,7.66960585 L3.36794604,5.92901783 L4.15043439,5.92901783 C4.63671092,5.92901783 5.03101887,5.5346824 5.03101887,5.04854324 C5.03101887,4.56212933 4.63668344,4.16782138 4.15043439,4.16782138 L3.36486851,4.16782138 L3.36431895,3.87977048 L3.36431895,1.97294114 C3.87386924,1.9448587 4.31357072,1.90012468 4.75340959,1.89987738 C10.1382,1.89504126 15.522963,1.8942444 20.907781,1.89800888 C22.7621275,1.8993553 22.9944807,2.12475656 22.995305,3.92288331 C22.9985199,10.7221815 22.97978,17.5217544 23.0124238,24.3208327 C23.0186063,25.5757762 22.5281806,26.2418407 21.2793647,26.2429123 Z" id="Shape"></path>
            <path d="M16.5308801,8.48850242 C16.0102013,7.31516833 14.9271046,6.94358459 13.8945673,6.47538854 L12.7983362,6.47538854 C12.5172647,6.62154354 12.2361657,6.76717643 11.9553415,6.9133314 C10.2067299,7.82296004 9.53852218,9.81010731 10.3887436,11.573447 C11.2006882,13.25809 13.2057511,13.9533085 14.9254559,13.1461725 C16.6328781,12.3452465 17.3230132,10.2753907 16.5308801,8.48850242 Z M13.3564949,11.3668132 C12.5279811,11.284352 12.003263,10.7510882 12.0685779,9.89847625 C12.1288095,9.11170133 12.6845502,8.68230408 13.468385,8.69302047 C14.3485847,8.70480849 14.7196189,9.29775425 14.8740723,10.0296558 C14.6679605,10.8919125 14.232683,11.454083 13.3564949,11.3668132 Z M19.9933162,18.4970003 C19.4777208,17.383623 18.8679036,16.313908 18.3006222,15.2241068 C18.0032288,14.9708429 17.6412898,14.9368527 17.2761634,14.938996 C14.4208517,14.9558675 11.5655674,14.9775475 8.71000836,14.9976339 L8.71162953,14.998046 L8.71028314,14.9979087 C8.04798315,16.294646 7.32921606,17.5662137 6.73921042,18.8950727 C6.1119997,20.3074646 7.1260444,21.8116877 8.66585134,21.8215797 C11.7200207,21.8408417 14.7744923,21.8317465 17.8289364,21.8269379 C19.9028315,21.823723 20.8620302,20.3730544 19.9933162,18.4970003 Z M18.0519746,19.4248468 C17.9593466,19.9471468 17.5224479,19.8515512 17.186503,19.8566621 C15.9572239,19.8759241 14.7273952,19.8644108 13.4981161,19.8641361 C12.2685622,19.8641361 11.0390083,19.8577337 9.80948183,19.8662793 C8.9544518,19.8724344 8.65782779,19.6092785 9.02191006,18.7073986 C9.53484014,17.4360783 10.2217603,16.6894761 11.7578028,16.8578332 C13.1530485,17.0104455 14.5782726,16.8725614 15.9890708,16.9065515 C16.8117043,16.9263906 18.1892817,18.6493103 18.0519746,19.4248468 Z" id="Shape"></path>
        </g>
    </g>
</svg>