<?xml version="1.0" encoding="UTF-8"?>
<svg width="32px" height="32px" viewBox="0 0 32 32" version="1.1" xmlns="http://www.w3.org/2000/svg" xmlns:xlink="http://www.w3.org/1999/xlink">
    <!-- Generator: Sketch 51.1 (57501) - http://www.bohemiancoding.com/sketch -->
    <title>10/退款</title>
    <desc>Created with Sketch.</desc>
    <defs></defs>
    <g id="10/退款" stroke="none" stroke-width="1" fill="none" fill-rule="evenodd">
        <g id="退款" transform="translate(5.000000, 2.000000)" fill="#FFFFFF" fill-rule="nonzero">
            <path d="M13.755971,0.011826087 L8.54872464,0.011826087 C7.68953623,0.011826087 6.98655072,0.714811594 6.98655072,1.574 L6.98655072,4.69834783 C6.98655072,5.55753623 7.68953623,6.26052174 8.54872464,6.26052174 L13.755971,6.26052174 C14.6151884,6.26052174 15.3181739,5.55753623 15.3181739,4.69834783 L15.3181739,1.574 C15.3181739,0.714811594 14.6151884,0.011826087 13.755971,0.011826087 Z M13.755971,4.07347826 C13.755971,4.41713043 13.4747536,4.69834783 13.1311014,4.69834783 L9.17362319,4.69834783 C8.82994203,4.69834783 8.54872464,4.41713043 8.54872464,4.07347826 L8.54872464,2.19884058 C8.54872464,1.85518841 8.82994203,1.57397101 9.17362319,1.57397101 L13.1311304,1.57397101 C13.4748116,1.57397101 13.756,1.85518841 13.756,2.19884058 L13.756,4.07344928 L13.755971,4.07347826 Z M20.7336812,4.76605797 L20.7336812,14.8774783 L22.2958551,14.8774783 L22.2958551,4.03701449 C22.2958551,3.17782609 21.5928696,2.47484058 20.7336812,2.47484058 L15.3181739,2.47484058 L15.3181739,4.03701449 L20.0046667,4.03701449 C20.4056232,4.03701449 20.7336522,4.36507246 20.7336522,4.76605797 L20.7336812,4.76605797 Z" id="Shape"></path>
            <path d="M12.6432754,26.4281739 L2.3,26.4281739 C1.89907246,26.4281739 1.57098551,26.1001449 1.57098551,25.6991594 L1.57098551,4.76605797 C1.57098551,4.36510145 1.89901449,4.03707246 2.3,4.03707246 L6.98652174,4.03707246 L6.98652174,2.47484058 L1.57101449,2.47484058 C0.711797101,2.47484058 0.0088115942,3.17782609 0.0088115942,4.03701449 L0.0088115942,26.4282029 C0.0088115942,27.2873913 0.711797101,27.9903768 1.57101449,27.9903768 L12.6432754,27.9903768 L12.6432754,26.4281449 L12.6432754,26.4281739 Z" id="Shape"></path>
            <path d="M15.0989565,13.1112464 C15.5387826,13.1112464 15.8986667,12.7513913 15.8986667,12.3115652 C15.8986667,11.8717681 15.5387826,11.5118841 15.0989565,11.5118841 L13.5101739,11.5118841 L15.2332174,9.78884058 C15.5442319,9.47782609 15.5442319,8.96892754 15.2332174,8.65791304 C14.9222029,8.34689855 14.4133043,8.34689855 14.1022899,8.65791304 L11.2483188,11.5118841 L11.176029,11.5118841 L8.32205797,8.65791304 C8.01104348,8.34689855 7.50211594,8.34689855 7.19113043,8.65791304 C6.88011594,8.96892754 6.88011594,9.47785507 7.19113043,9.78884058 L8.91414493,11.5118841 L7.32536232,11.5118841 C6.88556522,11.5118841 6.52568116,11.8717681 6.52568116,12.3115942 C6.52568116,12.7513913 6.88556522,13.1112464 7.3253913,13.1112464 L10.4124638,13.1112464 L10.4124638,14.4510435 L7.32536232,14.4510435 C6.88556522,14.4510435 6.52568116,14.8109275 6.52568116,15.2507536 C6.52568116,15.6905507 6.88556522,16.0504058 7.3253913,16.0504058 L10.4124638,16.0504058 L10.4124638,20.6071304 C10.4124638,21.0469565 10.7723188,21.4068406 11.2121449,21.4068406 C11.651971,21.4068406 12.0118261,21.0469565 12.0118261,20.6071304 L12.0118261,16.0504638 L15.0989275,16.0504638 C15.5387536,16.0504638 15.8986377,15.6905797 15.8986377,15.2507536 C15.8986377,14.8109565 15.5387536,14.4511014 15.0989275,14.4511014 L12.0118841,14.4511014 L12.0118841,13.1112754 L15.0989855,13.1112754 L15.0989565,13.1112464 Z M22.2958551,23.5874203 C22.2958551,24.1610725 22.1877971,24.7011594 21.9717391,25.2077971 C21.7557101,25.7144058 21.4595652,26.1632174 21.0833333,26.5543478 C20.7071014,26.9454493 20.2637971,27.2658261 19.7535362,27.5153913 C19.2431594,27.7649565 18.6937681,27.9158551 18.1052174,27.967971 C18.0718836,27.9747704 18.038316,27.9803682 18.0045797,27.9847536 C17.9712079,27.9886578 17.9376277,27.9905067 17.904029,27.9902899 L15.9707826,27.9902899 C15.8441159,27.9902899 15.7193333,27.967913 15.5964058,27.9232464 C15.4734493,27.8785507 15.3635362,27.8171014 15.2666957,27.7388406 C15.1698261,27.6606377 15.0897971,27.5693623 15.0264348,27.4650725 C14.9631884,27.3607826 14.9314203,27.2527536 14.9314203,27.1409855 C14.9314203,27.0292464 14.9613043,26.9211884 15.0208696,26.8168986 C15.0804638,26.7125797 15.1586667,26.6232174 15.2555652,26.5486957 C15.3523768,26.4741449 15.4603768,26.4145797 15.5796232,26.3698551 C15.6974738,26.3254256 15.8224005,26.3027206 15.9483478,26.3028406 L17.6804638,26.314 C18.0753043,26.314 18.4478261,26.2413623 18.797942,26.096058 C19.148087,25.9507826 19.4535942,25.7552464 19.7143478,25.5093913 C19.9750725,25.2635652 20.179971,24.9748696 20.3289855,24.6433043 C20.477971,24.3118261 20.5525217,23.956058 20.5525217,23.576087 C20.5525217,23.2184638 20.4854493,22.8832464 20.3513333,22.5703478 C20.2172464,22.2574493 20.0328986,21.978087 19.7982029,21.7322319 C19.5635072,21.4863478 19.2897101,21.2870725 18.9768116,21.1343478 C18.663913,20.9816232 18.3249275,20.8866087 17.9598551,20.8494203 C17.9449565,20.8494203 17.9356232,20.8512754 17.931913,20.8549855 C17.9282029,20.8586957 17.9188696,20.8606087 17.904,20.8606087 L16.1271884,20.8606087 L16.1271884,21.7435362 C16.1271884,21.8702029 16.0768696,21.9632754 15.9763188,22.0228986 C15.8757391,22.0824928 15.7137101,22.0452464 15.4901739,21.9111884 C15.4305797,21.8738841 15.3356232,21.8087246 15.2052464,21.7156232 C15.0522099,21.6061634 14.8994847,21.4962693 14.7470725,21.385942 C14.562379,21.2522717 14.3780016,21.118165 14.193942,20.9836232 L13.6352174,20.5589855 C13.5234783,20.4696522 13.4266087,20.3895362 13.3446377,20.3187536 C13.2626667,20.248029 13.2217101,20.1604058 13.2217101,20.0561449 C13.2217101,19.9667826 13.2682609,19.8736232 13.3613913,19.7767826 C13.4545217,19.679942 13.5606667,19.5830725 13.6798841,19.4862319 C13.813942,19.3744638 13.9741449,19.2441159 14.1603768,19.0951014 C14.3436661,18.9484363 14.5280676,18.8031664 14.7135652,18.6593043 C14.8782348,18.5317751 15.0421316,18.4032511 15.2052464,18.2737391 C15.3504638,18.1582609 15.4529855,18.0781739 15.5125507,18.0335072 C15.6913913,17.9068406 15.8366087,17.8807536 15.9483478,17.9553043 C16.060087,18.0297971 16.1196812,18.1415362 16.1271884,18.2905797 L16.1271884,19.1845507 L17.904,19.1845507 C17.9412464,19.1845507 17.9803768,19.1882609 18.0213333,19.1956812 C18.0623478,19.2031594 18.1013913,19.2105797 18.1386667,19.218058 C18.7197681,19.2776522 19.2636232,19.4303768 19.7702029,19.6762609 C20.2768116,19.922058 20.7182319,20.2405797 21.0944638,20.6316812 C21.4706957,21.0228116 21.7649565,21.4716232 21.9772754,21.9783188 C22.1896522,22.4848406 22.2958551,23.0212174 22.2958551,23.5874203 Z" id="Shape"></path>
        </g>
    </g>
</svg>