<?xml version="1.0" encoding="UTF-8"?>
<svg width="37px" height="33px" viewBox="0 0 37 33" version="1.1" xmlns="http://www.w3.org/2000/svg" xmlns:xlink="http://www.w3.org/1999/xlink">
    <!-- Generator: Sketch 51.1 (57501) - http://www.bohemiancoding.com/sketch -->
    <title>引号@2x</title>
    <desc>Created with Sketch.</desc>
    <defs></defs>
    <g id="Page-1" stroke="none" stroke-width="1" fill="none" fill-rule="evenodd">
        <g id="饥人谷-前端的学习" transform="translate(-520.000000, -6436.000000)" fill="#B8D7E9" fill-rule="nonzero">
            <g id="8" transform="translate(0.000000, 6258.000000)">
                <g id="引号" transform="translate(520.000000, 178.287500)">
                    <path d="M36.6666667,32.0666667 L21.2309631,32.0666667 L21.2309631,20.8030066 C21.2309631,16.2078563 21.6246319,12.6027745 22.4119862,9.98764855 C23.1993377,7.37252261 24.018117,5.62675853 26.1604515,3.53465721 C28.3027833,1.44255873 29.7892218,0.8147593 32.9337957,0 L35.1306536,4.78059125 C32.9337957,5.62993983 31.5953996,6.00875665 29.5311344,8.17556372 C27.4668692,10.3423707 27.3146091,12.4381709 27.3146091,14.2395417 L36.6666667,14.2395417 L36.6666667,32.0666667 Z M15.4357064,32.0666667 L0,32.0666667 L0,20.8030066 C0,16.2078563 0.393671587,12.6027745 1.18102307,9.98764855 C1.96837735,7.37252261 2.78715672,5.62675853 4.92948845,3.53465721 C7.07182294,1.44255873 8.55825871,0.8147593 11.7028354,0 L13.8996905,4.78059125 C11.7028354,5.62993983 10.3644366,6.00875665 8.30017134,8.17556372 C6.23590613,10.3423707 6.08364601,12.4381709 6.08364601,14.2395417 L15.4357064,14.2395417 L15.4357064,32.0666667 Z" id="Shape"></path>
                </g>
            </g>
        </g>
    </g>
</svg>