<?xml version="1.0" encoding="UTF-8"?>
<svg width="48px" height="48px" viewBox="0 0 48 48" version="1.1" xmlns="http://www.w3.org/2000/svg" xmlns:xlink="http://www.w3.org/1999/xlink">
    <!-- Generator: Sketch 51.1 (57501) - http://www.bohemiancoding.com/sketch -->
    <title>5/集中式答疑live</title>
    <desc>Created with Sketch.</desc>
    <defs></defs>
    <g id="5/集中式答疑live" stroke="none" stroke-width="1" fill="none" fill-rule="evenodd">
        <g id="老师答疑" transform="translate(2.000000, 4.000000)" fill="#009FF5" fill-rule="nonzero">
            <path d="M30.5232551,2.6321049 L42.0304588,2.6321049 C43.7162275,2.6321049 43.7162275,0.0179418318 42.0304588,0.0179418318 L30.5232551,0.0179418318 C28.8374863,-0.0309210293 28.8374863,2.6321049 30.5232551,2.6321049 Z M37.559507,7.12748812 L41.9083017,7.12748812 C43.5940704,7.12748812 43.5940704,4.51332505 41.9083017,4.51332505 L37.559507,4.51332505 C35.8737383,4.51332505 35.8737383,7.12748812 37.559507,7.12748812 Z M24.6108489,11.6473028 C24.5375546,16.2404117 20.8972714,19.8074006 16.279731,19.9295577 C11.6866221,20.002852 8.07077038,16.0938231 7.99747609,11.6473028 C7.9241818,7.0297624 11.8332107,3.38947925 16.279731,3.31618496 C20.8972714,3.21845923 24.5131231,7.17635098 24.6108489,11.6473028 C24.6597117,13.3330715 27.2738748,13.3330715 27.2250119,11.6473028 C27.1517176,5.56387657 22.3631573,0.82417904 16.279731,0.702021887 C10.2207363,0.579864734 5.43217588,5.75932801 5.35888159,11.6473028 C5.23672444,17.6818661 10.4406191,22.4704265 16.3041625,22.5925837 C22.3387258,22.6658779 27.1272862,17.4864147 27.2250119,11.6473028 C27.2494434,9.9126712 24.6108489,9.9126712 24.6108489,11.6473028 Z" id="Shape"></path>
            <path d="M32.4533381,38.2042678 C33.5771839,28.5538527 25.979009,20.0517149 16.3041625,19.9295577 C6.60488455,19.8562634 -0.968858917,28.7493042 0.154986888,38.2042678 C0.350438332,39.865605 3.01346426,39.8900365 2.76914996,38.2042678 C1.79189273,29.9953071 7.87531894,22.6658779 16.3041625,22.5437208 C20.1398971,22.4948579 23.7068859,24.1561952 26.321049,26.8925154 C29.2283892,29.9220128 30.3033722,34.0997874 29.8147436,38.1554049 C29.6437236,39.8900365 32.2578866,39.8900365 32.4533381,38.2042678 Z" id="Shape"></path>
            <path d="M32.6487895,38.1309735 C36.1180526,29.2379328 39.5628844,20.2960292 42.9832846,11.3541256 C43.5940704,9.79051405 41.0532016,9.10643399 40.4424159,10.6211827 C36.9731527,19.5142234 33.528321,28.456127 30.1079207,37.3980306 C29.5215664,39.010505 32.0380037,39.694585 32.6487895,38.1309735 Z" id="Shape"></path>
        </g>
    </g>
</svg>